<?xml version="1.0" encoding="utf-8" standalone="no"?>
<!DOCTYPE svg PUBLIC "-//W3C//DTD SVG 1.1//EN"
  "http://www.w3.org/Graphics/SVG/1.1/DTD/svg11.dtd">
<svg xmlns:xlink="http://www.w3.org/1999/xlink" width="639.885938pt" height="222.999375pt" viewBox="0 0 639.885938 222.999375" xmlns="http://www.w3.org/2000/svg" version="1.1">
 <metadata>
  <rdf:RDF xmlns:dc="http://purl.org/dc/elements/1.1/" xmlns:cc="http://creativecommons.org/ns#" xmlns:rdf="http://www.w3.org/1999/02/22-rdf-syntax-ns#">
   <cc:Work>
    <dc:type rdf:resource="http://purl.org/dc/dcmitype/StillImage"/>
    <dc:date>2026-09-24T10:12:56.175770</dc:date>
    <dc:format>image/svg+xml</dc:format>
    <dc:creator>
     <cc:Agent>
      <dc:title>Matplotlib v3.11.2, https://matplotlib.org/</dc:title>
     </cc:Agent>
    </dc:creator>
   </cc:Work>
  </rdf:RDF>
 </metadata>
 <defs>
  <style type="text/css">*{stroke-linejoin: round; stroke-linecap: butt}</style>
 </defs>
 <g id="figure_1">
  <g id="patch_1">
   <path d="M 0 222.999375 
L 639.885938 222.999375 
L 639.885938 0 
L 0 0 
z
" style="fill: #ffffff"/>
  </g>
  <g id="axes_1">
   <g id="patch_2">
    <path d="M 47.288281 198.798594 
L 632.685938 198.798594 
L 632.685938 22.318125 
L 47.288281 22.318125 
z
" style="fill: #ffffff"/>
   </g>
   <g id="FillBetweenPolyCollection_1">
    <defs>
     <path id="ma788018cdc" d="M 53.027474 -24.200781 
L 53.027474 -25.889994 
L 58.766667 -30.39456 
L 64.505859 -30.957631 
L 70.245052 -43.345189 
L 75.984245 -51.22818 
L 81.723438 -52.354322 
L 87.46263 -52.917393 
L 93.201823 -53.480463 
L 98.941016 -54.043534 
L 104.680208 -54.88814 
L 110.419401 -57.703494 
L 116.158594 -59.392707 
L 121.897786 -61.081919 
L 127.636979 -63.897273 
L 133.376172 -64.178809 
L 139.115365 -64.74188 
L 144.854557 -66.431092 
L 150.59375 -74.595619 
L 156.332943 -79.100185 
L 162.072135 -81.352469 
L 167.811328 -82.197075 
L 173.550521 -83.323216 
L 179.289714 -86.701641 
L 185.028906 -87.546247 
L 190.768099 -88.672389 
L 196.507292 -89.23546 
L 202.246484 -90.080066 
L 207.985677 -90.080066 
L 213.72487 -90.080066 
L 219.464063 -90.080066 
L 225.203255 -90.080066 
L 230.942448 -95.429239 
L 236.681641 -101.904553 
L 242.420833 -102.186088 
L 248.160026 -103.875301 
L 253.899219 -104.156836 
L 259.638411 -105.001443 
L 265.377604 -105.846049 
L 271.116797 -106.40912 
L 276.85599 -106.690655 
L 282.595182 -106.97219 
L 288.334375 -106.97219 
L 294.073568 -107.253726 
L 299.81276 -107.253726 
L 305.551953 -107.253726 
L 311.291146 -116.544394 
L 317.030339 -120.767425 
L 322.769531 -121.330496 
L 328.508724 -121.893567 
L 334.247917 -121.893567 
L 339.987109 -121.893567 
L 345.726302 -122.175102 
L 351.465495 -122.175102 
L 357.204688 -122.456638 
L 362.94388 -122.456638 
L 368.683073 -122.456638 
L 374.422266 -122.738173 
L 380.161458 -123.301244 
L 385.900651 -123.582779 
L 391.639844 -133.154983 
L 397.379036 -138.22262 
L 403.118229 -139.067227 
L 408.857422 -139.348762 
L 414.596615 -139.348762 
L 420.335807 -141.31951 
L 426.075 -142.727187 
L 431.814193 -144.97947 
L 437.553385 -145.542541 
L 443.292578 -146.387147 
L 449.031771 -147.513289 
L 454.770964 -147.513289 
L 460.510156 -148.357895 
L 466.249349 -148.920966 
L 471.988542 -158.211634 
L 477.727734 -161.308524 
L 483.466927 -162.15313 
L 489.20612 -162.997736 
L 494.945313 -163.842342 
L 500.684505 -163.842342 
L 506.423698 -163.842342 
L 512.162891 -164.405413 
L 517.902083 -164.405413 
L 523.641276 -164.405413 
L 529.380469 -167.220767 
L 535.119661 -167.783838 
L 540.858854 -168.628444 
L 546.598047 -168.90998 
L 552.33724 -177.637577 
L 558.076432 -182.98675 
L 563.815625 -184.957498 
L 569.554818 -186.928245 
L 575.29401 -187.772852 
L 581.033203 -188.617458 
L 586.772396 -188.617458 
L 592.511589 -188.617458 
L 598.250781 -188.617458 
L 603.989974 -188.617458 
L 609.729167 -189.180529 
L 615.468359 -189.462064 
L 621.207552 -190.588206 
L 626.946745 -191.151277 
L 632.685938 -192.277418 
L 632.685938 -24.200781 
L 632.685938 -24.200781 
L 626.946745 -24.200781 
L 621.207552 -24.200781 
L 615.468359 -24.200781 
L 609.729167 -24.200781 
L 603.989974 -24.200781 
L 598.250781 -24.200781 
L 592.511589 -24.200781 
L 586.772396 -24.200781 
L 581.033203 -24.200781 
L 575.29401 -24.200781 
L 569.554818 -24.200781 
L 563.815625 -24.200781 
L 558.076432 -24.200781 
L 552.33724 -24.200781 
L 546.598047 -24.200781 
L 540.858854 -24.200781 
L 535.119661 -24.200781 
L 529.380469 -24.200781 
L 523.641276 -24.200781 
L 517.902083 -24.200781 
L 512.162891 -24.200781 
L 506.423698 -24.200781 
L 500.684505 -24.200781 
L 494.945313 -24.200781 
L 489.20612 -24.200781 
L 483.466927 -24.200781 
L 477.727734 -24.200781 
L 471.988542 -24.200781 
L 466.249349 -24.200781 
L 460.510156 -24.200781 
L 454.770964 -24.200781 
L 449.031771 -24.200781 
L 443.292578 -24.200781 
L 437.553385 -24.200781 
L 431.814193 -24.200781 
L 426.075 -24.200781 
L 420.335807 -24.200781 
L 414.596615 -24.200781 
L 408.857422 -24.200781 
L 403.118229 -24.200781 
L 397.379036 -24.200781 
L 391.639844 -24.200781 
L 385.900651 -24.200781 
L 380.161458 -24.200781 
L 374.422266 -24.200781 
L 368.683073 -24.200781 
L 362.94388 -24.200781 
L 357.204688 -24.200781 
L 351.465495 -24.200781 
L 345.726302 -24.200781 
L 339.987109 -24.200781 
L 334.247917 -24.200781 
L 328.508724 -24.200781 
L 322.769531 -24.200781 
L 317.030339 -24.200781 
L 311.291146 -24.200781 
L 305.551953 -24.200781 
L 299.81276 -24.200781 
L 294.073568 -24.200781 
L 288.334375 -24.200781 
L 282.595182 -24.200781 
L 276.85599 -24.200781 
L 271.116797 -24.200781 
L 265.377604 -24.200781 
L 259.638411 -24.200781 
L 253.899219 -24.200781 
L 248.160026 -24.200781 
L 242.420833 -24.200781 
L 236.681641 -24.200781 
L 230.942448 -24.200781 
L 225.203255 -24.200781 
L 219.464063 -24.200781 
L 213.72487 -24.200781 
L 207.985677 -24.200781 
L 202.246484 -24.200781 
L 196.507292 -24.200781 
L 190.768099 -24.200781 
L 185.028906 -24.200781 
L 179.289714 -24.200781 
L 173.550521 -24.200781 
L 167.811328 -24.200781 
L 162.072135 -24.200781 
L 156.332943 -24.200781 
L 150.59375 -24.200781 
L 144.854557 -24.200781 
L 139.115365 -24.200781 
L 133.376172 -24.200781 
L 127.636979 -24.200781 
L 121.897786 -24.200781 
L 116.158594 -24.200781 
L 110.419401 -24.200781 
L 104.680208 -24.200781 
L 98.941016 -24.200781 
L 93.201823 -24.200781 
L 87.46263 -24.200781 
L 81.723438 -24.200781 
L 75.984245 -24.200781 
L 70.245052 -24.200781 
L 64.505859 -24.200781 
L 58.766667 -24.200781 
L 53.027474 -24.200781 
z
" style="stroke: #f4900c; stroke-opacity: 0.15"/>
    </defs>
    <g clip-path="url(#pe933fb749d)">
     <use xlink:href="#ma788018cdc" x="0" y="222.999375" style="fill: #f4900c; fill-opacity: 0.15; stroke: #f4900c; stroke-opacity: 0.15"/>
    </g>
   </g>
   <g id="matplotlib.axis_1">
    <g id="xtick_1">
     <g id="line2d_1">
      <defs>
       <path id="m43b62484bd" d="M 0 0 
L 0 3.5 
" style="stroke: #000000; stroke-width: 0.8"/>
      </defs>
      <g>
       <use xlink:href="#m43b62484bd" x="53.027474" y="198.798594" style="stroke: #000000; stroke-width: 0.8"/>
      </g>
     </g>
     <g id="text_1">
      <!-- Jun 15 -->
      <g transform="translate(37.263411 213.39625) scale(0.1 -0.1)">
       <defs>
        <path id="DejaVuSans-2d" d="M 628 4666 
L 1259 4666 
L 1259 325 
Q 1259 -519 939 -900 
Q 619 -1281 -91 -1281 
L -331 -1281 
L -331 -750 
L -134 -750 
Q 284 -750 456 -515 
Q 628 -281 628 325 
L 628 4666 
z
" transform="scale(0.015625)"/>
        <path id="DejaVuSans-58" d="M 544 1381 
L 544 3500 
L 1119 3500 
L 1119 1403 
Q 1119 906 1312 657 
Q 1506 409 1894 409 
Q 2359 409 2629 706 
Q 2900 1003 2900 1516 
L 2900 3500 
L 3475 3500 
L 3475 0 
L 2900 0 
L 2900 538 
Q 2691 219 2414 64 
Q 2138 -91 1772 -91 
Q 1169 -91 856 284 
Q 544 659 544 1381 
z
M 1991 3584 
L 1991 3584 
z
" transform="scale(0.015625)"/>
        <path id="DejaVuSans-51" d="M 3513 2113 
L 3513 0 
L 2938 0 
L 2938 2094 
Q 2938 2591 2744 2837 
Q 2550 3084 2163 3084 
Q 1697 3084 1428 2787 
Q 1159 2491 1159 1978 
L 1159 0 
L 581 0 
L 581 3500 
L 1159 3500 
L 1159 2956 
Q 1366 3272 1645 3428 
Q 1925 3584 2291 3584 
Q 2894 3584 3203 3211 
Q 3513 2838 3513 2113 
z
" transform="scale(0.015625)"/>
        <path id="DejaVuSans-3" transform="scale(0.015625)"/>
        <path id="DejaVuSans-14" d="M 794 531 
L 1825 531 
L 1825 4091 
L 703 3866 
L 703 4441 
L 1819 4666 
L 2450 4666 
L 2450 531 
L 3481 531 
L 3481 0 
L 794 0 
L 794 531 
z
" transform="scale(0.015625)"/>
        <path id="DejaVuSans-18" d="M 691 4666 
L 3169 4666 
L 3169 4134 
L 1269 4134 
L 1269 2991 
Q 1406 3038 1543 3061 
Q 1681 3084 1819 3084 
Q 2600 3084 3056 2656 
Q 3513 2228 3513 1497 
Q 3513 744 3044 326 
Q 2575 -91 1722 -91 
Q 1428 -91 1123 -41 
Q 819 9 494 109 
L 494 744 
Q 775 591 1075 516 
Q 1375 441 1709 441 
Q 2250 441 2565 725 
Q 2881 1009 2881 1497 
Q 2881 1984 2565 2268 
Q 2250 2553 1709 2553 
Q 1456 2553 1204 2497 
Q 953 2441 691 2322 
L 691 4666 
z
" transform="scale(0.015625)"/>
       </defs>
       <use xlink:href="#DejaVuSans-2d"/>
       <use xlink:href="#DejaVuSans-58" transform="translate(29.5 0)"/>
       <use xlink:href="#DejaVuSans-51" transform="translate(92.875 0)"/>
       <use xlink:href="#DejaVuSans-3" transform="translate(156.25 0)"/>
       <use xlink:href="#DejaVuSans-14" transform="translate(188.03125 0)"/>
       <use xlink:href="#DejaVuSans-18" transform="translate(251.65625 0)"/>
      </g>
     </g>
    </g>
    <g id="xtick_2">
     <g id="line2d_2">
      <g>
       <use xlink:href="#m43b62484bd" x="144.854557" y="198.798594" style="stroke: #000000; stroke-width: 0.8"/>
      </g>
     </g>
     <g id="text_2">
      <!-- Jul 01 -->
      <g transform="translate(130.870182 213.397031) scale(0.1 -0.1)">
       <defs>
        <path id="DejaVuSans-4f" d="M 603 4863 
L 1178 4863 
L 1178 0 
L 603 0 
L 603 4863 
z
" transform="scale(0.015625)"/>
        <path id="DejaVuSans-13" d="M 2034 4250 
Q 1547 4250 1301 3770 
Q 1056 3291 1056 2328 
Q 1056 1369 1301 889 
Q 1547 409 2034 409 
Q 2525 409 2770 889 
Q 3016 1369 3016 2328 
Q 3016 3291 2770 3770 
Q 2525 4250 2034 4250 
z
M 2034 4750 
Q 2819 4750 3233 4129 
Q 3647 3509 3647 2328 
Q 3647 1150 3233 529 
Q 2819 -91 2034 -91 
Q 1250 -91 836 529 
Q 422 1150 422 2328 
Q 422 3509 836 4129 
Q 1250 4750 2034 4750 
z
" transform="scale(0.015625)"/>
       </defs>
       <use xlink:href="#DejaVuSans-2d"/>
       <use xlink:href="#DejaVuSans-58" transform="translate(29.5 0)"/>
       <use xlink:href="#DejaVuSans-4f" transform="translate(92.875 0)"/>
       <use xlink:href="#DejaVuSans-3" transform="translate(120.65625 0)"/>
       <use xlink:href="#DejaVuSans-13" transform="translate(152.4375 0)"/>
       <use xlink:href="#DejaVuSans-14" transform="translate(216.0625 0)"/>
      </g>
     </g>
    </g>
    <g id="xtick_3">
     <g id="line2d_3">
      <g>
       <use xlink:href="#m43b62484bd" x="225.203255" y="198.798594" style="stroke: #000000; stroke-width: 0.8"/>
      </g>
     </g>
     <g id="text_3">
      <!-- Jul 15 -->
      <g transform="translate(211.21888 213.397031) scale(0.1 -0.1)">
       <use xlink:href="#DejaVuSans-2d"/>
       <use xlink:href="#DejaVuSans-58" transform="translate(29.5 0)"/>
       <use xlink:href="#DejaVuSans-4f" transform="translate(92.875 0)"/>
       <use xlink:href="#DejaVuSans-3" transform="translate(120.65625 0)"/>
       <use xlink:href="#DejaVuSans-14" transform="translate(152.4375 0)"/>
       <use xlink:href="#DejaVuSans-18" transform="translate(216.0625 0)"/>
      </g>
     </g>
    </g>
    <g id="xtick_4">
     <g id="line2d_4">
      <g>
       <use xlink:href="#m43b62484bd" x="322.769531" y="198.798594" style="stroke: #000000; stroke-width: 0.8"/>
      </g>
     </g>
     <g id="text_4">
      <!-- Aug 01 -->
      <g transform="translate(305.054688 213.39625) scale(0.1 -0.1)">
       <defs>
        <path id="DejaVuSans-24" d="M 2188 4044 
L 1331 1722 
L 3047 1722 
L 2188 4044 
z
M 1831 4666 
L 2547 4666 
L 4325 0 
L 3669 0 
L 3244 1197 
L 1141 1197 
L 716 0 
L 50 0 
L 1831 4666 
z
" transform="scale(0.015625)"/>
        <path id="DejaVuSans-4a" d="M 2906 1791 
Q 2906 2416 2648 2759 
Q 2391 3103 1925 3103 
Q 1463 3103 1205 2759 
Q 947 2416 947 1791 
Q 947 1169 1205 825 
Q 1463 481 1925 481 
Q 2391 481 2648 825 
Q 2906 1169 2906 1791 
z
M 3481 434 
Q 3481 -459 3084 -895 
Q 2688 -1331 1869 -1331 
Q 1566 -1331 1297 -1286 
Q 1028 -1241 775 -1147 
L 775 -588 
Q 1028 -725 1275 -790 
Q 1522 -856 1778 -856 
Q 2344 -856 2625 -561 
Q 2906 -266 2906 331 
L 2906 616 
Q 2728 306 2450 153 
Q 2172 0 1784 0 
Q 1141 0 747 490 
Q 353 981 353 1791 
Q 353 2603 747 3093 
Q 1141 3584 1784 3584 
Q 2172 3584 2450 3431 
Q 2728 3278 2906 2969 
L 2906 3500 
L 3481 3500 
L 3481 434 
z
" transform="scale(0.015625)"/>
       </defs>
       <use xlink:href="#DejaVuSans-24"/>
       <use xlink:href="#DejaVuSans-58" transform="translate(68.40625 0)"/>
       <use xlink:href="#DejaVuSans-4a" transform="translate(131.78125 0)"/>
       <use xlink:href="#DejaVuSans-3" transform="translate(195.265625 0)"/>
       <use xlink:href="#DejaVuSans-13" transform="translate(227.046875 0)"/>
       <use xlink:href="#DejaVuSans-14" transform="translate(290.671875 0)"/>
      </g>
     </g>
    </g>
    <g id="xtick_5">
     <g id="line2d_5">
      <g>
       <use xlink:href="#m43b62484bd" x="403.118229" y="198.798594" style="stroke: #000000; stroke-width: 0.8"/>
      </g>
     </g>
     <g id="text_5">
      <!-- Aug 15 -->
      <g transform="translate(385.403385 213.39625) scale(0.1 -0.1)">
       <use xlink:href="#DejaVuSans-24"/>
       <use xlink:href="#DejaVuSans-58" transform="translate(68.40625 0)"/>
       <use xlink:href="#DejaVuSans-4a" transform="translate(131.78125 0)"/>
       <use xlink:href="#DejaVuSans-3" transform="translate(195.265625 0)"/>
       <use xlink:href="#DejaVuSans-14" transform="translate(227.046875 0)"/>
       <use xlink:href="#DejaVuSans-18" transform="translate(290.671875 0)"/>
      </g>
     </g>
    </g>
    <g id="xtick_6">
     <g id="line2d_6">
      <g>
       <use xlink:href="#m43b62484bd" x="500.684505" y="198.798594" style="stroke: #000000; stroke-width: 0.8"/>
      </g>
     </g>
     <g id="text_6">
      <!-- Sep 01 -->
      <g transform="translate(483.307943 213.39625) scale(0.1 -0.1)">
       <defs>
        <path id="DejaVuSans-36" d="M 3425 4513 
L 3425 3897 
Q 3066 4069 2747 4153 
Q 2428 4238 2131 4238 
Q 1616 4238 1336 4038 
Q 1056 3838 1056 3469 
Q 1056 3159 1242 3001 
Q 1428 2844 1947 2747 
L 2328 2669 
Q 3034 2534 3370 2195 
Q 3706 1856 3706 1288 
Q 3706 609 3251 259 
Q 2797 -91 1919 -91 
Q 1588 -91 1214 -16 
Q 841 59 441 206 
L 441 856 
Q 825 641 1194 531 
Q 1563 422 1919 422 
Q 2459 422 2753 634 
Q 3047 847 3047 1241 
Q 3047 1584 2836 1778 
Q 2625 1972 2144 2069 
L 1759 2144 
Q 1053 2284 737 2584 
Q 422 2884 422 3419 
Q 422 4038 858 4394 
Q 1294 4750 2059 4750 
Q 2388 4750 2728 4690 
Q 3069 4631 3425 4513 
z
" transform="scale(0.015625)"/>
        <path id="DejaVuSans-48" d="M 3597 1894 
L 3597 1613 
L 953 1613 
Q 991 1019 1311 708 
Q 1631 397 2203 397 
Q 2534 397 2845 478 
Q 3156 559 3463 722 
L 3463 178 
Q 3153 47 2828 -22 
Q 2503 -91 2169 -91 
Q 1331 -91 842 396 
Q 353 884 353 1716 
Q 353 2575 817 3079 
Q 1281 3584 2069 3584 
Q 2775 3584 3186 3129 
Q 3597 2675 3597 1894 
z
M 3022 2063 
Q 3016 2534 2758 2815 
Q 2500 3097 2075 3097 
Q 1594 3097 1305 2825 
Q 1016 2553 972 2059 
L 3022 2063 
z
" transform="scale(0.015625)"/>
        <path id="DejaVuSans-53" d="M 1159 525 
L 1159 -1331 
L 581 -1331 
L 581 3500 
L 1159 3500 
L 1159 2969 
Q 1341 3281 1617 3432 
Q 1894 3584 2278 3584 
Q 2916 3584 3314 3078 
Q 3713 2572 3713 1747 
Q 3713 922 3314 415 
Q 2916 -91 2278 -91 
Q 1894 -91 1617 61 
Q 1341 213 1159 525 
z
M 3116 1747 
Q 3116 2381 2855 2742 
Q 2594 3103 2138 3103 
Q 1681 3103 1420 2742 
Q 1159 2381 1159 1747 
Q 1159 1113 1420 752 
Q 1681 391 2138 391 
Q 2594 391 2855 752 
Q 3116 1113 3116 1747 
z
" transform="scale(0.015625)"/>
       </defs>
       <use xlink:href="#DejaVuSans-36"/>
       <use xlink:href="#DejaVuSans-48" transform="translate(63.484375 0)"/>
       <use xlink:href="#DejaVuSans-53" transform="translate(125.015625 0)"/>
       <use xlink:href="#DejaVuSans-3" transform="translate(188.5 0)"/>
       <use xlink:href="#DejaVuSans-13" transform="translate(220.28125 0)"/>
       <use xlink:href="#DejaVuSans-14" transform="translate(283.90625 0)"/>
      </g>
     </g>
    </g>
    <g id="xtick_7">
     <g id="line2d_7">
      <g>
       <use xlink:href="#m43b62484bd" x="581.033203" y="198.798594" style="stroke: #000000; stroke-width: 0.8"/>
      </g>
     </g>
     <g id="text_7">
      <!-- Sep 15 -->
      <g transform="translate(563.656641 213.39625) scale(0.1 -0.1)">
       <use xlink:href="#DejaVuSans-36"/>
       <use xlink:href="#DejaVuSans-48" transform="translate(63.484375 0)"/>
       <use xlink:href="#DejaVuSans-53" transform="translate(125.015625 0)"/>
       <use xlink:href="#DejaVuSans-3" transform="translate(188.5 0)"/>
       <use xlink:href="#DejaVuSans-14" transform="translate(220.28125 0)"/>
       <use xlink:href="#DejaVuSans-18" transform="translate(283.90625 0)"/>
      </g>
     </g>
    </g>
   </g>
   <g id="matplotlib.axis_2">
    <g id="ytick_1">
     <g id="line2d_8">
      <path d="M 47.288281 198.798594 
L 632.685938 198.798594 
" clip-path="url(#pe933fb749d)" style="fill: none; stroke-dasharray: 2.96,1.28; stroke-dashoffset: 0; stroke: #b0b0b0; stroke-opacity: 0.3; stroke-width: 0.8"/>
     </g>
     <g id="line2d_9">
      <defs>
       <path id="m022b59d5b4" d="M 0 0 
L -3.5 0 
" style="stroke: #000000; stroke-width: 0.8"/>
      </defs>
      <g>
       <use xlink:href="#m022b59d5b4" x="47.288281" y="198.798594" style="stroke: #000000; stroke-width: 0.8"/>
      </g>
     </g>
     <g id="text_8">
      <!-- 0 -->
      <g transform="translate(33.925781 202.597422) scale(0.1 -0.1)">
       <use xlink:href="#DejaVuSans-13"/>
      </g>
     </g>
    </g>
    <g id="ytick_2">
     <g id="line2d_10">
      <path d="M 47.288281 170.645053 
L 632.685938 170.645053 
" clip-path="url(#pe933fb749d)" style="fill: none; stroke-dasharray: 2.96,1.28; stroke-dashoffset: 0; stroke: #b0b0b0; stroke-opacity: 0.3; stroke-width: 0.8"/>
     </g>
     <g id="line2d_11">
      <g>
       <use xlink:href="#m022b59d5b4" x="47.288281" y="170.645053" style="stroke: #000000; stroke-width: 0.8"/>
      </g>
     </g>
     <g id="text_9">
      <!-- 100 -->
      <g transform="translate(21.200781 174.443881) scale(0.1 -0.1)">
       <use xlink:href="#DejaVuSans-14"/>
       <use xlink:href="#DejaVuSans-13" transform="translate(63.625 0)"/>
       <use xlink:href="#DejaVuSans-13" transform="translate(127.25 0)"/>
      </g>
     </g>
    </g>
    <g id="ytick_3">
     <g id="line2d_12">
      <path d="M 47.288281 142.491513 
L 632.685938 142.491513 
" clip-path="url(#pe933fb749d)" style="fill: none; stroke-dasharray: 2.96,1.28; stroke-dashoffset: 0; stroke: #b0b0b0; stroke-opacity: 0.3; stroke-width: 0.8"/>
     </g>
     <g id="line2d_13">
      <g>
       <use xlink:href="#m022b59d5b4" x="47.288281" y="142.491513" style="stroke: #000000; stroke-width: 0.8"/>
      </g>
     </g>
     <g id="text_10">
      <!-- 200 -->
      <g transform="translate(21.200781 146.290341) scale(0.1 -0.1)">
       <defs>
        <path id="DejaVuSans-15" d="M 1228 531 
L 3431 531 
L 3431 0 
L 469 0 
L 469 531 
Q 828 903 1448 1529 
Q 2069 2156 2228 2338 
Q 2531 2678 2651 2914 
Q 2772 3150 2772 3378 
Q 2772 3750 2511 3984 
Q 2250 4219 1831 4219 
Q 1534 4219 1204 4116 
Q 875 4013 500 3803 
L 500 4441 
Q 881 4594 1212 4672 
Q 1544 4750 1819 4750 
Q 2544 4750 2975 4387 
Q 3406 4025 3406 3419 
Q 3406 3131 3298 2873 
Q 3191 2616 2906 2266 
Q 2828 2175 2409 1742 
Q 1991 1309 1228 531 
z
" transform="scale(0.015625)"/>
       </defs>
       <use xlink:href="#DejaVuSans-15"/>
       <use xlink:href="#DejaVuSans-13" transform="translate(63.625 0)"/>
       <use xlink:href="#DejaVuSans-13" transform="translate(127.25 0)"/>
      </g>
     </g>
    </g>
    <g id="ytick_4">
     <g id="line2d_14">
      <path d="M 47.288281 114.337972 
L 632.685938 114.337972 
" clip-path="url(#pe933fb749d)" style="fill: none; stroke-dasharray: 2.96,1.28; stroke-dashoffset: 0; stroke: #b0b0b0; stroke-opacity: 0.3; stroke-width: 0.8"/>
     </g>
     <g id="line2d_15">
      <g>
       <use xlink:href="#m022b59d5b4" x="47.288281" y="114.337972" style="stroke: #000000; stroke-width: 0.8"/>
      </g>
     </g>
     <g id="text_11">
      <!-- 300 -->
      <g transform="translate(21.200781 118.1368) scale(0.1 -0.1)">
       <defs>
        <path id="DejaVuSans-16" d="M 2597 2516 
Q 3050 2419 3304 2112 
Q 3559 1806 3559 1356 
Q 3559 666 3084 287 
Q 2609 -91 1734 -91 
Q 1441 -91 1130 -33 
Q 819 25 488 141 
L 488 750 
Q 750 597 1062 519 
Q 1375 441 1716 441 
Q 2309 441 2620 675 
Q 2931 909 2931 1356 
Q 2931 1769 2642 2001 
Q 2353 2234 1838 2234 
L 1294 2234 
L 1294 2753 
L 1863 2753 
Q 2328 2753 2575 2939 
Q 2822 3125 2822 3475 
Q 2822 3834 2567 4026 
Q 2313 4219 1838 4219 
Q 1578 4219 1281 4162 
Q 984 4106 628 3988 
L 628 4550 
Q 988 4650 1302 4700 
Q 1616 4750 1894 4750 
Q 2613 4750 3031 4423 
Q 3450 4097 3450 3541 
Q 3450 3153 3228 2886 
Q 3006 2619 2597 2516 
z
" transform="scale(0.015625)"/>
       </defs>
       <use xlink:href="#DejaVuSans-16"/>
       <use xlink:href="#DejaVuSans-13" transform="translate(63.625 0)"/>
       <use xlink:href="#DejaVuSans-13" transform="translate(127.25 0)"/>
      </g>
     </g>
    </g>
    <g id="ytick_5">
     <g id="line2d_16">
      <path d="M 47.288281 86.184432 
L 632.685938 86.184432 
" clip-path="url(#pe933fb749d)" style="fill: none; stroke-dasharray: 2.96,1.28; stroke-dashoffset: 0; stroke: #b0b0b0; stroke-opacity: 0.3; stroke-width: 0.8"/>
     </g>
     <g id="line2d_17">
      <g>
       <use xlink:href="#m022b59d5b4" x="47.288281" y="86.184432" style="stroke: #000000; stroke-width: 0.8"/>
      </g>
     </g>
     <g id="text_12">
      <!-- 400 -->
      <g transform="translate(21.200781 89.98326) scale(0.1 -0.1)">
       <defs>
        <path id="DejaVuSans-17" d="M 2419 4116 
L 825 1625 
L 2419 1625 
L 2419 4116 
z
M 2253 4666 
L 3047 4666 
L 3047 1625 
L 3713 1625 
L 3713 1100 
L 3047 1100 
L 3047 0 
L 2419 0 
L 2419 1100 
L 313 1100 
L 313 1709 
L 2253 4666 
z
" transform="scale(0.015625)"/>
       </defs>
       <use xlink:href="#DejaVuSans-17"/>
       <use xlink:href="#DejaVuSans-13" transform="translate(63.625 0)"/>
       <use xlink:href="#DejaVuSans-13" transform="translate(127.25 0)"/>
      </g>
     </g>
    </g>
    <g id="ytick_6">
     <g id="line2d_18">
      <path d="M 47.288281 58.030891 
L 632.685938 58.030891 
" clip-path="url(#pe933fb749d)" style="fill: none; stroke-dasharray: 2.96,1.28; stroke-dashoffset: 0; stroke: #b0b0b0; stroke-opacity: 0.3; stroke-width: 0.8"/>
     </g>
     <g id="line2d_19">
      <g>
       <use xlink:href="#m022b59d5b4" x="47.288281" y="58.030891" style="stroke: #000000; stroke-width: 0.8"/>
      </g>
     </g>
     <g id="text_13">
      <!-- 500 -->
      <g transform="translate(21.200781 61.829719) scale(0.1 -0.1)">
       <use xlink:href="#DejaVuSans-18"/>
       <use xlink:href="#DejaVuSans-13" transform="translate(63.625 0)"/>
       <use xlink:href="#DejaVuSans-13" transform="translate(127.25 0)"/>
      </g>
     </g>
    </g>
    <g id="ytick_7">
     <g id="line2d_20">
      <path d="M 47.288281 29.877351 
L 632.685938 29.877351 
" clip-path="url(#pe933fb749d)" style="fill: none; stroke-dasharray: 2.96,1.28; stroke-dashoffset: 0; stroke: #b0b0b0; stroke-opacity: 0.3; stroke-width: 0.8"/>
     </g>
     <g id="line2d_21">
      <g>
       <use xlink:href="#m022b59d5b4" x="47.288281" y="29.877351" style="stroke: #000000; stroke-width: 0.8"/>
      </g>
     </g>
     <g id="text_14">
      <!-- 600 -->
      <g transform="translate(21.200781 33.676179) scale(0.1 -0.1)">
       <defs>
        <path id="DejaVuSans-19" d="M 2113 2584 
Q 1688 2584 1439 2293 
Q 1191 2003 1191 1497 
Q 1191 994 1439 701 
Q 1688 409 2113 409 
Q 2538 409 2786 701 
Q 3034 994 3034 1497 
Q 3034 2003 2786 2293 
Q 2538 2584 2113 2584 
z
M 3366 4563 
L 3366 3988 
Q 3128 4100 2886 4159 
Q 2644 4219 2406 4219 
Q 1781 4219 1451 3797 
Q 1122 3375 1075 2522 
Q 1259 2794 1537 2939 
Q 1816 3084 2150 3084 
Q 2853 3084 3261 2657 
Q 3669 2231 3669 1497 
Q 3669 778 3244 343 
Q 2819 -91 2113 -91 
Q 1303 -91 875 529 
Q 447 1150 447 2328 
Q 447 3434 972 4092 
Q 1497 4750 2381 4750 
Q 2619 4750 2861 4703 
Q 3103 4656 3366 4563 
z
" transform="scale(0.015625)"/>
       </defs>
       <use xlink:href="#DejaVuSans-19"/>
       <use xlink:href="#DejaVuSans-13" transform="translate(63.625 0)"/>
       <use xlink:href="#DejaVuSans-13" transform="translate(127.25 0)"/>
      </g>
     </g>
    </g>
    <g id="text_15">
     <!-- Cumulative visitors -->
     <g transform="translate(14.798437 158.706797) rotate(-90) scale(0.1 -0.1)">
      <defs>
       <path id="DejaVuSans-26" d="M 4122 4306 
L 4122 3641 
Q 3803 3938 3442 4084 
Q 3081 4231 2675 4231 
Q 1875 4231 1450 3742 
Q 1025 3253 1025 2328 
Q 1025 1406 1450 917 
Q 1875 428 2675 428 
Q 3081 428 3442 575 
Q 3803 722 4122 1019 
L 4122 359 
Q 3791 134 3420 21 
Q 3050 -91 2638 -91 
Q 1578 -91 968 557 
Q 359 1206 359 2328 
Q 359 3453 968 4101 
Q 1578 4750 2638 4750 
Q 3056 4750 3426 4639 
Q 3797 4528 4122 4306 
z
" transform="scale(0.015625)"/>
       <path id="DejaVuSans-50" d="M 3328 2828 
Q 3544 3216 3844 3400 
Q 4144 3584 4550 3584 
Q 5097 3584 5394 3201 
Q 5691 2819 5691 2113 
L 5691 0 
L 5113 0 
L 5113 2094 
Q 5113 2597 4934 2840 
Q 4756 3084 4391 3084 
Q 3944 3084 3684 2787 
Q 3425 2491 3425 1978 
L 3425 0 
L 2847 0 
L 2847 2094 
Q 2847 2600 2669 2842 
Q 2491 3084 2119 3084 
Q 1678 3084 1418 2786 
Q 1159 2488 1159 1978 
L 1159 0 
L 581 0 
L 581 3500 
L 1159 3500 
L 1159 2956 
Q 1356 3278 1631 3431 
Q 1906 3584 2284 3584 
Q 2666 3584 2933 3390 
Q 3200 3197 3328 2828 
z
" transform="scale(0.015625)"/>
       <path id="DejaVuSans-44" d="M 2194 1759 
Q 1497 1759 1228 1600 
Q 959 1441 959 1056 
Q 959 750 1161 570 
Q 1363 391 1709 391 
Q 2188 391 2477 730 
Q 2766 1069 2766 1631 
L 2766 1759 
L 2194 1759 
z
M 3341 1997 
L 3341 0 
L 2766 0 
L 2766 531 
Q 2569 213 2275 61 
Q 1981 -91 1556 -91 
Q 1019 -91 701 211 
Q 384 513 384 1019 
Q 384 1609 779 1909 
Q 1175 2209 1959 2209 
L 2766 2209 
L 2766 2266 
Q 2766 2663 2505 2880 
Q 2244 3097 1772 3097 
Q 1472 3097 1187 3025 
Q 903 2953 641 2809 
L 641 3341 
Q 956 3463 1253 3523 
Q 1550 3584 1831 3584 
Q 2591 3584 2966 3190 
Q 3341 2797 3341 1997 
z
" transform="scale(0.015625)"/>
       <path id="DejaVuSans-57" d="M 1172 4494 
L 1172 3500 
L 2356 3500 
L 2356 3053 
L 1172 3053 
L 1172 1153 
Q 1172 725 1289 603 
Q 1406 481 1766 481 
L 2356 481 
L 2356 0 
L 1766 0 
Q 1100 0 847 248 
Q 594 497 594 1153 
L 594 3053 
L 172 3053 
L 172 3500 
L 594 3500 
L 594 4494 
L 1172 4494 
z
" transform="scale(0.015625)"/>
       <path id="DejaVuSans-4c" d="M 603 3500 
L 1178 3500 
L 1178 0 
L 603 0 
L 603 3500 
z
M 603 4863 
L 1178 4863 
L 1178 4134 
L 603 4134 
L 603 4863 
z
" transform="scale(0.015625)"/>
       <path id="DejaVuSans-59" d="M 191 3500 
L 800 3500 
L 1894 563 
L 2988 3500 
L 3597 3500 
L 2284 0 
L 1503 0 
L 191 3500 
z
" transform="scale(0.015625)"/>
       <path id="DejaVuSans-56" d="M 2834 3397 
L 2834 2853 
Q 2591 2978 2328 3040 
Q 2066 3103 1784 3103 
Q 1356 3103 1142 2972 
Q 928 2841 928 2578 
Q 928 2378 1081 2264 
Q 1234 2150 1697 2047 
L 1894 2003 
Q 2506 1872 2764 1633 
Q 3022 1394 3022 966 
Q 3022 478 2636 193 
Q 2250 -91 1575 -91 
Q 1294 -91 989 -36 
Q 684 19 347 128 
L 347 722 
Q 666 556 975 473 
Q 1284 391 1588 391 
Q 1994 391 2212 530 
Q 2431 669 2431 922 
Q 2431 1156 2273 1281 
Q 2116 1406 1581 1522 
L 1381 1569 
Q 847 1681 609 1914 
Q 372 2147 372 2553 
Q 372 3047 722 3315 
Q 1072 3584 1716 3584 
Q 2034 3584 2315 3537 
Q 2597 3491 2834 3397 
z
" transform="scale(0.015625)"/>
       <path id="DejaVuSans-52" d="M 1959 3097 
Q 1497 3097 1228 2736 
Q 959 2375 959 1747 
Q 959 1119 1226 758 
Q 1494 397 1959 397 
Q 2419 397 2687 759 
Q 2956 1122 2956 1747 
Q 2956 2369 2687 2733 
Q 2419 3097 1959 3097 
z
M 1959 3584 
Q 2709 3584 3137 3096 
Q 3566 2609 3566 1747 
Q 3566 888 3137 398 
Q 2709 -91 1959 -91 
Q 1206 -91 779 398 
Q 353 888 353 1747 
Q 353 2609 779 3096 
Q 1206 3584 1959 3584 
z
" transform="scale(0.015625)"/>
       <path id="DejaVuSans-55" d="M 2631 2963 
Q 2534 3019 2420 3045 
Q 2306 3072 2169 3072 
Q 1681 3072 1420 2755 
Q 1159 2438 1159 1844 
L 1159 0 
L 581 0 
L 581 3500 
L 1159 3500 
L 1159 2956 
Q 1341 3275 1631 3429 
Q 1922 3584 2338 3584 
Q 2397 3584 2469 3576 
Q 2541 3569 2628 3553 
L 2631 2963 
z
" transform="scale(0.015625)"/>
      </defs>
      <use xlink:href="#DejaVuSans-26"/>
      <use xlink:href="#DejaVuSans-58" transform="translate(69.828125 0)"/>
      <use xlink:href="#DejaVuSans-50" transform="translate(133.203125 0)"/>
      <use xlink:href="#DejaVuSans-58" transform="translate(230.609375 0)"/>
      <use xlink:href="#DejaVuSans-4f" transform="translate(293.984375 0)"/>
      <use xlink:href="#DejaVuSans-44" transform="translate(321.765625 0)"/>
      <use xlink:href="#DejaVuSans-57" transform="translate(383.046875 0)"/>
      <use xlink:href="#DejaVuSans-4c" transform="translate(422.25 0)"/>
      <use xlink:href="#DejaVuSans-59" transform="translate(450.03125 0)"/>
      <use xlink:href="#DejaVuSans-48" transform="translate(509.21875 0)"/>
      <use xlink:href="#DejaVuSans-3" transform="translate(570.75 0)"/>
      <use xlink:href="#DejaVuSans-59" transform="translate(602.53125 0)"/>
      <use xlink:href="#DejaVuSans-4c" transform="translate(661.71875 0)"/>
      <use xlink:href="#DejaVuSans-56" transform="translate(689.5 0)"/>
      <use xlink:href="#DejaVuSans-4c" transform="translate(741.59375 0)"/>
      <use xlink:href="#DejaVuSans-57" transform="translate(769.375 0)"/>
      <use xlink:href="#DejaVuSans-52" transform="translate(808.578125 0)"/>
      <use xlink:href="#DejaVuSans-55" transform="translate(869.765625 0)"/>
      <use xlink:href="#DejaVuSans-56" transform="translate(910.875 0)"/>
     </g>
    </g>
   </g>
   <g id="line2d_22">
    <path d="M 53.027474 197.109381 
L 58.766667 192.604815 
L 64.505859 192.041744 
L 70.245052 179.654186 
L 75.984245 171.771195 
L 81.723438 170.645053 
L 87.46263 170.081982 
L 93.201823 169.518912 
L 98.941016 168.955841 
L 104.680208 168.111235 
L 110.419401 165.295881 
L 116.158594 163.606668 
L 121.897786 161.917456 
L 127.636979 159.102102 
L 133.376172 158.820566 
L 139.115365 158.257495 
L 144.854557 156.568283 
L 150.59375 148.403756 
L 156.332943 143.89919 
L 162.072135 141.646906 
L 167.811328 140.8023 
L 173.550521 139.676159 
L 179.289714 136.297734 
L 185.028906 135.453128 
L 190.768099 134.326986 
L 196.507292 133.763915 
L 202.246484 132.919309 
L 207.985677 132.919309 
L 213.72487 132.919309 
L 219.464063 132.919309 
L 225.203255 132.919309 
L 230.942448 127.570136 
L 236.681641 121.094822 
L 242.420833 120.813287 
L 248.160026 119.124074 
L 253.899219 118.842539 
L 259.638411 117.997932 
L 265.377604 117.153326 
L 271.116797 116.590255 
L 276.85599 116.30872 
L 282.595182 116.027185 
L 288.334375 116.027185 
L 294.073568 115.745649 
L 299.81276 115.745649 
L 305.551953 115.745649 
L 311.291146 106.454981 
L 317.030339 102.23195 
L 322.769531 101.668879 
L 328.508724 101.105808 
L 334.247917 101.105808 
L 339.987109 101.105808 
L 345.726302 100.824273 
L 351.465495 100.824273 
L 357.204688 100.542737 
L 362.94388 100.542737 
L 368.683073 100.542737 
L 374.422266 100.261202 
L 380.161458 99.698131 
L 385.900651 99.416596 
L 391.639844 89.844392 
L 397.379036 84.776755 
L 403.118229 83.932148 
L 408.857422 83.650613 
L 414.596615 83.650613 
L 420.335807 81.679865 
L 426.075 80.272188 
L 431.814193 78.019905 
L 437.553385 77.456834 
L 443.292578 76.612228 
L 449.031771 75.486086 
L 454.770964 75.486086 
L 460.510156 74.64148 
L 466.249349 74.078409 
L 471.988542 64.787741 
L 477.727734 61.690851 
L 483.466927 60.846245 
L 489.20612 60.001639 
L 494.945313 59.157033 
L 500.684505 59.157033 
L 506.423698 59.157033 
L 512.162891 58.593962 
L 517.902083 58.593962 
L 523.641276 58.593962 
L 529.380469 55.778608 
L 535.119661 55.215537 
L 540.858854 54.370931 
L 546.598047 54.089395 
L 552.33724 45.361798 
L 558.076432 40.012625 
L 563.815625 38.041877 
L 569.554818 36.07113 
L 575.29401 35.226523 
L 581.033203 34.381917 
L 586.772396 34.381917 
L 592.511589 34.381917 
L 598.250781 34.381917 
L 603.989974 34.381917 
L 609.729167 33.818846 
L 615.468359 33.537311 
L 621.207552 32.411169 
L 626.946745 31.848098 
L 632.685938 30.721957 
" clip-path="url(#pe933fb749d)" style="fill: none; stroke: #f4900c; stroke-width: 2; stroke-linecap: square"/>
   </g>
   <g id="patch_3">
    <path d="M 47.288281 198.798594 
L 47.288281 22.318125 
" style="fill: none; stroke: #000000; stroke-width: 0.8; stroke-linejoin: miter; stroke-linecap: square"/>
   </g>
   <g id="patch_4">
    <path d="M 47.288281 198.798594 
L 632.685938 198.798594 
" style="fill: none; stroke: #000000; stroke-width: 0.8; stroke-linejoin: miter; stroke-linecap: square"/>
   </g>
   <g id="text_16">
    <!-- App visitors over time  ·  597 total -->
    <g transform="translate(47.288281 16.318125) scale(0.12 -0.12)">
     <defs>
      <path id="DejaVuSans-Bold-24" d="M 3419 850 
L 1538 850 
L 1241 0 
L 31 0 
L 1759 4666 
L 3194 4666 
L 4922 0 
L 3713 0 
L 3419 850 
z
M 1838 1716 
L 3116 1716 
L 2478 3572 
L 1838 1716 
z
" transform="scale(0.015625)"/>
      <path id="DejaVuSans-Bold-53" d="M 1656 506 
L 1656 -1331 
L 538 -1331 
L 538 3500 
L 1656 3500 
L 1656 2988 
Q 1888 3294 2169 3439 
Q 2450 3584 2816 3584 
Q 3463 3584 3878 3070 
Q 4294 2556 4294 1747 
Q 4294 938 3878 423 
Q 3463 -91 2816 -91 
Q 2450 -91 2169 54 
Q 1888 200 1656 506 
z
M 2400 2772 
Q 2041 2772 1848 2508 
Q 1656 2244 1656 1747 
Q 1656 1250 1848 986 
Q 2041 722 2400 722 
Q 2759 722 2948 984 
Q 3138 1247 3138 1747 
Q 3138 2247 2948 2509 
Q 2759 2772 2400 2772 
z
" transform="scale(0.015625)"/>
      <path id="DejaVuSans-Bold-3" transform="scale(0.015625)"/>
      <path id="DejaVuSans-Bold-59" d="M 97 3500 
L 1216 3500 
L 2088 1081 
L 2956 3500 
L 4078 3500 
L 2700 0 
L 1472 0 
L 97 3500 
z
" transform="scale(0.015625)"/>
      <path id="DejaVuSans-Bold-4c" d="M 538 3500 
L 1656 3500 
L 1656 0 
L 538 0 
L 538 3500 
z
M 538 4863 
L 1656 4863 
L 1656 3950 
L 538 3950 
L 538 4863 
z
" transform="scale(0.015625)"/>
      <path id="DejaVuSans-Bold-56" d="M 3272 3391 
L 3272 2541 
Q 2913 2691 2578 2766 
Q 2244 2841 1947 2841 
Q 1628 2841 1473 2761 
Q 1319 2681 1319 2516 
Q 1319 2381 1436 2309 
Q 1553 2238 1856 2203 
L 2053 2175 
Q 2913 2066 3209 1816 
Q 3506 1566 3506 1031 
Q 3506 472 3093 190 
Q 2681 -91 1863 -91 
Q 1516 -91 1145 -36 
Q 775 19 384 128 
L 384 978 
Q 719 816 1070 734 
Q 1422 653 1784 653 
Q 2113 653 2278 743 
Q 2444 834 2444 1013 
Q 2444 1163 2330 1236 
Q 2216 1309 1875 1350 
L 1678 1375 
Q 931 1469 631 1722 
Q 331 1975 331 2491 
Q 331 3047 712 3315 
Q 1094 3584 1881 3584 
Q 2191 3584 2531 3537 
Q 2872 3491 3272 3391 
z
" transform="scale(0.015625)"/>
      <path id="DejaVuSans-Bold-57" d="M 1759 4494 
L 1759 3500 
L 2913 3500 
L 2913 2700 
L 1759 2700 
L 1759 1216 
Q 1759 972 1856 886 
Q 1953 800 2241 800 
L 2816 800 
L 2816 0 
L 1856 0 
Q 1194 0 917 276 
Q 641 553 641 1216 
L 641 2700 
L 84 2700 
L 84 3500 
L 641 3500 
L 641 4494 
L 1759 4494 
z
" transform="scale(0.015625)"/>
      <path id="DejaVuSans-Bold-52" d="M 2203 2784 
Q 1831 2784 1636 2517 
Q 1441 2250 1441 1747 
Q 1441 1244 1636 976 
Q 1831 709 2203 709 
Q 2569 709 2762 976 
Q 2956 1244 2956 1747 
Q 2956 2250 2762 2517 
Q 2569 2784 2203 2784 
z
M 2203 3584 
Q 3106 3584 3614 3096 
Q 4122 2609 4122 1747 
Q 4122 884 3614 396 
Q 3106 -91 2203 -91 
Q 1297 -91 786 396 
Q 275 884 275 1747 
Q 275 2609 786 3096 
Q 1297 3584 2203 3584 
z
" transform="scale(0.015625)"/>
      <path id="DejaVuSans-Bold-55" d="M 3138 2547 
Q 2991 2616 2845 2648 
Q 2700 2681 2553 2681 
Q 2122 2681 1889 2404 
Q 1656 2128 1656 1613 
L 1656 0 
L 538 0 
L 538 3500 
L 1656 3500 
L 1656 2925 
Q 1872 3269 2151 3426 
Q 2431 3584 2822 3584 
Q 2878 3584 2943 3579 
Q 3009 3575 3134 3559 
L 3138 2547 
z
" transform="scale(0.015625)"/>
      <path id="DejaVuSans-Bold-48" d="M 4031 1759 
L 4031 1441 
L 1416 1441 
Q 1456 1047 1700 850 
Q 1944 653 2381 653 
Q 2734 653 3104 758 
Q 3475 863 3866 1075 
L 3866 213 
Q 3469 63 3072 -14 
Q 2675 -91 2278 -91 
Q 1328 -91 801 392 
Q 275 875 275 1747 
Q 275 2603 792 3093 
Q 1309 3584 2216 3584 
Q 3041 3584 3536 3087 
Q 4031 2591 4031 1759 
z
M 2881 2131 
Q 2881 2450 2695 2645 
Q 2509 2841 2209 2841 
Q 1884 2841 1681 2658 
Q 1478 2475 1428 2131 
L 2881 2131 
z
" transform="scale(0.015625)"/>
      <path id="DejaVuSans-Bold-50" d="M 3781 2919 
Q 3994 3244 4286 3414 
Q 4578 3584 4928 3584 
Q 5531 3584 5847 3212 
Q 6163 2841 6163 2131 
L 6163 0 
L 5038 0 
L 5038 1825 
Q 5041 1866 5042 1909 
Q 5044 1953 5044 2034 
Q 5044 2406 4934 2573 
Q 4825 2741 4581 2741 
Q 4263 2741 4089 2478 
Q 3916 2216 3909 1719 
L 3909 0 
L 2784 0 
L 2784 1825 
Q 2784 2406 2684 2573 
Q 2584 2741 2328 2741 
Q 2006 2741 1831 2477 
Q 1656 2213 1656 1722 
L 1656 0 
L 531 0 
L 531 3500 
L 1656 3500 
L 1656 2988 
Q 1863 3284 2130 3434 
Q 2397 3584 2719 3584 
Q 3081 3584 3359 3409 
Q 3638 3234 3781 2919 
z
" transform="scale(0.015625)"/>
      <path id="DejaVuSans-Bold-79" d="M 653 2828 
L 1778 2828 
L 1778 1619 
L 653 1619 
L 653 2828 
z
" transform="scale(0.015625)"/>
      <path id="DejaVuSans-Bold-18" d="M 678 4666 
L 3669 4666 
L 3669 3781 
L 1638 3781 
L 1638 3059 
Q 1775 3097 1914 3117 
Q 2053 3138 2203 3138 
Q 3056 3138 3531 2711 
Q 4006 2284 4006 1522 
Q 4006 766 3489 337 
Q 2972 -91 2053 -91 
Q 1656 -91 1267 -14 
Q 878 63 494 219 
L 494 1166 
Q 875 947 1217 837 
Q 1559 728 1863 728 
Q 2300 728 2551 942 
Q 2803 1156 2803 1522 
Q 2803 1891 2551 2103 
Q 2300 2316 1863 2316 
Q 1603 2316 1309 2248 
Q 1016 2181 678 2041 
L 678 4666 
z
" transform="scale(0.015625)"/>
      <path id="DejaVuSans-Bold-1c" d="M 641 103 
L 641 966 
Q 928 831 1190 764 
Q 1453 697 1709 697 
Q 2247 697 2547 995 
Q 2847 1294 2900 1881 
Q 2688 1725 2447 1647 
Q 2206 1569 1925 1569 
Q 1209 1569 770 1986 
Q 331 2403 331 3084 
Q 331 3838 820 4291 
Q 1309 4744 2131 4744 
Q 3044 4744 3544 4128 
Q 4044 3513 4044 2388 
Q 4044 1231 3459 570 
Q 2875 -91 1856 -91 
Q 1528 -91 1228 -42 
Q 928 6 641 103 
z
M 2125 2350 
Q 2441 2350 2600 2554 
Q 2759 2759 2759 3169 
Q 2759 3575 2600 3781 
Q 2441 3988 2125 3988 
Q 1809 3988 1650 3781 
Q 1491 3575 1491 3169 
Q 1491 2759 1650 2554 
Q 1809 2350 2125 2350 
z
" transform="scale(0.015625)"/>
      <path id="DejaVuSans-Bold-1a" d="M 428 4666 
L 3944 4666 
L 3944 3988 
L 2125 0 
L 953 0 
L 2675 3781 
L 428 3781 
L 428 4666 
z
" transform="scale(0.015625)"/>
      <path id="DejaVuSans-Bold-44" d="M 2106 1575 
Q 1756 1575 1579 1456 
Q 1403 1338 1403 1106 
Q 1403 894 1545 773 
Q 1688 653 1941 653 
Q 2256 653 2472 879 
Q 2688 1106 2688 1447 
L 2688 1575 
L 2106 1575 
z
M 3816 1997 
L 3816 0 
L 2688 0 
L 2688 519 
Q 2463 200 2181 54 
Q 1900 -91 1497 -91 
Q 953 -91 614 226 
Q 275 544 275 1050 
Q 275 1666 698 1953 
Q 1122 2241 2028 2241 
L 2688 2241 
L 2688 2328 
Q 2688 2594 2478 2717 
Q 2269 2841 1825 2841 
Q 1466 2841 1156 2769 
Q 847 2697 581 2553 
L 581 3406 
Q 941 3494 1303 3539 
Q 1666 3584 2028 3584 
Q 2975 3584 3395 3211 
Q 3816 2838 3816 1997 
z
" transform="scale(0.015625)"/>
      <path id="DejaVuSans-Bold-4f" d="M 538 4863 
L 1656 4863 
L 1656 0 
L 538 0 
L 538 4863 
z
" transform="scale(0.015625)"/>
     </defs>
     <use xlink:href="#DejaVuSans-Bold-24"/>
     <use xlink:href="#DejaVuSans-Bold-53" transform="translate(77.390625 0)"/>
     <use xlink:href="#DejaVuSans-Bold-53" transform="translate(148.96875 0)"/>
     <use xlink:href="#DejaVuSans-Bold-3" transform="translate(220.546875 0)"/>
     <use xlink:href="#DejaVuSans-Bold-59" transform="translate(255.359375 0)"/>
     <use xlink:href="#DejaVuSans-Bold-4c" transform="translate(320.546875 0)"/>
     <use xlink:href="#DejaVuSans-Bold-56" transform="translate(354.828125 0)"/>
     <use xlink:href="#DejaVuSans-Bold-4c" transform="translate(414.34375 0)"/>
     <use xlink:href="#DejaVuSans-Bold-57" transform="translate(448.625 0)"/>
     <use xlink:href="#DejaVuSans-Bold-52" transform="translate(496.421875 0)"/>
     <use xlink:href="#DejaVuSans-Bold-55" transform="translate(565.125 0)"/>
     <use xlink:href="#DejaVuSans-Bold-56" transform="translate(614.4375 0)"/>
     <use xlink:href="#DejaVuSans-Bold-3" transform="translate(673.953125 0)"/>
     <use xlink:href="#DejaVuSans-Bold-52" transform="translate(708.765625 0)"/>
     <use xlink:href="#DejaVuSans-Bold-59" transform="translate(777.46875 0)"/>
     <use xlink:href="#DejaVuSans-Bold-48" transform="translate(842.65625 0)"/>
     <use xlink:href="#DejaVuSans-Bold-55" transform="translate(910.484375 0)"/>
     <use xlink:href="#DejaVuSans-Bold-3" transform="translate(959.796875 0)"/>
     <use xlink:href="#DejaVuSans-Bold-57" transform="translate(994.609375 0)"/>
     <use xlink:href="#DejaVuSans-Bold-4c" transform="translate(1042.40625 0)"/>
     <use xlink:href="#DejaVuSans-Bold-50" transform="translate(1076.6875 0)"/>
     <use xlink:href="#DejaVuSans-Bold-48" transform="translate(1180.890625 0)"/>
     <use xlink:href="#DejaVuSans-Bold-3" transform="translate(1248.71875 0)"/>
     <use xlink:href="#DejaVuSans-Bold-3" transform="translate(1283.53125 0)"/>
     <use xlink:href="#DejaVuSans-Bold-79" transform="translate(1318.34375 0)"/>
     <use xlink:href="#DejaVuSans-Bold-3" transform="translate(1356.328125 0)"/>
     <use xlink:href="#DejaVuSans-Bold-3" transform="translate(1391.140625 0)"/>
     <use xlink:href="#DejaVuSans-Bold-18" transform="translate(1425.953125 0)"/>
     <use xlink:href="#DejaVuSans-Bold-1c" transform="translate(1495.53125 0)"/>
     <use xlink:href="#DejaVuSans-Bold-1a" transform="translate(1565.109375 0)"/>
     <use xlink:href="#DejaVuSans-Bold-3" transform="translate(1634.6875 0)"/>
     <use xlink:href="#DejaVuSans-Bold-57" transform="translate(1669.5 0)"/>
     <use xlink:href="#DejaVuSans-Bold-52" transform="translate(1717.296875 0)"/>
     <use xlink:href="#DejaVuSans-Bold-57" transform="translate(1786 0)"/>
     <use xlink:href="#DejaVuSans-Bold-44" transform="translate(1833.796875 0)"/>
     <use xlink:href="#DejaVuSans-Bold-4f" transform="translate(1901.28125 0)"/>
    </g>
   </g>
  </g>
 </g>
 <defs>
  <clipPath id="pe933fb749d">
   <rect x="47.288281" y="22.318125" width="585.397656" height="176.480469"/>
  </clipPath>
 </defs>
</svg>
