<?xml version="1.0" encoding="utf-8" standalone="no"?>
<!DOCTYPE svg PUBLIC "-//W3C//DTD SVG 1.1//EN"
  "http://www.w3.org/Graphics/SVG/1.1/DTD/svg11.dtd">
<svg xmlns:xlink="http://www.w3.org/1999/xlink" width="638.300504pt" height="222.999375pt" viewBox="0 0 638.300504 222.999375" xmlns="http://www.w3.org/2000/svg" version="1.1">
 <metadata>
  <rdf:RDF xmlns:dc="http://purl.org/dc/elements/1.1/" xmlns:cc="http://creativecommons.org/ns#" xmlns:rdf="http://www.w3.org/1999/02/22-rdf-syntax-ns#">
   <cc:Work>
    <dc:type rdf:resource="http://purl.org/dc/dcmitype/StillImage"/>
    <dc:date>2026-06-15T12:39:23.428486</dc:date>
    <dc:format>image/svg+xml</dc:format>
    <dc:creator>
     <cc:Agent>
      <dc:title>Matplotlib v3.11.0, https://matplotlib.org/</dc:title>
     </cc:Agent>
    </dc:creator>
   </cc:Work>
  </rdf:RDF>
 </metadata>
 <defs>
  <style type="text/css">*{stroke-linejoin: round; stroke-linecap: butt}</style>
 </defs>
 <g id="figure_1">
  <g id="patch_1">
   <path d="M 0 222.999375 
L 638.300504 222.999375 
L 638.300504 0 
L 0 0 
z
" style="fill: #ffffff"/>
  </g>
  <g id="axes_1">
   <g id="patch_2">
    <path d="M 50.466406 198.798594 
L 627.508831 198.798594 
L 627.508831 22.318125 
L 50.466406 22.318125 
z
" style="fill: #ffffff"/>
   </g>
   <g id="FillBetweenPolyCollection_1">
    <defs>
     <path id="m2f0a4949ed" d="M 76.695607 -24.200781 
L 76.695607 -24.200781 
L 77.685389 -24.200781 
L 78.67517 -24.200781 
L 79.664951 -24.200781 
L 80.654732 -24.200781 
L 81.644513 -24.200781 
L 82.634294 -24.200781 
L 83.624076 -24.200781 
L 84.613857 -24.200781 
L 85.603638 -24.200781 
L 86.593419 -24.200781 
L 87.5832 -24.200781 
L 88.572981 -24.200781 
L 89.562763 -24.200781 
L 90.552544 -24.200781 
L 91.542325 -24.200781 
L 92.532106 -24.200781 
L 93.521887 -24.200781 
L 94.511669 -24.200781 
L 95.50145 -24.200781 
L 96.491231 -24.200781 
L 97.481012 -24.200781 
L 98.470793 -24.200781 
L 99.460574 -24.200781 
L 100.450356 -24.200781 
L 101.440137 -24.200781 
L 102.429918 -24.200781 
L 103.419699 -24.200781 
L 104.40948 -24.200781 
L 105.399261 -24.200781 
L 106.389043 -24.200781 
L 107.378824 -24.200781 
L 108.368605 -24.200781 
L 109.358386 -24.200781 
L 110.348167 -24.200781 
L 111.337948 -24.200781 
L 112.32773 -24.200781 
L 113.317511 -24.200781 
L 114.307292 -24.200781 
L 115.297073 -24.200781 
L 116.286854 -24.200781 
L 117.276636 -24.200781 
L 118.266417 -24.200781 
L 119.256198 -24.200781 
L 120.245979 -24.200781 
L 121.23576 -24.200781 
L 122.225541 -24.200781 
L 123.215323 -24.200781 
L 124.205104 -24.200781 
L 125.194885 -24.200781 
L 126.184666 -24.200781 
L 127.174447 -24.200781 
L 128.164228 -24.200781 
L 129.15401 -24.200781 
L 130.143791 -24.200781 
L 131.133572 -24.200781 
L 132.123353 -24.200781 
L 133.113134 -24.200781 
L 134.102915 -24.200781 
L 135.092697 -24.200781 
L 136.082478 -24.200781 
L 137.072259 -24.200781 
L 138.06204 -24.200781 
L 139.051821 -24.200781 
L 140.041603 -24.200781 
L 141.031384 -24.200781 
L 142.021165 -24.200781 
L 143.010946 -24.200781 
L 144.000727 -24.200781 
L 144.990508 -24.200781 
L 145.98029 -24.200781 
L 146.970071 -24.200781 
L 147.959852 -24.200781 
L 148.949633 -24.200781 
L 149.939414 -24.200781 
L 150.929195 -24.200781 
L 151.918977 -24.200781 
L 152.908758 -24.200781 
L 153.898539 -24.200781 
L 154.88832 -24.200781 
L 155.878101 -24.200781 
L 156.867883 -24.200781 
L 157.857664 -24.200781 
L 158.847445 -24.200781 
L 159.837226 -24.200781 
L 160.827007 -24.200781 
L 161.816788 -24.200781 
L 162.80657 -24.200781 
L 163.796351 -24.200781 
L 164.786132 -24.200781 
L 165.775913 -24.200781 
L 166.765694 -24.200781 
L 167.755475 -24.200781 
L 168.745257 -24.200781 
L 169.735038 -24.200781 
L 170.724819 -24.200781 
L 171.7146 -24.200781 
L 172.704381 -24.200781 
L 173.694162 -24.200781 
L 174.683944 -24.200781 
L 175.673725 -24.200781 
L 176.663506 -24.200781 
L 177.653287 -24.200781 
L 178.643068 -24.200781 
L 179.63285 -24.200781 
L 180.622631 -24.200781 
L 181.612412 -24.200781 
L 182.602193 -24.200781 
L 183.591974 -24.200781 
L 184.581755 -24.200781 
L 185.571537 -24.200781 
L 186.561318 -24.200781 
L 187.551099 -24.200781 
L 188.54088 -24.200781 
L 189.530661 -24.200781 
L 190.520442 -24.200781 
L 191.510224 -24.200781 
L 192.500005 -24.200781 
L 193.489786 -24.200781 
L 194.479567 -24.200781 
L 195.469348 -24.200781 
L 196.459129 -24.200781 
L 197.448911 -24.200781 
L 198.438692 -24.200781 
L 199.428473 -24.200781 
L 200.418254 -24.200781 
L 201.408035 -24.200781 
L 202.397817 -24.200781 
L 203.387598 -24.200781 
L 204.377379 -24.200781 
L 205.36716 -24.200781 
L 206.356941 -24.200781 
L 207.346722 -24.200781 
L 208.336504 -24.200781 
L 209.326285 -24.200781 
L 210.316066 -24.200781 
L 211.305847 -24.200781 
L 212.295628 -24.200781 
L 213.285409 -24.200781 
L 214.275191 -24.200781 
L 215.264972 -24.200781 
L 216.254753 -24.200781 
L 217.244534 -24.200781 
L 218.234315 -24.200781 
L 219.224096 -24.200781 
L 220.213878 -24.200781 
L 221.203659 -24.200781 
L 222.19344 -24.200781 
L 223.183221 -24.200781 
L 224.173002 -24.200781 
L 225.162784 -24.200781 
L 226.152565 -24.200781 
L 227.142346 -24.200781 
L 228.132127 -24.200781 
L 229.121908 -24.200781 
L 230.111689 -24.200781 
L 231.101471 -24.200781 
L 232.091252 -24.200781 
L 233.081033 -24.200781 
L 234.070814 -24.200781 
L 235.060595 -24.200781 
L 236.050376 -24.200781 
L 237.040158 -24.200781 
L 238.029939 -24.200781 
L 239.01972 -24.200781 
L 240.009501 -24.200781 
L 240.999282 -24.200781 
L 241.989064 -24.200781 
L 242.978845 -24.200781 
L 243.968626 -24.200781 
L 244.958407 -24.200781 
L 245.948188 -24.200781 
L 246.937969 -24.200781 
L 247.927751 -24.200781 
L 248.917532 -24.200781 
L 249.907313 -24.200781 
L 250.897094 -24.200781 
L 251.886875 -24.200781 
L 252.876656 -24.200781 
L 253.866438 -24.200781 
L 254.856219 -24.200781 
L 255.846 -24.200781 
L 256.835781 -24.200781 
L 257.825562 -24.200781 
L 258.815343 -24.200781 
L 259.805125 -24.200781 
L 260.794906 -24.200781 
L 261.784687 -24.200781 
L 262.774468 -24.200781 
L 263.764249 -24.200781 
L 264.754031 -24.200781 
L 265.743812 -24.200781 
L 266.733593 -24.200781 
L 267.723374 -24.200781 
L 268.713155 -24.200781 
L 269.702936 -24.200781 
L 270.692718 -24.200781 
L 271.682499 -24.200781 
L 272.67228 -24.200781 
L 273.662061 -24.200781 
L 274.651842 -24.200781 
L 275.641623 -24.200781 
L 276.631405 -24.200781 
L 277.621186 -24.200781 
L 278.610967 -24.200781 
L 279.600748 -24.200781 
L 280.590529 -24.200781 
L 281.58031 -24.200781 
L 282.570092 -24.200781 
L 283.559873 -24.200781 
L 284.549654 -24.200781 
L 285.539435 -24.200781 
L 286.529216 -24.200781 
L 287.518998 -24.200781 
L 288.508779 -24.200781 
L 289.49856 -24.200781 
L 290.488341 -24.200781 
L 291.478122 -24.200781 
L 292.467903 -24.200781 
L 293.457685 -24.200781 
L 294.447466 -24.200781 
L 295.437247 -24.200781 
L 296.427028 -24.200781 
L 297.416809 -24.200781 
L 298.40659 -24.200781 
L 299.396372 -24.200781 
L 300.386153 -24.200781 
L 301.375934 -24.200781 
L 302.365715 -24.200781 
L 303.355496 -24.200781 
L 304.345277 -24.200781 
L 305.335059 -24.200781 
L 306.32484 -24.200781 
L 307.314621 -24.200781 
L 308.304402 -24.200781 
L 309.294183 -24.200781 
L 310.283965 -24.200781 
L 311.273746 -24.200781 
L 312.263527 -24.200781 
L 313.253308 -24.200781 
L 314.243089 -24.200781 
L 315.23287 -24.200781 
L 316.222652 -24.200781 
L 317.212433 -24.200781 
L 318.202214 -24.200781 
L 319.191995 -24.200781 
L 320.181776 -24.200781 
L 321.171557 -24.200781 
L 322.161339 -24.200781 
L 323.15112 -24.200781 
L 324.140901 -24.200781 
L 325.130682 -24.200781 
L 326.120463 -24.200781 
L 327.110245 -24.200781 
L 328.100026 -24.200781 
L 329.089807 -24.200781 
L 330.079588 -24.200781 
L 331.069369 -24.200781 
L 332.05915 -24.200781 
L 333.048932 -24.200781 
L 334.038713 -24.200781 
L 335.028494 -24.200781 
L 336.018275 -24.200781 
L 337.008056 -24.200781 
L 337.997837 -24.200781 
L 338.987619 -24.200781 
L 339.9774 -24.200781 
L 340.967181 -24.200781 
L 341.956962 -24.200781 
L 342.946743 -24.200781 
L 343.936524 -24.200781 
L 344.926306 -24.200781 
L 345.916087 -24.200781 
L 346.905868 -24.200781 
L 347.895649 -24.200781 
L 348.88543 -24.200781 
L 349.875212 -24.200781 
L 350.864993 -24.200781 
L 351.854774 -24.200781 
L 352.844555 -24.200781 
L 353.834336 -24.200781 
L 354.824117 -24.200781 
L 355.813899 -24.200781 
L 356.80368 -24.200781 
L 357.793461 -24.200781 
L 358.783242 -24.200781 
L 359.773023 -24.200781 
L 360.762804 -24.200781 
L 361.752586 -24.200781 
L 362.742367 -24.200781 
L 363.732148 -24.200781 
L 364.721929 -24.200781 
L 365.71171 -24.200781 
L 366.701491 -24.200781 
L 367.691273 -24.200781 
L 368.681054 -24.200781 
L 369.670835 -24.200781 
L 370.660616 -24.200781 
L 371.650397 -24.200781 
L 372.640179 -24.200781 
L 373.62996 -24.200781 
L 374.619741 -24.200781 
L 375.609522 -24.200781 
L 376.599303 -24.200781 
L 377.589084 -24.200781 
L 378.578866 -24.200781 
L 379.568647 -24.200781 
L 380.558428 -24.200781 
L 381.548209 -24.200781 
L 382.53799 -24.200781 
L 383.527771 -24.200781 
L 384.517553 -24.200781 
L 385.507334 -24.200781 
L 386.497115 -24.200781 
L 387.486896 -24.200781 
L 388.476677 -24.200781 
L 389.466458 -24.200781 
L 390.45624 -24.200781 
L 391.446021 -24.200781 
L 392.435802 -24.200781 
L 393.425583 -24.200781 
L 394.415364 -24.200781 
L 395.405146 -24.200781 
L 396.394927 -24.200781 
L 397.384708 -24.200781 
L 398.374489 -24.200781 
L 399.36427 -24.200781 
L 400.354051 -24.200781 
L 401.343833 -24.200781 
L 402.333614 -24.200781 
L 403.323395 -24.200781 
L 404.313176 -24.200781 
L 405.302957 -24.200781 
L 406.292738 -24.200781 
L 407.28252 -24.200781 
L 408.272301 -24.200781 
L 409.262082 -24.200781 
L 410.251863 -24.200781 
L 411.241644 -24.200781 
L 412.231426 -24.200781 
L 413.221207 -24.200781 
L 414.210988 -24.200781 
L 415.200769 -24.200781 
L 416.19055 -24.200781 
L 417.180331 -24.200781 
L 418.170113 -24.200781 
L 419.159894 -24.200781 
L 420.149675 -24.200781 
L 421.139456 -24.200781 
L 422.129237 -24.200781 
L 423.119018 -24.200781 
L 424.1088 -24.200781 
L 425.098581 -24.200781 
L 426.088362 -24.200781 
L 427.078143 -24.200781 
L 428.067924 -24.200781 
L 429.057705 -24.200781 
L 430.047487 -24.200781 
L 431.037268 -24.200781 
L 432.027049 -24.200781 
L 433.01683 -24.200781 
L 434.006611 -24.200781 
L 434.996393 -24.200781 
L 435.986174 -24.200781 
L 436.975955 -24.200781 
L 437.965736 -24.200781 
L 438.955517 -24.200781 
L 439.945298 -24.200781 
L 440.93508 -24.200781 
L 441.924861 -24.200781 
L 442.914642 -24.200781 
L 443.904423 -24.200781 
L 444.894204 -24.200781 
L 445.883985 -24.200781 
L 446.873767 -24.200781 
L 447.863548 -24.200781 
L 448.853329 -24.200781 
L 449.84311 -24.200781 
L 450.832891 -24.200781 
L 451.822672 -24.200781 
L 452.812454 -24.200781 
L 453.802235 -24.200781 
L 454.792016 -24.200781 
L 455.781797 -24.200781 
L 456.771578 -24.200781 
L 457.76136 -24.200781 
L 458.751141 -24.200781 
L 459.740922 -24.200781 
L 460.730703 -24.200781 
L 461.720484 -24.200781 
L 462.710265 -24.200781 
L 463.700047 -24.200781 
L 464.689828 -24.200781 
L 465.679609 -24.200781 
L 466.66939 -24.200781 
L 467.659171 -24.200781 
L 468.648952 -24.200781 
L 469.638734 -24.200781 
L 470.628515 -24.200781 
L 471.618296 -24.200781 
L 472.608077 -24.200781 
L 473.597858 -24.200781 
L 474.587639 -24.200781 
L 475.577421 -24.200781 
L 476.567202 -24.200781 
L 477.556983 -24.200781 
L 478.546764 -24.200781 
L 479.536545 -24.200781 
L 480.526327 -24.200781 
L 481.516108 -24.200781 
L 482.505889 -24.200781 
L 483.49567 -24.200781 
L 484.485451 -24.200781 
L 485.475232 -24.200781 
L 486.465014 -24.200781 
L 487.454795 -24.200781 
L 488.444576 -24.200781 
L 489.434357 -24.200781 
L 490.424138 -24.200781 
L 491.413919 -24.200781 
L 492.403701 -24.200781 
L 493.393482 -24.200781 
L 494.383263 -24.200781 
L 495.373044 -24.200781 
L 496.362825 -24.200781 
L 497.352607 -24.200781 
L 498.342388 -24.200781 
L 499.332169 -24.200781 
L 500.32195 -24.200781 
L 501.311731 -24.200781 
L 502.301512 -24.200781 
L 503.291294 -24.200781 
L 504.281075 -24.200781 
L 505.270856 -24.200781 
L 506.260637 -24.200781 
L 507.250418 -24.200781 
L 508.240199 -24.200781 
L 509.229981 -24.200781 
L 510.219762 -24.200781 
L 511.209543 -24.200781 
L 512.199324 -24.200781 
L 513.189105 -24.200781 
L 514.178886 -24.200781 
L 515.168668 -24.200781 
L 516.158449 -24.200781 
L 517.14823 -24.200781 
L 518.138011 -24.200781 
L 519.127792 -24.200781 
L 520.117574 -24.200781 
L 521.107355 -24.200781 
L 522.097136 -24.200781 
L 523.086917 -24.200781 
L 524.076698 -24.200781 
L 525.066479 -24.200781 
L 526.056261 -24.200781 
L 527.046042 -24.200781 
L 528.035823 -24.200781 
L 529.025604 -24.200781 
L 530.015385 -24.200781 
L 531.005166 -24.200781 
L 531.994948 -24.200781 
L 532.984729 -24.200781 
L 533.97451 -24.200781 
L 534.964291 -24.200781 
L 535.954072 -24.200781 
L 536.943853 -24.200781 
L 537.933635 -24.200781 
L 538.923416 -24.200781 
L 539.913197 -24.200781 
L 540.902978 -24.200781 
L 541.892759 -24.200781 
L 542.882541 -24.200781 
L 543.872322 -24.200781 
L 544.862103 -24.200781 
L 545.851884 -24.200781 
L 546.841665 -24.200781 
L 547.831446 -24.200781 
L 548.821228 -24.200781 
L 549.811009 -24.200781 
L 550.80079 -24.200781 
L 551.790571 -24.200781 
L 552.780352 -24.200781 
L 553.770133 -24.200781 
L 554.759915 -24.200781 
L 555.749696 -24.200781 
L 556.739477 -24.200781 
L 557.729258 -24.200781 
L 558.719039 -24.200781 
L 559.70882 -24.200781 
L 560.698602 -24.200781 
L 561.688383 -24.200781 
L 562.678164 -24.200781 
L 563.667945 -24.200781 
L 564.657726 -24.200781 
L 565.647508 -24.200781 
L 566.637289 -24.200781 
L 567.62707 -24.200781 
L 568.616851 -24.200781 
L 569.606632 -24.200781 
L 570.596413 -24.200781 
L 571.586195 -24.200781 
L 572.575976 -24.200781 
L 573.565757 -24.200781 
L 574.555538 -24.200781 
L 575.545319 -24.200781 
L 576.5351 -24.200781 
L 577.524882 -24.200781 
L 578.514663 -24.200781 
L 579.504444 -24.200781 
L 580.494225 -24.200781 
L 581.484006 -24.200781 
L 582.473788 -24.200781 
L 583.463569 -24.200781 
L 584.45335 -24.200781 
L 585.443131 -24.200781 
L 586.432912 -24.200781 
L 587.422693 -24.200781 
L 588.412475 -24.200781 
L 589.402256 -24.200781 
L 590.392037 -24.200781 
L 591.381818 -24.200781 
L 592.371599 -24.200781 
L 593.36138 -24.200781 
L 594.351162 -24.200781 
L 595.340943 -24.200781 
L 596.330724 -24.200781 
L 597.320505 -24.200781 
L 598.310286 -24.200781 
L 599.300067 -24.200781 
L 600.289849 -24.200781 
L 601.27963 -24.200781 
L 601.27963 -24.200781 
L 601.27963 -24.200781 
L 600.289849 -24.200781 
L 599.300067 -24.200781 
L 598.310286 -24.200781 
L 597.320505 -24.200781 
L 596.330724 -24.200781 
L 595.340943 -24.200781 
L 594.351162 -24.200781 
L 593.36138 -24.200781 
L 592.371599 -24.200781 
L 591.381818 -24.200781 
L 590.392037 -24.200781 
L 589.402256 -24.200781 
L 588.412475 -24.200781 
L 587.422693 -24.200781 
L 586.432912 -24.200781 
L 585.443131 -24.200781 
L 584.45335 -24.200781 
L 583.463569 -24.200781 
L 582.473788 -24.200781 
L 581.484006 -24.200781 
L 580.494225 -24.200781 
L 579.504444 -24.200781 
L 578.514663 -24.200781 
L 577.524882 -24.200781 
L 576.5351 -24.200781 
L 575.545319 -24.200781 
L 574.555538 -24.200781 
L 573.565757 -24.200781 
L 572.575976 -24.200781 
L 571.586195 -24.200781 
L 570.596413 -24.200781 
L 569.606632 -24.200781 
L 568.616851 -24.200781 
L 567.62707 -24.200781 
L 566.637289 -24.200781 
L 565.647508 -24.200781 
L 564.657726 -24.200781 
L 563.667945 -24.200781 
L 562.678164 -24.200781 
L 561.688383 -24.200781 
L 560.698602 -24.200781 
L 559.70882 -24.200781 
L 558.719039 -24.200781 
L 557.729258 -24.200781 
L 556.739477 -24.200781 
L 555.749696 -24.200781 
L 554.759915 -24.200781 
L 553.770133 -24.200781 
L 552.780352 -24.200781 
L 551.790571 -24.200781 
L 550.80079 -24.200781 
L 549.811009 -24.200781 
L 548.821228 -24.200781 
L 547.831446 -24.200781 
L 546.841665 -24.200781 
L 545.851884 -24.200781 
L 544.862103 -24.200781 
L 543.872322 -24.200781 
L 542.882541 -24.200781 
L 541.892759 -24.200781 
L 540.902978 -24.200781 
L 539.913197 -24.200781 
L 538.923416 -24.200781 
L 537.933635 -24.200781 
L 536.943853 -24.200781 
L 535.954072 -24.200781 
L 534.964291 -24.200781 
L 533.97451 -24.200781 
L 532.984729 -24.200781 
L 531.994948 -24.200781 
L 531.005166 -24.200781 
L 530.015385 -24.200781 
L 529.025604 -24.200781 
L 528.035823 -24.200781 
L 527.046042 -24.200781 
L 526.056261 -24.200781 
L 525.066479 -24.200781 
L 524.076698 -24.200781 
L 523.086917 -24.200781 
L 522.097136 -24.200781 
L 521.107355 -24.200781 
L 520.117574 -24.200781 
L 519.127792 -24.200781 
L 518.138011 -24.200781 
L 517.14823 -24.200781 
L 516.158449 -24.200781 
L 515.168668 -24.200781 
L 514.178886 -24.200781 
L 513.189105 -24.200781 
L 512.199324 -24.200781 
L 511.209543 -24.200781 
L 510.219762 -24.200781 
L 509.229981 -24.200781 
L 508.240199 -24.200781 
L 507.250418 -24.200781 
L 506.260637 -24.200781 
L 505.270856 -24.200781 
L 504.281075 -24.200781 
L 503.291294 -24.200781 
L 502.301512 -24.200781 
L 501.311731 -24.200781 
L 500.32195 -24.200781 
L 499.332169 -24.200781 
L 498.342388 -24.200781 
L 497.352607 -24.200781 
L 496.362825 -24.200781 
L 495.373044 -24.200781 
L 494.383263 -24.200781 
L 493.393482 -24.200781 
L 492.403701 -24.200781 
L 491.413919 -24.200781 
L 490.424138 -24.200781 
L 489.434357 -24.200781 
L 488.444576 -24.200781 
L 487.454795 -24.200781 
L 486.465014 -24.200781 
L 485.475232 -24.200781 
L 484.485451 -24.200781 
L 483.49567 -24.200781 
L 482.505889 -24.200781 
L 481.516108 -24.200781 
L 480.526327 -24.200781 
L 479.536545 -24.200781 
L 478.546764 -24.200781 
L 477.556983 -24.200781 
L 476.567202 -24.200781 
L 475.577421 -24.200781 
L 474.587639 -24.200781 
L 473.597858 -24.200781 
L 472.608077 -24.200781 
L 471.618296 -24.200781 
L 470.628515 -24.200781 
L 469.638734 -24.200781 
L 468.648952 -24.200781 
L 467.659171 -24.200781 
L 466.66939 -24.200781 
L 465.679609 -24.200781 
L 464.689828 -24.200781 
L 463.700047 -24.200781 
L 462.710265 -24.200781 
L 461.720484 -24.200781 
L 460.730703 -24.200781 
L 459.740922 -24.200781 
L 458.751141 -24.200781 
L 457.76136 -24.200781 
L 456.771578 -24.200781 
L 455.781797 -24.200781 
L 454.792016 -24.200781 
L 453.802235 -24.200781 
L 452.812454 -24.200781 
L 451.822672 -24.200781 
L 450.832891 -24.200781 
L 449.84311 -24.200781 
L 448.853329 -24.200781 
L 447.863548 -24.200781 
L 446.873767 -24.200781 
L 445.883985 -24.200781 
L 444.894204 -24.200781 
L 443.904423 -24.200781 
L 442.914642 -24.200781 
L 441.924861 -24.200781 
L 440.93508 -24.200781 
L 439.945298 -24.200781 
L 438.955517 -24.200781 
L 437.965736 -24.200781 
L 436.975955 -24.200781 
L 435.986174 -24.200781 
L 434.996393 -24.200781 
L 434.006611 -24.200781 
L 433.01683 -24.200781 
L 432.027049 -24.200781 
L 431.037268 -24.200781 
L 430.047487 -24.200781 
L 429.057705 -24.200781 
L 428.067924 -24.200781 
L 427.078143 -24.200781 
L 426.088362 -24.200781 
L 425.098581 -24.200781 
L 424.1088 -24.200781 
L 423.119018 -24.200781 
L 422.129237 -24.200781 
L 421.139456 -24.200781 
L 420.149675 -24.200781 
L 419.159894 -24.200781 
L 418.170113 -24.200781 
L 417.180331 -24.200781 
L 416.19055 -24.200781 
L 415.200769 -24.200781 
L 414.210988 -24.200781 
L 413.221207 -24.200781 
L 412.231426 -24.200781 
L 411.241644 -24.200781 
L 410.251863 -24.200781 
L 409.262082 -24.200781 
L 408.272301 -24.200781 
L 407.28252 -24.200781 
L 406.292738 -24.200781 
L 405.302957 -24.200781 
L 404.313176 -24.200781 
L 403.323395 -24.200781 
L 402.333614 -24.200781 
L 401.343833 -24.200781 
L 400.354051 -24.200781 
L 399.36427 -24.200781 
L 398.374489 -24.200781 
L 397.384708 -24.200781 
L 396.394927 -24.200781 
L 395.405146 -24.200781 
L 394.415364 -24.200781 
L 393.425583 -24.200781 
L 392.435802 -24.200781 
L 391.446021 -24.200781 
L 390.45624 -24.200781 
L 389.466458 -24.200781 
L 388.476677 -24.200781 
L 387.486896 -24.200781 
L 386.497115 -24.200781 
L 385.507334 -24.200781 
L 384.517553 -24.200781 
L 383.527771 -24.200781 
L 382.53799 -24.200781 
L 381.548209 -24.200781 
L 380.558428 -24.200781 
L 379.568647 -24.200781 
L 378.578866 -24.200781 
L 377.589084 -24.200781 
L 376.599303 -24.200781 
L 375.609522 -24.200781 
L 374.619741 -24.200781 
L 373.62996 -24.200781 
L 372.640179 -24.200781 
L 371.650397 -24.200781 
L 370.660616 -24.200781 
L 369.670835 -24.200781 
L 368.681054 -24.200781 
L 367.691273 -24.200781 
L 366.701491 -24.200781 
L 365.71171 -24.200781 
L 364.721929 -24.200781 
L 363.732148 -24.200781 
L 362.742367 -24.200781 
L 361.752586 -24.200781 
L 360.762804 -24.200781 
L 359.773023 -24.200781 
L 358.783242 -24.200781 
L 357.793461 -24.200781 
L 356.80368 -24.200781 
L 355.813899 -24.200781 
L 354.824117 -24.200781 
L 353.834336 -24.200781 
L 352.844555 -24.200781 
L 351.854774 -24.200781 
L 350.864993 -24.200781 
L 349.875212 -24.200781 
L 348.88543 -24.200781 
L 347.895649 -24.200781 
L 346.905868 -24.200781 
L 345.916087 -24.200781 
L 344.926306 -24.200781 
L 343.936524 -24.200781 
L 342.946743 -24.200781 
L 341.956962 -24.200781 
L 340.967181 -24.200781 
L 339.9774 -24.200781 
L 338.987619 -24.200781 
L 337.997837 -24.200781 
L 337.008056 -24.200781 
L 336.018275 -24.200781 
L 335.028494 -24.200781 
L 334.038713 -24.200781 
L 333.048932 -24.200781 
L 332.05915 -24.200781 
L 331.069369 -24.200781 
L 330.079588 -24.200781 
L 329.089807 -24.200781 
L 328.100026 -24.200781 
L 327.110245 -24.200781 
L 326.120463 -24.200781 
L 325.130682 -24.200781 
L 324.140901 -24.200781 
L 323.15112 -24.200781 
L 322.161339 -24.200781 
L 321.171557 -24.200781 
L 320.181776 -24.200781 
L 319.191995 -24.200781 
L 318.202214 -24.200781 
L 317.212433 -24.200781 
L 316.222652 -24.200781 
L 315.23287 -24.200781 
L 314.243089 -24.200781 
L 313.253308 -24.200781 
L 312.263527 -24.200781 
L 311.273746 -24.200781 
L 310.283965 -24.200781 
L 309.294183 -24.200781 
L 308.304402 -24.200781 
L 307.314621 -24.200781 
L 306.32484 -24.200781 
L 305.335059 -24.200781 
L 304.345277 -24.200781 
L 303.355496 -24.200781 
L 302.365715 -24.200781 
L 301.375934 -24.200781 
L 300.386153 -24.200781 
L 299.396372 -24.200781 
L 298.40659 -24.200781 
L 297.416809 -24.200781 
L 296.427028 -24.200781 
L 295.437247 -24.200781 
L 294.447466 -24.200781 
L 293.457685 -24.200781 
L 292.467903 -24.200781 
L 291.478122 -24.200781 
L 290.488341 -24.200781 
L 289.49856 -24.200781 
L 288.508779 -24.200781 
L 287.518998 -24.200781 
L 286.529216 -24.200781 
L 285.539435 -24.200781 
L 284.549654 -24.200781 
L 283.559873 -24.200781 
L 282.570092 -24.200781 
L 281.58031 -24.200781 
L 280.590529 -24.200781 
L 279.600748 -24.200781 
L 278.610967 -24.200781 
L 277.621186 -24.200781 
L 276.631405 -24.200781 
L 275.641623 -24.200781 
L 274.651842 -24.200781 
L 273.662061 -24.200781 
L 272.67228 -24.200781 
L 271.682499 -24.200781 
L 270.692718 -24.200781 
L 269.702936 -24.200781 
L 268.713155 -24.200781 
L 267.723374 -24.200781 
L 266.733593 -24.200781 
L 265.743812 -24.200781 
L 264.754031 -24.200781 
L 263.764249 -24.200781 
L 262.774468 -24.200781 
L 261.784687 -24.200781 
L 260.794906 -24.200781 
L 259.805125 -24.200781 
L 258.815343 -24.200781 
L 257.825562 -24.200781 
L 256.835781 -24.200781 
L 255.846 -24.200781 
L 254.856219 -24.200781 
L 253.866438 -24.200781 
L 252.876656 -24.200781 
L 251.886875 -24.200781 
L 250.897094 -24.200781 
L 249.907313 -24.200781 
L 248.917532 -24.200781 
L 247.927751 -24.200781 
L 246.937969 -24.200781 
L 245.948188 -24.200781 
L 244.958407 -24.200781 
L 243.968626 -24.200781 
L 242.978845 -24.200781 
L 241.989064 -24.200781 
L 240.999282 -24.200781 
L 240.009501 -24.200781 
L 239.01972 -24.200781 
L 238.029939 -24.200781 
L 237.040158 -24.200781 
L 236.050376 -24.200781 
L 235.060595 -24.200781 
L 234.070814 -24.200781 
L 233.081033 -24.200781 
L 232.091252 -24.200781 
L 231.101471 -24.200781 
L 230.111689 -24.200781 
L 229.121908 -24.200781 
L 228.132127 -24.200781 
L 227.142346 -24.200781 
L 226.152565 -24.200781 
L 225.162784 -24.200781 
L 224.173002 -24.200781 
L 223.183221 -24.200781 
L 222.19344 -24.200781 
L 221.203659 -24.200781 
L 220.213878 -24.200781 
L 219.224096 -24.200781 
L 218.234315 -24.200781 
L 217.244534 -24.200781 
L 216.254753 -24.200781 
L 215.264972 -24.200781 
L 214.275191 -24.200781 
L 213.285409 -24.200781 
L 212.295628 -24.200781 
L 211.305847 -24.200781 
L 210.316066 -24.200781 
L 209.326285 -24.200781 
L 208.336504 -24.200781 
L 207.346722 -24.200781 
L 206.356941 -24.200781 
L 205.36716 -24.200781 
L 204.377379 -24.200781 
L 203.387598 -24.200781 
L 202.397817 -24.200781 
L 201.408035 -24.200781 
L 200.418254 -24.200781 
L 199.428473 -24.200781 
L 198.438692 -24.200781 
L 197.448911 -24.200781 
L 196.459129 -24.200781 
L 195.469348 -24.200781 
L 194.479567 -24.200781 
L 193.489786 -24.200781 
L 192.500005 -24.200781 
L 191.510224 -24.200781 
L 190.520442 -24.200781 
L 189.530661 -24.200781 
L 188.54088 -24.200781 
L 187.551099 -24.200781 
L 186.561318 -24.200781 
L 185.571537 -24.200781 
L 184.581755 -24.200781 
L 183.591974 -24.200781 
L 182.602193 -24.200781 
L 181.612412 -24.200781 
L 180.622631 -24.200781 
L 179.63285 -24.200781 
L 178.643068 -24.200781 
L 177.653287 -24.200781 
L 176.663506 -24.200781 
L 175.673725 -24.200781 
L 174.683944 -24.200781 
L 173.694162 -24.200781 
L 172.704381 -24.200781 
L 171.7146 -24.200781 
L 170.724819 -24.200781 
L 169.735038 -24.200781 
L 168.745257 -24.200781 
L 167.755475 -24.200781 
L 166.765694 -24.200781 
L 165.775913 -24.200781 
L 164.786132 -24.200781 
L 163.796351 -24.200781 
L 162.80657 -24.200781 
L 161.816788 -24.200781 
L 160.827007 -24.200781 
L 159.837226 -24.200781 
L 158.847445 -24.200781 
L 157.857664 -24.200781 
L 156.867883 -24.200781 
L 155.878101 -24.200781 
L 154.88832 -24.200781 
L 153.898539 -24.200781 
L 152.908758 -24.200781 
L 151.918977 -24.200781 
L 150.929195 -24.200781 
L 149.939414 -24.200781 
L 148.949633 -24.200781 
L 147.959852 -24.200781 
L 146.970071 -24.200781 
L 145.98029 -24.200781 
L 144.990508 -24.200781 
L 144.000727 -24.200781 
L 143.010946 -24.200781 
L 142.021165 -24.200781 
L 141.031384 -24.200781 
L 140.041603 -24.200781 
L 139.051821 -24.200781 
L 138.06204 -24.200781 
L 137.072259 -24.200781 
L 136.082478 -24.200781 
L 135.092697 -24.200781 
L 134.102915 -24.200781 
L 133.113134 -24.200781 
L 132.123353 -24.200781 
L 131.133572 -24.200781 
L 130.143791 -24.200781 
L 129.15401 -24.200781 
L 128.164228 -24.200781 
L 127.174447 -24.200781 
L 126.184666 -24.200781 
L 125.194885 -24.200781 
L 124.205104 -24.200781 
L 123.215323 -24.200781 
L 122.225541 -24.200781 
L 121.23576 -24.200781 
L 120.245979 -24.200781 
L 119.256198 -24.200781 
L 118.266417 -24.200781 
L 117.276636 -24.200781 
L 116.286854 -24.200781 
L 115.297073 -24.200781 
L 114.307292 -24.200781 
L 113.317511 -24.200781 
L 112.32773 -24.200781 
L 111.337948 -24.200781 
L 110.348167 -24.200781 
L 109.358386 -24.200781 
L 108.368605 -24.200781 
L 107.378824 -24.200781 
L 106.389043 -24.200781 
L 105.399261 -24.200781 
L 104.40948 -24.200781 
L 103.419699 -24.200781 
L 102.429918 -24.200781 
L 101.440137 -24.200781 
L 100.450356 -24.200781 
L 99.460574 -24.200781 
L 98.470793 -24.200781 
L 97.481012 -24.200781 
L 96.491231 -24.200781 
L 95.50145 -24.200781 
L 94.511669 -24.200781 
L 93.521887 -24.200781 
L 92.532106 -24.200781 
L 91.542325 -24.200781 
L 90.552544 -24.200781 
L 89.562763 -24.200781 
L 88.572981 -24.200781 
L 87.5832 -24.200781 
L 86.593419 -24.200781 
L 85.603638 -24.200781 
L 84.613857 -24.200781 
L 83.624076 -24.200781 
L 82.634294 -24.200781 
L 81.644513 -24.200781 
L 80.654732 -24.200781 
L 79.664951 -24.200781 
L 78.67517 -24.200781 
L 77.685389 -24.200781 
L 76.695607 -24.200781 
z
" style="stroke: #f4900c; stroke-opacity: 0.15"/>
    </defs>
    <g clip-path="url(#p7c82c1ca15)">
     <use xlink:href="#m2f0a4949ed" x="0" y="222.999375" style="fill: #f4900c; fill-opacity: 0.15; stroke: #f4900c; stroke-opacity: 0.15"/>
    </g>
   </g>
   <g id="matplotlib.axis_1">
    <g id="xtick_1">
     <g id="line2d_1">
      <defs>
       <path id="me1d6b24432" d="M 0 0 
L 0 3.5 
" style="stroke: #000000; stroke-width: 0.8"/>
      </defs>
      <g>
       <use xlink:href="#me1d6b24432" x="76.695607" y="198.798594" style="stroke: #000000; stroke-width: 0.8"/>
      </g>
     </g>
     <g id="text_1">
      <!-- Jan 01 -->
      <g transform="translate(61.036232 213.39625) scale(0.1 -0.1)">
       <defs>
        <path id="DejaVuSans-2d" d="M 628 4666 
L 1259 4666 
L 1259 325 
Q 1259 -519 939 -900 
Q 619 -1281 -91 -1281 
L -331 -1281 
L -331 -750 
L -134 -750 
Q 284 -750 456 -515 
Q 628 -281 628 325 
L 628 4666 
z
" transform="scale(0.015625)"/>
        <path id="DejaVuSans-44" d="M 2194 1759 
Q 1497 1759 1228 1600 
Q 959 1441 959 1056 
Q 959 750 1161 570 
Q 1363 391 1709 391 
Q 2188 391 2477 730 
Q 2766 1069 2766 1631 
L 2766 1759 
L 2194 1759 
z
M 3341 1997 
L 3341 0 
L 2766 0 
L 2766 531 
Q 2569 213 2275 61 
Q 1981 -91 1556 -91 
Q 1019 -91 701 211 
Q 384 513 384 1019 
Q 384 1609 779 1909 
Q 1175 2209 1959 2209 
L 2766 2209 
L 2766 2266 
Q 2766 2663 2505 2880 
Q 2244 3097 1772 3097 
Q 1472 3097 1187 3025 
Q 903 2953 641 2809 
L 641 3341 
Q 956 3463 1253 3523 
Q 1550 3584 1831 3584 
Q 2591 3584 2966 3190 
Q 3341 2797 3341 1997 
z
" transform="scale(0.015625)"/>
        <path id="DejaVuSans-51" d="M 3513 2113 
L 3513 0 
L 2938 0 
L 2938 2094 
Q 2938 2591 2744 2837 
Q 2550 3084 2163 3084 
Q 1697 3084 1428 2787 
Q 1159 2491 1159 1978 
L 1159 0 
L 581 0 
L 581 3500 
L 1159 3500 
L 1159 2956 
Q 1366 3272 1645 3428 
Q 1925 3584 2291 3584 
Q 2894 3584 3203 3211 
Q 3513 2838 3513 2113 
z
" transform="scale(0.015625)"/>
        <path id="DejaVuSans-3" transform="scale(0.015625)"/>
        <path id="DejaVuSans-13" d="M 2034 4250 
Q 1547 4250 1301 3770 
Q 1056 3291 1056 2328 
Q 1056 1369 1301 889 
Q 1547 409 2034 409 
Q 2525 409 2770 889 
Q 3016 1369 3016 2328 
Q 3016 3291 2770 3770 
Q 2525 4250 2034 4250 
z
M 2034 4750 
Q 2819 4750 3233 4129 
Q 3647 3509 3647 2328 
Q 3647 1150 3233 529 
Q 2819 -91 2034 -91 
Q 1250 -91 836 529 
Q 422 1150 422 2328 
Q 422 3509 836 4129 
Q 1250 4750 2034 4750 
z
" transform="scale(0.015625)"/>
        <path id="DejaVuSans-14" d="M 794 531 
L 1825 531 
L 1825 4091 
L 703 3866 
L 703 4441 
L 1819 4666 
L 2450 4666 
L 2450 531 
L 3481 531 
L 3481 0 
L 794 0 
L 794 531 
z
" transform="scale(0.015625)"/>
       </defs>
       <use xlink:href="#DejaVuSans-2d"/>
       <use xlink:href="#DejaVuSans-44" transform="translate(29.5 0)"/>
       <use xlink:href="#DejaVuSans-51" transform="translate(90.78125 0)"/>
       <use xlink:href="#DejaVuSans-3" transform="translate(154.15625 0)"/>
       <use xlink:href="#DejaVuSans-13" transform="translate(185.9375 0)"/>
       <use xlink:href="#DejaVuSans-14" transform="translate(249.5625 0)"/>
      </g>
     </g>
    </g>
    <g id="xtick_2">
     <g id="line2d_2">
      <g>
       <use xlink:href="#me1d6b24432" x="135.092697" y="198.798594" style="stroke: #000000; stroke-width: 0.8"/>
      </g>
     </g>
     <g id="text_2">
      <!-- Mar 01 -->
      <g transform="translate(117.70754 213.39625) scale(0.1 -0.1)">
       <defs>
        <path id="DejaVuSans-30" d="M 628 4666 
L 1569 4666 
L 2759 1491 
L 3956 4666 
L 4897 4666 
L 4897 0 
L 4281 0 
L 4281 4097 
L 3078 897 
L 2444 897 
L 1241 4097 
L 1241 0 
L 628 0 
L 628 4666 
z
" transform="scale(0.015625)"/>
        <path id="DejaVuSans-55" d="M 2631 2963 
Q 2534 3019 2420 3045 
Q 2306 3072 2169 3072 
Q 1681 3072 1420 2755 
Q 1159 2438 1159 1844 
L 1159 0 
L 581 0 
L 581 3500 
L 1159 3500 
L 1159 2956 
Q 1341 3275 1631 3429 
Q 1922 3584 2338 3584 
Q 2397 3584 2469 3576 
Q 2541 3569 2628 3553 
L 2631 2963 
z
" transform="scale(0.015625)"/>
       </defs>
       <use xlink:href="#DejaVuSans-30"/>
       <use xlink:href="#DejaVuSans-44" transform="translate(86.28125 0)"/>
       <use xlink:href="#DejaVuSans-55" transform="translate(147.5625 0)"/>
       <use xlink:href="#DejaVuSans-3" transform="translate(188.671875 0)"/>
       <use xlink:href="#DejaVuSans-13" transform="translate(220.453125 0)"/>
       <use xlink:href="#DejaVuSans-14" transform="translate(284.078125 0)"/>
      </g>
     </g>
    </g>
    <g id="xtick_3">
     <g id="line2d_3">
      <g>
       <use xlink:href="#me1d6b24432" x="195.469348" y="198.798594" style="stroke: #000000; stroke-width: 0.8"/>
      </g>
     </g>
     <g id="text_3">
      <!-- May 01 -->
      <g transform="translate(177.180286 213.39625) scale(0.1 -0.1)">
       <defs>
        <path id="DejaVuSans-5c" d="M 2059 -325 
Q 1816 -950 1584 -1140 
Q 1353 -1331 966 -1331 
L 506 -1331 
L 506 -850 
L 844 -850 
Q 1081 -850 1212 -737 
Q 1344 -625 1503 -206 
L 1606 56 
L 191 3500 
L 800 3500 
L 1894 763 
L 2988 3500 
L 3597 3500 
L 2059 -325 
z
" transform="scale(0.015625)"/>
       </defs>
       <use xlink:href="#DejaVuSans-30"/>
       <use xlink:href="#DejaVuSans-44" transform="translate(86.28125 0)"/>
       <use xlink:href="#DejaVuSans-5c" transform="translate(147.5625 0)"/>
       <use xlink:href="#DejaVuSans-3" transform="translate(206.75 0)"/>
       <use xlink:href="#DejaVuSans-13" transform="translate(238.53125 0)"/>
       <use xlink:href="#DejaVuSans-14" transform="translate(302.15625 0)"/>
      </g>
     </g>
    </g>
    <g id="xtick_4">
     <g id="line2d_4">
      <g>
       <use xlink:href="#me1d6b24432" x="255.846" y="198.798594" style="stroke: #000000; stroke-width: 0.8"/>
      </g>
     </g>
     <g id="text_4">
      <!-- Jul 01 -->
      <g transform="translate(241.861625 213.397031) scale(0.1 -0.1)">
       <defs>
        <path id="DejaVuSans-58" d="M 544 1381 
L 544 3500 
L 1119 3500 
L 1119 1403 
Q 1119 906 1312 657 
Q 1506 409 1894 409 
Q 2359 409 2629 706 
Q 2900 1003 2900 1516 
L 2900 3500 
L 3475 3500 
L 3475 0 
L 2900 0 
L 2900 538 
Q 2691 219 2414 64 
Q 2138 -91 1772 -91 
Q 1169 -91 856 284 
Q 544 659 544 1381 
z
M 1991 3584 
L 1991 3584 
z
" transform="scale(0.015625)"/>
        <path id="DejaVuSans-4f" d="M 603 4863 
L 1178 4863 
L 1178 0 
L 603 0 
L 603 4863 
z
" transform="scale(0.015625)"/>
       </defs>
       <use xlink:href="#DejaVuSans-2d"/>
       <use xlink:href="#DejaVuSans-58" transform="translate(29.5 0)"/>
       <use xlink:href="#DejaVuSans-4f" transform="translate(92.875 0)"/>
       <use xlink:href="#DejaVuSans-3" transform="translate(120.65625 0)"/>
       <use xlink:href="#DejaVuSans-13" transform="translate(152.4375 0)"/>
       <use xlink:href="#DejaVuSans-14" transform="translate(216.0625 0)"/>
      </g>
     </g>
    </g>
    <g id="xtick_5">
     <g id="line2d_5">
      <g>
       <use xlink:href="#me1d6b24432" x="317.212433" y="198.798594" style="stroke: #000000; stroke-width: 0.8"/>
      </g>
     </g>
     <g id="text_5">
      <!-- Sep 01 -->
      <g transform="translate(299.83587 213.39625) scale(0.1 -0.1)">
       <defs>
        <path id="DejaVuSans-36" d="M 3425 4513 
L 3425 3897 
Q 3066 4069 2747 4153 
Q 2428 4238 2131 4238 
Q 1616 4238 1336 4038 
Q 1056 3838 1056 3469 
Q 1056 3159 1242 3001 
Q 1428 2844 1947 2747 
L 2328 2669 
Q 3034 2534 3370 2195 
Q 3706 1856 3706 1288 
Q 3706 609 3251 259 
Q 2797 -91 1919 -91 
Q 1588 -91 1214 -16 
Q 841 59 441 206 
L 441 856 
Q 825 641 1194 531 
Q 1563 422 1919 422 
Q 2459 422 2753 634 
Q 3047 847 3047 1241 
Q 3047 1584 2836 1778 
Q 2625 1972 2144 2069 
L 1759 2144 
Q 1053 2284 737 2584 
Q 422 2884 422 3419 
Q 422 4038 858 4394 
Q 1294 4750 2059 4750 
Q 2388 4750 2728 4690 
Q 3069 4631 3425 4513 
z
" transform="scale(0.015625)"/>
        <path id="DejaVuSans-48" d="M 3597 1894 
L 3597 1613 
L 953 1613 
Q 991 1019 1311 708 
Q 1631 397 2203 397 
Q 2534 397 2845 478 
Q 3156 559 3463 722 
L 3463 178 
Q 3153 47 2828 -22 
Q 2503 -91 2169 -91 
Q 1331 -91 842 396 
Q 353 884 353 1716 
Q 353 2575 817 3079 
Q 1281 3584 2069 3584 
Q 2775 3584 3186 3129 
Q 3597 2675 3597 1894 
z
M 3022 2063 
Q 3016 2534 2758 2815 
Q 2500 3097 2075 3097 
Q 1594 3097 1305 2825 
Q 1016 2553 972 2059 
L 3022 2063 
z
" transform="scale(0.015625)"/>
        <path id="DejaVuSans-53" d="M 1159 525 
L 1159 -1331 
L 581 -1331 
L 581 3500 
L 1159 3500 
L 1159 2969 
Q 1341 3281 1617 3432 
Q 1894 3584 2278 3584 
Q 2916 3584 3314 3078 
Q 3713 2572 3713 1747 
Q 3713 922 3314 415 
Q 2916 -91 2278 -91 
Q 1894 -91 1617 61 
Q 1341 213 1159 525 
z
M 3116 1747 
Q 3116 2381 2855 2742 
Q 2594 3103 2138 3103 
Q 1681 3103 1420 2742 
Q 1159 2381 1159 1747 
Q 1159 1113 1420 752 
Q 1681 391 2138 391 
Q 2594 391 2855 752 
Q 3116 1113 3116 1747 
z
" transform="scale(0.015625)"/>
       </defs>
       <use xlink:href="#DejaVuSans-36"/>
       <use xlink:href="#DejaVuSans-48" transform="translate(63.484375 0)"/>
       <use xlink:href="#DejaVuSans-53" transform="translate(125.015625 0)"/>
       <use xlink:href="#DejaVuSans-3" transform="translate(188.5 0)"/>
       <use xlink:href="#DejaVuSans-13" transform="translate(220.28125 0)"/>
       <use xlink:href="#DejaVuSans-14" transform="translate(283.90625 0)"/>
      </g>
     </g>
    </g>
    <g id="xtick_6">
     <g id="line2d_6">
      <g>
       <use xlink:href="#me1d6b24432" x="377.589084" y="198.798594" style="stroke: #000000; stroke-width: 0.8"/>
      </g>
     </g>
     <g id="text_6">
      <!-- Nov 01 -->
      <g transform="translate(359.878147 213.39625) scale(0.1 -0.1)">
       <defs>
        <path id="DejaVuSans-31" d="M 628 4666 
L 1478 4666 
L 3547 763 
L 3547 4666 
L 4159 4666 
L 4159 0 
L 3309 0 
L 1241 3903 
L 1241 0 
L 628 0 
L 628 4666 
z
" transform="scale(0.015625)"/>
        <path id="DejaVuSans-52" d="M 1959 3097 
Q 1497 3097 1228 2736 
Q 959 2375 959 1747 
Q 959 1119 1226 758 
Q 1494 397 1959 397 
Q 2419 397 2687 759 
Q 2956 1122 2956 1747 
Q 2956 2369 2687 2733 
Q 2419 3097 1959 3097 
z
M 1959 3584 
Q 2709 3584 3137 3096 
Q 3566 2609 3566 1747 
Q 3566 888 3137 398 
Q 2709 -91 1959 -91 
Q 1206 -91 779 398 
Q 353 888 353 1747 
Q 353 2609 779 3096 
Q 1206 3584 1959 3584 
z
" transform="scale(0.015625)"/>
        <path id="DejaVuSans-59" d="M 191 3500 
L 800 3500 
L 1894 563 
L 2988 3500 
L 3597 3500 
L 2284 0 
L 1503 0 
L 191 3500 
z
" transform="scale(0.015625)"/>
       </defs>
       <use xlink:href="#DejaVuSans-31"/>
       <use xlink:href="#DejaVuSans-52" transform="translate(74.8125 0)"/>
       <use xlink:href="#DejaVuSans-59" transform="translate(136 0)"/>
       <use xlink:href="#DejaVuSans-3" transform="translate(195.1875 0)"/>
       <use xlink:href="#DejaVuSans-13" transform="translate(226.96875 0)"/>
       <use xlink:href="#DejaVuSans-14" transform="translate(290.59375 0)"/>
      </g>
     </g>
    </g>
    <g id="xtick_7">
     <g id="line2d_7">
      <g>
       <use xlink:href="#me1d6b24432" x="437.965736" y="198.798594" style="stroke: #000000; stroke-width: 0.8"/>
      </g>
     </g>
     <g id="text_7">
      <!-- Jan 01 -->
      <g transform="translate(422.306361 213.39625) scale(0.1 -0.1)">
       <use xlink:href="#DejaVuSans-2d"/>
       <use xlink:href="#DejaVuSans-44" transform="translate(29.5 0)"/>
       <use xlink:href="#DejaVuSans-51" transform="translate(90.78125 0)"/>
       <use xlink:href="#DejaVuSans-3" transform="translate(154.15625 0)"/>
       <use xlink:href="#DejaVuSans-13" transform="translate(185.9375 0)"/>
       <use xlink:href="#DejaVuSans-14" transform="translate(249.5625 0)"/>
      </g>
     </g>
    </g>
    <g id="xtick_8">
     <g id="line2d_8">
      <g>
       <use xlink:href="#me1d6b24432" x="496.362825" y="198.798594" style="stroke: #000000; stroke-width: 0.8"/>
      </g>
     </g>
     <g id="text_8">
      <!-- Mar 01 -->
      <g transform="translate(478.977669 213.39625) scale(0.1 -0.1)">
       <use xlink:href="#DejaVuSans-30"/>
       <use xlink:href="#DejaVuSans-44" transform="translate(86.28125 0)"/>
       <use xlink:href="#DejaVuSans-55" transform="translate(147.5625 0)"/>
       <use xlink:href="#DejaVuSans-3" transform="translate(188.671875 0)"/>
       <use xlink:href="#DejaVuSans-13" transform="translate(220.453125 0)"/>
       <use xlink:href="#DejaVuSans-14" transform="translate(284.078125 0)"/>
      </g>
     </g>
    </g>
    <g id="xtick_9">
     <g id="line2d_9">
      <g>
       <use xlink:href="#me1d6b24432" x="556.739477" y="198.798594" style="stroke: #000000; stroke-width: 0.8"/>
      </g>
     </g>
     <g id="text_9">
      <!-- May 01 -->
      <g transform="translate(538.450414 213.39625) scale(0.1 -0.1)">
       <use xlink:href="#DejaVuSans-30"/>
       <use xlink:href="#DejaVuSans-44" transform="translate(86.28125 0)"/>
       <use xlink:href="#DejaVuSans-5c" transform="translate(147.5625 0)"/>
       <use xlink:href="#DejaVuSans-3" transform="translate(206.75 0)"/>
       <use xlink:href="#DejaVuSans-13" transform="translate(238.53125 0)"/>
       <use xlink:href="#DejaVuSans-14" transform="translate(302.15625 0)"/>
      </g>
     </g>
    </g>
    <g id="xtick_10">
     <g id="line2d_10">
      <g>
       <use xlink:href="#me1d6b24432" x="617.116129" y="198.798594" style="stroke: #000000; stroke-width: 0.8"/>
      </g>
     </g>
     <g id="text_10">
      <!-- Jul 01 -->
      <g transform="translate(603.131754 213.397031) scale(0.1 -0.1)">
       <use xlink:href="#DejaVuSans-2d"/>
       <use xlink:href="#DejaVuSans-58" transform="translate(29.5 0)"/>
       <use xlink:href="#DejaVuSans-4f" transform="translate(92.875 0)"/>
       <use xlink:href="#DejaVuSans-3" transform="translate(120.65625 0)"/>
       <use xlink:href="#DejaVuSans-13" transform="translate(152.4375 0)"/>
       <use xlink:href="#DejaVuSans-14" transform="translate(216.0625 0)"/>
      </g>
     </g>
    </g>
   </g>
   <g id="matplotlib.axis_2">
    <g id="ytick_1">
     <g id="line2d_11">
      <path d="M 50.466406 198.798594 
L 627.508831 198.798594 
" clip-path="url(#p7c82c1ca15)" style="fill: none; stroke-dasharray: 2.96,1.28; stroke-dashoffset: 0; stroke: #b0b0b0; stroke-opacity: 0.3; stroke-width: 0.8"/>
     </g>
     <g id="line2d_12">
      <defs>
       <path id="mc787290110" d="M 0 0 
L -3.5 0 
" style="stroke: #000000; stroke-width: 0.8"/>
      </defs>
      <g>
       <use xlink:href="#mc787290110" x="50.466406" y="198.798594" style="stroke: #000000; stroke-width: 0.8"/>
      </g>
     </g>
     <g id="text_11">
      <!-- 0.00 -->
      <g transform="translate(21.200781 202.597422) scale(0.1 -0.1)">
       <defs>
        <path id="DejaVuSans-11" d="M 684 794 
L 1344 794 
L 1344 0 
L 684 0 
L 684 794 
z
" transform="scale(0.015625)"/>
       </defs>
       <use xlink:href="#DejaVuSans-13"/>
       <use xlink:href="#DejaVuSans-11" transform="translate(63.625 0)"/>
       <use xlink:href="#DejaVuSans-13" transform="translate(95.40625 0)"/>
       <use xlink:href="#DejaVuSans-13" transform="translate(159.03125 0)"/>
      </g>
     </g>
    </g>
    <g id="ytick_2">
     <g id="line2d_13">
      <path d="M 50.466406 166.711236 
L 627.508831 166.711236 
" clip-path="url(#p7c82c1ca15)" style="fill: none; stroke-dasharray: 2.96,1.28; stroke-dashoffset: 0; stroke: #b0b0b0; stroke-opacity: 0.3; stroke-width: 0.8"/>
     </g>
     <g id="line2d_14">
      <g>
       <use xlink:href="#mc787290110" x="50.466406" y="166.711236" style="stroke: #000000; stroke-width: 0.8"/>
      </g>
     </g>
     <g id="text_12">
      <!-- 0.01 -->
      <g transform="translate(21.200781 170.510064) scale(0.1 -0.1)">
       <use xlink:href="#DejaVuSans-13"/>
       <use xlink:href="#DejaVuSans-11" transform="translate(63.625 0)"/>
       <use xlink:href="#DejaVuSans-13" transform="translate(95.40625 0)"/>
       <use xlink:href="#DejaVuSans-14" transform="translate(159.03125 0)"/>
      </g>
     </g>
    </g>
    <g id="ytick_3">
     <g id="line2d_15">
      <path d="M 50.466406 134.623878 
L 627.508831 134.623878 
" clip-path="url(#p7c82c1ca15)" style="fill: none; stroke-dasharray: 2.96,1.28; stroke-dashoffset: 0; stroke: #b0b0b0; stroke-opacity: 0.3; stroke-width: 0.8"/>
     </g>
     <g id="line2d_16">
      <g>
       <use xlink:href="#mc787290110" x="50.466406" y="134.623878" style="stroke: #000000; stroke-width: 0.8"/>
      </g>
     </g>
     <g id="text_13">
      <!-- 0.02 -->
      <g transform="translate(21.200781 138.422706) scale(0.1 -0.1)">
       <defs>
        <path id="DejaVuSans-15" d="M 1228 531 
L 3431 531 
L 3431 0 
L 469 0 
L 469 531 
Q 828 903 1448 1529 
Q 2069 2156 2228 2338 
Q 2531 2678 2651 2914 
Q 2772 3150 2772 3378 
Q 2772 3750 2511 3984 
Q 2250 4219 1831 4219 
Q 1534 4219 1204 4116 
Q 875 4013 500 3803 
L 500 4441 
Q 881 4594 1212 4672 
Q 1544 4750 1819 4750 
Q 2544 4750 2975 4387 
Q 3406 4025 3406 3419 
Q 3406 3131 3298 2873 
Q 3191 2616 2906 2266 
Q 2828 2175 2409 1742 
Q 1991 1309 1228 531 
z
" transform="scale(0.015625)"/>
       </defs>
       <use xlink:href="#DejaVuSans-13"/>
       <use xlink:href="#DejaVuSans-11" transform="translate(63.625 0)"/>
       <use xlink:href="#DejaVuSans-13" transform="translate(95.40625 0)"/>
       <use xlink:href="#DejaVuSans-15" transform="translate(159.03125 0)"/>
      </g>
     </g>
    </g>
    <g id="ytick_4">
     <g id="line2d_17">
      <path d="M 50.466406 102.53652 
L 627.508831 102.53652 
" clip-path="url(#p7c82c1ca15)" style="fill: none; stroke-dasharray: 2.96,1.28; stroke-dashoffset: 0; stroke: #b0b0b0; stroke-opacity: 0.3; stroke-width: 0.8"/>
     </g>
     <g id="line2d_18">
      <g>
       <use xlink:href="#mc787290110" x="50.466406" y="102.53652" style="stroke: #000000; stroke-width: 0.8"/>
      </g>
     </g>
     <g id="text_14">
      <!-- 0.03 -->
      <g transform="translate(21.200781 106.335348) scale(0.1 -0.1)">
       <defs>
        <path id="DejaVuSans-16" d="M 2597 2516 
Q 3050 2419 3304 2112 
Q 3559 1806 3559 1356 
Q 3559 666 3084 287 
Q 2609 -91 1734 -91 
Q 1441 -91 1130 -33 
Q 819 25 488 141 
L 488 750 
Q 750 597 1062 519 
Q 1375 441 1716 441 
Q 2309 441 2620 675 
Q 2931 909 2931 1356 
Q 2931 1769 2642 2001 
Q 2353 2234 1838 2234 
L 1294 2234 
L 1294 2753 
L 1863 2753 
Q 2328 2753 2575 2939 
Q 2822 3125 2822 3475 
Q 2822 3834 2567 4026 
Q 2313 4219 1838 4219 
Q 1578 4219 1281 4162 
Q 984 4106 628 3988 
L 628 4550 
Q 988 4650 1302 4700 
Q 1616 4750 1894 4750 
Q 2613 4750 3031 4423 
Q 3450 4097 3450 3541 
Q 3450 3153 3228 2886 
Q 3006 2619 2597 2516 
z
" transform="scale(0.015625)"/>
       </defs>
       <use xlink:href="#DejaVuSans-13"/>
       <use xlink:href="#DejaVuSans-11" transform="translate(63.625 0)"/>
       <use xlink:href="#DejaVuSans-13" transform="translate(95.40625 0)"/>
       <use xlink:href="#DejaVuSans-16" transform="translate(159.03125 0)"/>
      </g>
     </g>
    </g>
    <g id="ytick_5">
     <g id="line2d_19">
      <path d="M 50.466406 70.449162 
L 627.508831 70.449162 
" clip-path="url(#p7c82c1ca15)" style="fill: none; stroke-dasharray: 2.96,1.28; stroke-dashoffset: 0; stroke: #b0b0b0; stroke-opacity: 0.3; stroke-width: 0.8"/>
     </g>
     <g id="line2d_20">
      <g>
       <use xlink:href="#mc787290110" x="50.466406" y="70.449162" style="stroke: #000000; stroke-width: 0.8"/>
      </g>
     </g>
     <g id="text_15">
      <!-- 0.04 -->
      <g transform="translate(21.200781 74.24799) scale(0.1 -0.1)">
       <defs>
        <path id="DejaVuSans-17" d="M 2419 4116 
L 825 1625 
L 2419 1625 
L 2419 4116 
z
M 2253 4666 
L 3047 4666 
L 3047 1625 
L 3713 1625 
L 3713 1100 
L 3047 1100 
L 3047 0 
L 2419 0 
L 2419 1100 
L 313 1100 
L 313 1709 
L 2253 4666 
z
" transform="scale(0.015625)"/>
       </defs>
       <use xlink:href="#DejaVuSans-13"/>
       <use xlink:href="#DejaVuSans-11" transform="translate(63.625 0)"/>
       <use xlink:href="#DejaVuSans-13" transform="translate(95.40625 0)"/>
       <use xlink:href="#DejaVuSans-17" transform="translate(159.03125 0)"/>
      </g>
     </g>
    </g>
    <g id="ytick_6">
     <g id="line2d_21">
      <path d="M 50.466406 38.361804 
L 627.508831 38.361804 
" clip-path="url(#p7c82c1ca15)" style="fill: none; stroke-dasharray: 2.96,1.28; stroke-dashoffset: 0; stroke: #b0b0b0; stroke-opacity: 0.3; stroke-width: 0.8"/>
     </g>
     <g id="line2d_22">
      <g>
       <use xlink:href="#mc787290110" x="50.466406" y="38.361804" style="stroke: #000000; stroke-width: 0.8"/>
      </g>
     </g>
     <g id="text_16">
      <!-- 0.05 -->
      <g transform="translate(21.200781 42.160632) scale(0.1 -0.1)">
       <defs>
        <path id="DejaVuSans-18" d="M 691 4666 
L 3169 4666 
L 3169 4134 
L 1269 4134 
L 1269 2991 
Q 1406 3038 1543 3061 
Q 1681 3084 1819 3084 
Q 2600 3084 3056 2656 
Q 3513 2228 3513 1497 
Q 3513 744 3044 326 
Q 2575 -91 1722 -91 
Q 1428 -91 1123 -41 
Q 819 9 494 109 
L 494 744 
Q 775 591 1075 516 
Q 1375 441 1709 441 
Q 2250 441 2565 725 
Q 2881 1009 2881 1497 
Q 2881 1984 2565 2268 
Q 2250 2553 1709 2553 
Q 1456 2553 1204 2497 
Q 953 2441 691 2322 
L 691 4666 
z
" transform="scale(0.015625)"/>
       </defs>
       <use xlink:href="#DejaVuSans-13"/>
       <use xlink:href="#DejaVuSans-11" transform="translate(63.625 0)"/>
       <use xlink:href="#DejaVuSans-13" transform="translate(95.40625 0)"/>
       <use xlink:href="#DejaVuSans-18" transform="translate(159.03125 0)"/>
      </g>
     </g>
    </g>
    <g id="text_17">
     <!-- Unique visitors / day -->
     <g transform="translate(14.798438 161.866172) rotate(-90) scale(0.1 -0.1)">
      <defs>
       <path id="DejaVuSans-38" d="M 556 4666 
L 1191 4666 
L 1191 1831 
Q 1191 1081 1462 751 
Q 1734 422 2344 422 
Q 2950 422 3222 751 
Q 3494 1081 3494 1831 
L 3494 4666 
L 4128 4666 
L 4128 1753 
Q 4128 841 3676 375 
Q 3225 -91 2344 -91 
Q 1459 -91 1007 375 
Q 556 841 556 1753 
L 556 4666 
z
" transform="scale(0.015625)"/>
       <path id="DejaVuSans-4c" d="M 603 3500 
L 1178 3500 
L 1178 0 
L 603 0 
L 603 3500 
z
M 603 4863 
L 1178 4863 
L 1178 4134 
L 603 4134 
L 603 4863 
z
" transform="scale(0.015625)"/>
       <path id="DejaVuSans-54" d="M 947 1747 
Q 947 1113 1208 752 
Q 1469 391 1925 391 
Q 2381 391 2643 752 
Q 2906 1113 2906 1747 
Q 2906 2381 2643 2742 
Q 2381 3103 1925 3103 
Q 1469 3103 1208 2742 
Q 947 2381 947 1747 
z
M 2906 525 
Q 2725 213 2448 61 
Q 2172 -91 1784 -91 
Q 1150 -91 751 415 
Q 353 922 353 1747 
Q 353 2572 751 3078 
Q 1150 3584 1784 3584 
Q 2172 3584 2448 3432 
Q 2725 3281 2906 2969 
L 2906 3500 
L 3481 3500 
L 3481 -1331 
L 2906 -1331 
L 2906 525 
z
" transform="scale(0.015625)"/>
       <path id="DejaVuSans-56" d="M 2834 3397 
L 2834 2853 
Q 2591 2978 2328 3040 
Q 2066 3103 1784 3103 
Q 1356 3103 1142 2972 
Q 928 2841 928 2578 
Q 928 2378 1081 2264 
Q 1234 2150 1697 2047 
L 1894 2003 
Q 2506 1872 2764 1633 
Q 3022 1394 3022 966 
Q 3022 478 2636 193 
Q 2250 -91 1575 -91 
Q 1294 -91 989 -36 
Q 684 19 347 128 
L 347 722 
Q 666 556 975 473 
Q 1284 391 1588 391 
Q 1994 391 2212 530 
Q 2431 669 2431 922 
Q 2431 1156 2273 1281 
Q 2116 1406 1581 1522 
L 1381 1569 
Q 847 1681 609 1914 
Q 372 2147 372 2553 
Q 372 3047 722 3315 
Q 1072 3584 1716 3584 
Q 2034 3584 2315 3537 
Q 2597 3491 2834 3397 
z
" transform="scale(0.015625)"/>
       <path id="DejaVuSans-57" d="M 1172 4494 
L 1172 3500 
L 2356 3500 
L 2356 3053 
L 1172 3053 
L 1172 1153 
Q 1172 725 1289 603 
Q 1406 481 1766 481 
L 2356 481 
L 2356 0 
L 1766 0 
Q 1100 0 847 248 
Q 594 497 594 1153 
L 594 3053 
L 172 3053 
L 172 3500 
L 594 3500 
L 594 4494 
L 1172 4494 
z
" transform="scale(0.015625)"/>
       <path id="DejaVuSans-12" d="M 1625 4666 
L 2156 4666 
L 531 -594 
L 0 -594 
L 1625 4666 
z
" transform="scale(0.015625)"/>
       <path id="DejaVuSans-47" d="M 2906 2969 
L 2906 4863 
L 3481 4863 
L 3481 0 
L 2906 0 
L 2906 525 
Q 2725 213 2448 61 
Q 2172 -91 1784 -91 
Q 1150 -91 751 415 
Q 353 922 353 1747 
Q 353 2572 751 3078 
Q 1150 3584 1784 3584 
Q 2172 3584 2448 3432 
Q 2725 3281 2906 2969 
z
M 947 1747 
Q 947 1113 1208 752 
Q 1469 391 1925 391 
Q 2381 391 2643 752 
Q 2906 1113 2906 1747 
Q 2906 2381 2643 2742 
Q 2381 3103 1925 3103 
Q 1469 3103 1208 2742 
Q 947 2381 947 1747 
z
" transform="scale(0.015625)"/>
      </defs>
      <use xlink:href="#DejaVuSans-38"/>
      <use xlink:href="#DejaVuSans-51" transform="translate(73.1875 0)"/>
      <use xlink:href="#DejaVuSans-4c" transform="translate(136.5625 0)"/>
      <use xlink:href="#DejaVuSans-54" transform="translate(164.34375 0)"/>
      <use xlink:href="#DejaVuSans-58" transform="translate(227.828125 0)"/>
      <use xlink:href="#DejaVuSans-48" transform="translate(291.203125 0)"/>
      <use xlink:href="#DejaVuSans-3" transform="translate(352.734375 0)"/>
      <use xlink:href="#DejaVuSans-59" transform="translate(384.515625 0)"/>
      <use xlink:href="#DejaVuSans-4c" transform="translate(443.703125 0)"/>
      <use xlink:href="#DejaVuSans-56" transform="translate(471.484375 0)"/>
      <use xlink:href="#DejaVuSans-4c" transform="translate(523.578125 0)"/>
      <use xlink:href="#DejaVuSans-57" transform="translate(551.359375 0)"/>
      <use xlink:href="#DejaVuSans-52" transform="translate(590.5625 0)"/>
      <use xlink:href="#DejaVuSans-55" transform="translate(651.75 0)"/>
      <use xlink:href="#DejaVuSans-56" transform="translate(692.859375 0)"/>
      <use xlink:href="#DejaVuSans-3" transform="translate(744.953125 0)"/>
      <use xlink:href="#DejaVuSans-12" transform="translate(776.734375 0)"/>
      <use xlink:href="#DejaVuSans-3" transform="translate(810.421875 0)"/>
      <use xlink:href="#DejaVuSans-47" transform="translate(842.203125 0)"/>
      <use xlink:href="#DejaVuSans-44" transform="translate(905.6875 0)"/>
      <use xlink:href="#DejaVuSans-5c" transform="translate(966.96875 0)"/>
     </g>
    </g>
   </g>
   <g id="line2d_23">
    <path d="M 76.695607 198.798594 
L 601.27963 198.798594 
L 601.27963 198.798594 
" clip-path="url(#p7c82c1ca15)" style="fill: none; stroke: #f4900c; stroke-width: 2; stroke-linecap: square"/>
   </g>
   <g id="patch_3">
    <path d="M 50.466406 198.798594 
L 50.466406 22.318125 
" style="fill: none; stroke: #000000; stroke-width: 0.8; stroke-linejoin: miter; stroke-linecap: square"/>
   </g>
   <g id="patch_4">
    <path d="M 50.466406 198.798594 
L 627.508831 198.798594 
" style="fill: none; stroke: #000000; stroke-width: 0.8; stroke-linejoin: miter; stroke-linecap: square"/>
   </g>
   <g id="text_18">
    <!-- App visitors over time  ·  0 total -->
    <g transform="translate(50.466406 16.318125) scale(0.12 -0.12)">
     <defs>
      <path id="DejaVuSans-Bold-24" d="M 3419 850 
L 1538 850 
L 1241 0 
L 31 0 
L 1759 4666 
L 3194 4666 
L 4922 0 
L 3713 0 
L 3419 850 
z
M 1838 1716 
L 3116 1716 
L 2478 3572 
L 1838 1716 
z
" transform="scale(0.015625)"/>
      <path id="DejaVuSans-Bold-53" d="M 1656 506 
L 1656 -1331 
L 538 -1331 
L 538 3500 
L 1656 3500 
L 1656 2988 
Q 1888 3294 2169 3439 
Q 2450 3584 2816 3584 
Q 3463 3584 3878 3070 
Q 4294 2556 4294 1747 
Q 4294 938 3878 423 
Q 3463 -91 2816 -91 
Q 2450 -91 2169 54 
Q 1888 200 1656 506 
z
M 2400 2772 
Q 2041 2772 1848 2508 
Q 1656 2244 1656 1747 
Q 1656 1250 1848 986 
Q 2041 722 2400 722 
Q 2759 722 2948 984 
Q 3138 1247 3138 1747 
Q 3138 2247 2948 2509 
Q 2759 2772 2400 2772 
z
" transform="scale(0.015625)"/>
      <path id="DejaVuSans-Bold-3" transform="scale(0.015625)"/>
      <path id="DejaVuSans-Bold-59" d="M 97 3500 
L 1216 3500 
L 2088 1081 
L 2956 3500 
L 4078 3500 
L 2700 0 
L 1472 0 
L 97 3500 
z
" transform="scale(0.015625)"/>
      <path id="DejaVuSans-Bold-4c" d="M 538 3500 
L 1656 3500 
L 1656 0 
L 538 0 
L 538 3500 
z
M 538 4863 
L 1656 4863 
L 1656 3950 
L 538 3950 
L 538 4863 
z
" transform="scale(0.015625)"/>
      <path id="DejaVuSans-Bold-56" d="M 3272 3391 
L 3272 2541 
Q 2913 2691 2578 2766 
Q 2244 2841 1947 2841 
Q 1628 2841 1473 2761 
Q 1319 2681 1319 2516 
Q 1319 2381 1436 2309 
Q 1553 2238 1856 2203 
L 2053 2175 
Q 2913 2066 3209 1816 
Q 3506 1566 3506 1031 
Q 3506 472 3093 190 
Q 2681 -91 1863 -91 
Q 1516 -91 1145 -36 
Q 775 19 384 128 
L 384 978 
Q 719 816 1070 734 
Q 1422 653 1784 653 
Q 2113 653 2278 743 
Q 2444 834 2444 1013 
Q 2444 1163 2330 1236 
Q 2216 1309 1875 1350 
L 1678 1375 
Q 931 1469 631 1722 
Q 331 1975 331 2491 
Q 331 3047 712 3315 
Q 1094 3584 1881 3584 
Q 2191 3584 2531 3537 
Q 2872 3491 3272 3391 
z
" transform="scale(0.015625)"/>
      <path id="DejaVuSans-Bold-57" d="M 1759 4494 
L 1759 3500 
L 2913 3500 
L 2913 2700 
L 1759 2700 
L 1759 1216 
Q 1759 972 1856 886 
Q 1953 800 2241 800 
L 2816 800 
L 2816 0 
L 1856 0 
Q 1194 0 917 276 
Q 641 553 641 1216 
L 641 2700 
L 84 2700 
L 84 3500 
L 641 3500 
L 641 4494 
L 1759 4494 
z
" transform="scale(0.015625)"/>
      <path id="DejaVuSans-Bold-52" d="M 2203 2784 
Q 1831 2784 1636 2517 
Q 1441 2250 1441 1747 
Q 1441 1244 1636 976 
Q 1831 709 2203 709 
Q 2569 709 2762 976 
Q 2956 1244 2956 1747 
Q 2956 2250 2762 2517 
Q 2569 2784 2203 2784 
z
M 2203 3584 
Q 3106 3584 3614 3096 
Q 4122 2609 4122 1747 
Q 4122 884 3614 396 
Q 3106 -91 2203 -91 
Q 1297 -91 786 396 
Q 275 884 275 1747 
Q 275 2609 786 3096 
Q 1297 3584 2203 3584 
z
" transform="scale(0.015625)"/>
      <path id="DejaVuSans-Bold-55" d="M 3138 2547 
Q 2991 2616 2845 2648 
Q 2700 2681 2553 2681 
Q 2122 2681 1889 2404 
Q 1656 2128 1656 1613 
L 1656 0 
L 538 0 
L 538 3500 
L 1656 3500 
L 1656 2925 
Q 1872 3269 2151 3426 
Q 2431 3584 2822 3584 
Q 2878 3584 2943 3579 
Q 3009 3575 3134 3559 
L 3138 2547 
z
" transform="scale(0.015625)"/>
      <path id="DejaVuSans-Bold-48" d="M 4031 1759 
L 4031 1441 
L 1416 1441 
Q 1456 1047 1700 850 
Q 1944 653 2381 653 
Q 2734 653 3104 758 
Q 3475 863 3866 1075 
L 3866 213 
Q 3469 63 3072 -14 
Q 2675 -91 2278 -91 
Q 1328 -91 801 392 
Q 275 875 275 1747 
Q 275 2603 792 3093 
Q 1309 3584 2216 3584 
Q 3041 3584 3536 3087 
Q 4031 2591 4031 1759 
z
M 2881 2131 
Q 2881 2450 2695 2645 
Q 2509 2841 2209 2841 
Q 1884 2841 1681 2658 
Q 1478 2475 1428 2131 
L 2881 2131 
z
" transform="scale(0.015625)"/>
      <path id="DejaVuSans-Bold-50" d="M 3781 2919 
Q 3994 3244 4286 3414 
Q 4578 3584 4928 3584 
Q 5531 3584 5847 3212 
Q 6163 2841 6163 2131 
L 6163 0 
L 5038 0 
L 5038 1825 
Q 5041 1866 5042 1909 
Q 5044 1953 5044 2034 
Q 5044 2406 4934 2573 
Q 4825 2741 4581 2741 
Q 4263 2741 4089 2478 
Q 3916 2216 3909 1719 
L 3909 0 
L 2784 0 
L 2784 1825 
Q 2784 2406 2684 2573 
Q 2584 2741 2328 2741 
Q 2006 2741 1831 2477 
Q 1656 2213 1656 1722 
L 1656 0 
L 531 0 
L 531 3500 
L 1656 3500 
L 1656 2988 
Q 1863 3284 2130 3434 
Q 2397 3584 2719 3584 
Q 3081 3584 3359 3409 
Q 3638 3234 3781 2919 
z
" transform="scale(0.015625)"/>
      <path id="DejaVuSans-Bold-79" d="M 653 2828 
L 1778 2828 
L 1778 1619 
L 653 1619 
L 653 2828 
z
" transform="scale(0.015625)"/>
      <path id="DejaVuSans-Bold-13" d="M 2944 2338 
Q 2944 3213 2780 3570 
Q 2616 3928 2228 3928 
Q 1841 3928 1675 3570 
Q 1509 3213 1509 2338 
Q 1509 1453 1675 1090 
Q 1841 728 2228 728 
Q 2613 728 2778 1090 
Q 2944 1453 2944 2338 
z
M 4147 2328 
Q 4147 1169 3647 539 
Q 3147 -91 2228 -91 
Q 1306 -91 806 539 
Q 306 1169 306 2328 
Q 306 3491 806 4120 
Q 1306 4750 2228 4750 
Q 3147 4750 3647 4120 
Q 4147 3491 4147 2328 
z
" transform="scale(0.015625)"/>
      <path id="DejaVuSans-Bold-44" d="M 2106 1575 
Q 1756 1575 1579 1456 
Q 1403 1338 1403 1106 
Q 1403 894 1545 773 
Q 1688 653 1941 653 
Q 2256 653 2472 879 
Q 2688 1106 2688 1447 
L 2688 1575 
L 2106 1575 
z
M 3816 1997 
L 3816 0 
L 2688 0 
L 2688 519 
Q 2463 200 2181 54 
Q 1900 -91 1497 -91 
Q 953 -91 614 226 
Q 275 544 275 1050 
Q 275 1666 698 1953 
Q 1122 2241 2028 2241 
L 2688 2241 
L 2688 2328 
Q 2688 2594 2478 2717 
Q 2269 2841 1825 2841 
Q 1466 2841 1156 2769 
Q 847 2697 581 2553 
L 581 3406 
Q 941 3494 1303 3539 
Q 1666 3584 2028 3584 
Q 2975 3584 3395 3211 
Q 3816 2838 3816 1997 
z
" transform="scale(0.015625)"/>
      <path id="DejaVuSans-Bold-4f" d="M 538 4863 
L 1656 4863 
L 1656 0 
L 538 0 
L 538 4863 
z
" transform="scale(0.015625)"/>
     </defs>
     <use xlink:href="#DejaVuSans-Bold-24"/>
     <use xlink:href="#DejaVuSans-Bold-53" transform="translate(77.390625 0)"/>
     <use xlink:href="#DejaVuSans-Bold-53" transform="translate(148.96875 0)"/>
     <use xlink:href="#DejaVuSans-Bold-3" transform="translate(220.546875 0)"/>
     <use xlink:href="#DejaVuSans-Bold-59" transform="translate(255.359375 0)"/>
     <use xlink:href="#DejaVuSans-Bold-4c" transform="translate(320.546875 0)"/>
     <use xlink:href="#DejaVuSans-Bold-56" transform="translate(354.828125 0)"/>
     <use xlink:href="#DejaVuSans-Bold-4c" transform="translate(414.34375 0)"/>
     <use xlink:href="#DejaVuSans-Bold-57" transform="translate(448.625 0)"/>
     <use xlink:href="#DejaVuSans-Bold-52" transform="translate(496.421875 0)"/>
     <use xlink:href="#DejaVuSans-Bold-55" transform="translate(565.125 0)"/>
     <use xlink:href="#DejaVuSans-Bold-56" transform="translate(614.4375 0)"/>
     <use xlink:href="#DejaVuSans-Bold-3" transform="translate(673.953125 0)"/>
     <use xlink:href="#DejaVuSans-Bold-52" transform="translate(708.765625 0)"/>
     <use xlink:href="#DejaVuSans-Bold-59" transform="translate(777.46875 0)"/>
     <use xlink:href="#DejaVuSans-Bold-48" transform="translate(842.65625 0)"/>
     <use xlink:href="#DejaVuSans-Bold-55" transform="translate(910.484375 0)"/>
     <use xlink:href="#DejaVuSans-Bold-3" transform="translate(959.796875 0)"/>
     <use xlink:href="#DejaVuSans-Bold-57" transform="translate(994.609375 0)"/>
     <use xlink:href="#DejaVuSans-Bold-4c" transform="translate(1042.40625 0)"/>
     <use xlink:href="#DejaVuSans-Bold-50" transform="translate(1076.6875 0)"/>
     <use xlink:href="#DejaVuSans-Bold-48" transform="translate(1180.890625 0)"/>
     <use xlink:href="#DejaVuSans-Bold-3" transform="translate(1248.71875 0)"/>
     <use xlink:href="#DejaVuSans-Bold-3" transform="translate(1283.53125 0)"/>
     <use xlink:href="#DejaVuSans-Bold-79" transform="translate(1318.34375 0)"/>
     <use xlink:href="#DejaVuSans-Bold-3" transform="translate(1356.328125 0)"/>
     <use xlink:href="#DejaVuSans-Bold-3" transform="translate(1391.140625 0)"/>
     <use xlink:href="#DejaVuSans-Bold-13" transform="translate(1425.953125 0)"/>
     <use xlink:href="#DejaVuSans-Bold-3" transform="translate(1495.53125 0)"/>
     <use xlink:href="#DejaVuSans-Bold-57" transform="translate(1530.34375 0)"/>
     <use xlink:href="#DejaVuSans-Bold-52" transform="translate(1578.140625 0)"/>
     <use xlink:href="#DejaVuSans-Bold-57" transform="translate(1646.84375 0)"/>
     <use xlink:href="#DejaVuSans-Bold-44" transform="translate(1694.640625 0)"/>
     <use xlink:href="#DejaVuSans-Bold-4f" transform="translate(1762.125 0)"/>
    </g>
   </g>
  </g>
 </g>
 <defs>
  <clipPath id="p7c82c1ca15">
   <rect x="50.466406" y="22.318125" width="577.042425" height="176.480469"/>
  </clipPath>
 </defs>
</svg>
