<?xml version="1.0" encoding="utf-8" standalone="no"?>
<!DOCTYPE svg PUBLIC "-//W3C//DTD SVG 1.1//EN"
  "http://www.w3.org/Graphics/SVG/1.1/DTD/svg11.dtd">
<svg xmlns:xlink="http://www.w3.org/1999/xlink" width="638.419136pt" height="222.999375pt" viewBox="0 0 638.419136 222.999375" xmlns="http://www.w3.org/2000/svg" version="1.1">
 <metadata>
  <rdf:RDF xmlns:dc="http://purl.org/dc/elements/1.1/" xmlns:cc="http://creativecommons.org/ns#" xmlns:rdf="http://www.w3.org/1999/02/22-rdf-syntax-ns#">
   <cc:Work>
    <dc:type rdf:resource="http://purl.org/dc/dcmitype/StillImage"/>
    <dc:date>2026-06-15T12:42:18.878952</dc:date>
    <dc:format>image/svg+xml</dc:format>
    <dc:creator>
     <cc:Agent>
      <dc:title>Matplotlib v3.11.0, https://matplotlib.org/</dc:title>
     </cc:Agent>
    </dc:creator>
   </cc:Work>
  </rdf:RDF>
 </metadata>
 <defs>
  <style type="text/css">*{stroke-linejoin: round; stroke-linecap: butt}</style>
 </defs>
 <g id="figure_1">
  <g id="patch_1">
   <path d="M 0 222.999375 
L 638.419136 222.999375 
L 638.419136 0 
L 0 0 
z
" style="fill: #ffffff"/>
  </g>
  <g id="axes_1">
   <g id="patch_2">
    <path d="M 44.103906 198.798594 
L 627.746331 198.798594 
L 627.746331 22.318125 
L 44.103906 22.318125 
z
" style="fill: #ffffff"/>
   </g>
   <g id="FillBetweenPolyCollection_1">
    <defs>
     <path id="m8d74065769" d="M 70.633107 -24.200781 
L 70.633107 -24.200781 
L 71.634209 -24.200781 
L 72.635311 -24.200781 
L 73.636413 -24.200781 
L 74.637515 -24.200781 
L 75.638617 -24.200781 
L 76.639719 -24.200781 
L 77.640821 -24.200781 
L 78.641923 -24.200781 
L 79.643025 -24.200781 
L 80.644127 -24.200781 
L 81.645229 -24.200781 
L 82.646331 -24.200781 
L 83.647432 -24.200781 
L 84.648534 -24.200781 
L 85.649636 -24.200781 
L 86.650738 -24.200781 
L 87.65184 -24.200781 
L 88.652942 -24.200781 
L 89.654044 -24.200781 
L 90.655146 -24.200781 
L 91.656248 -24.200781 
L 92.65735 -24.200781 
L 93.658452 -24.200781 
L 94.659554 -24.200781 
L 95.660656 -24.200781 
L 96.661758 -24.200781 
L 97.662859 -24.200781 
L 98.663961 -24.200781 
L 99.665063 -24.200781 
L 100.666165 -24.200781 
L 101.667267 -24.200781 
L 102.668369 -24.200781 
L 103.669471 -24.200781 
L 104.670573 -24.200781 
L 105.671675 -24.200781 
L 106.672777 -24.200781 
L 107.673879 -24.200781 
L 108.674981 -24.200781 
L 109.676083 -24.200781 
L 110.677185 -24.200781 
L 111.678286 -24.200781 
L 112.679388 -24.200781 
L 113.68049 -24.200781 
L 114.681592 -24.200781 
L 115.682694 -24.200781 
L 116.683796 -24.200781 
L 117.684898 -24.200781 
L 118.686 -24.200781 
L 119.687102 -24.200781 
L 120.688204 -24.200781 
L 121.689306 -24.200781 
L 122.690408 -24.200781 
L 123.69151 -24.200781 
L 124.692612 -24.200781 
L 125.693713 -24.200781 
L 126.694815 -24.200781 
L 127.695917 -24.200781 
L 128.697019 -24.200781 
L 129.698121 -24.200781 
L 130.699223 -24.200781 
L 131.700325 -24.200781 
L 132.701427 -24.200781 
L 133.702529 -24.200781 
L 134.703631 -24.200781 
L 135.704733 -24.200781 
L 136.705835 -24.200781 
L 137.706937 -24.200781 
L 138.708039 -24.200781 
L 139.70914 -24.200781 
L 140.710242 -24.200781 
L 141.711344 -24.200781 
L 142.712446 -24.200781 
L 143.713548 -24.200781 
L 144.71465 -24.200781 
L 145.715752 -24.200781 
L 146.716854 -24.200781 
L 147.717956 -24.200781 
L 148.719058 -24.200781 
L 149.72016 -24.200781 
L 150.721262 -24.200781 
L 151.722364 -24.200781 
L 152.723466 -24.200781 
L 153.724567 -24.200781 
L 154.725669 -24.200781 
L 155.726771 -24.200781 
L 156.727873 -24.200781 
L 157.728975 -24.200781 
L 158.730077 -24.200781 
L 159.731179 -24.200781 
L 160.732281 -24.200781 
L 161.733383 -24.200781 
L 162.734485 -24.200781 
L 163.735587 -24.200781 
L 164.736689 -24.200781 
L 165.737791 -24.200781 
L 166.738893 -24.200781 
L 167.739994 -24.200781 
L 168.741096 -24.200781 
L 169.742198 -24.200781 
L 170.7433 -24.200781 
L 171.744402 -24.200781 
L 172.745504 -24.200781 
L 173.746606 -24.200781 
L 174.747708 -24.200781 
L 175.74881 -24.200781 
L 176.749912 -24.200781 
L 177.751014 -24.200781 
L 178.752116 -24.200781 
L 179.753218 -24.200781 
L 180.75432 -24.200781 
L 181.755422 -24.200781 
L 182.756523 -24.200781 
L 183.757625 -24.200781 
L 184.758727 -24.200781 
L 185.759829 -24.200781 
L 186.760931 -24.200781 
L 187.762033 -24.200781 
L 188.763135 -24.200781 
L 189.764237 -24.200781 
L 190.765339 -24.200781 
L 191.766441 -24.200781 
L 192.767543 -24.200781 
L 193.768645 -24.200781 
L 194.769747 -24.200781 
L 195.770849 -24.200781 
L 196.77195 -24.200781 
L 197.773052 -24.200781 
L 198.774154 -24.200781 
L 199.775256 -24.200781 
L 200.776358 -24.200781 
L 201.77746 -24.200781 
L 202.778562 -24.200781 
L 203.779664 -24.200781 
L 204.780766 -24.200781 
L 205.781868 -24.200781 
L 206.78297 -24.200781 
L 207.784072 -24.200781 
L 208.785174 -24.200781 
L 209.786276 -24.200781 
L 210.787377 -24.200781 
L 211.788479 -24.200781 
L 212.789581 -24.200781 
L 213.790683 -24.200781 
L 214.791785 -24.200781 
L 215.792887 -24.200781 
L 216.793989 -24.200781 
L 217.795091 -24.200781 
L 218.796193 -24.200781 
L 219.797295 -24.200781 
L 220.798397 -24.200781 
L 221.799499 -24.200781 
L 222.800601 -24.200781 
L 223.801703 -24.200781 
L 224.802804 -24.200781 
L 225.803906 -24.200781 
L 226.805008 -24.200781 
L 227.80611 -24.200781 
L 228.807212 -24.200781 
L 229.808314 -24.200781 
L 230.809416 -24.200781 
L 231.810518 -24.200781 
L 232.81162 -24.200781 
L 233.812722 -24.200781 
L 234.813824 -24.200781 
L 235.814926 -24.200781 
L 236.816028 -24.200781 
L 237.81713 -24.200781 
L 238.818231 -24.200781 
L 239.819333 -24.200781 
L 240.820435 -24.200781 
L 241.821537 -24.200781 
L 242.822639 -24.200781 
L 243.823741 -24.200781 
L 244.824843 -24.200781 
L 245.825945 -24.200781 
L 246.827047 -24.200781 
L 247.828149 -24.200781 
L 248.829251 -24.200781 
L 249.830353 -24.200781 
L 250.831455 -24.200781 
L 251.832557 -24.200781 
L 252.833658 -24.200781 
L 253.83476 -24.200781 
L 254.835862 -24.200781 
L 255.836964 -24.200781 
L 256.838066 -24.200781 
L 257.839168 -24.200781 
L 258.84027 -24.200781 
L 259.841372 -24.200781 
L 260.842474 -24.200781 
L 261.843576 -24.200781 
L 262.844678 -24.200781 
L 263.84578 -24.200781 
L 264.846882 -24.200781 
L 265.847984 -24.200781 
L 266.849085 -24.200781 
L 267.850187 -24.200781 
L 268.851289 -24.200781 
L 269.852391 -24.200781 
L 270.853493 -24.200781 
L 271.854595 -24.200781 
L 272.855697 -24.200781 
L 273.856799 -24.200781 
L 274.857901 -24.200781 
L 275.859003 -24.200781 
L 276.860105 -24.200781 
L 277.861207 -24.200781 
L 278.862309 -24.200781 
L 279.863411 -24.200781 
L 280.864512 -24.200781 
L 281.865614 -24.200781 
L 282.866716 -24.200781 
L 283.867818 -24.200781 
L 284.86892 -24.200781 
L 285.870022 -24.200781 
L 286.871124 -24.200781 
L 287.872226 -24.200781 
L 288.873328 -24.200781 
L 289.87443 -24.200781 
L 290.875532 -24.200781 
L 291.876634 -24.200781 
L 292.877736 -24.200781 
L 293.878838 -24.200781 
L 294.879939 -24.200781 
L 295.881041 -24.200781 
L 296.882143 -24.200781 
L 297.883245 -24.200781 
L 298.884347 -24.200781 
L 299.885449 -24.200781 
L 300.886551 -24.200781 
L 301.887653 -24.200781 
L 302.888755 -24.200781 
L 303.889857 -24.200781 
L 304.890959 -24.200781 
L 305.892061 -24.200781 
L 306.893163 -24.200781 
L 307.894265 -24.200781 
L 308.895367 -24.200781 
L 309.896468 -24.200781 
L 310.89757 -24.200781 
L 311.898672 -24.200781 
L 312.899774 -24.200781 
L 313.900876 -24.200781 
L 314.901978 -24.200781 
L 315.90308 -24.200781 
L 316.904182 -24.200781 
L 317.905284 -24.200781 
L 318.906386 -24.200781 
L 319.907488 -24.200781 
L 320.90859 -24.200781 
L 321.909692 -24.200781 
L 322.910794 -24.200781 
L 323.911895 -24.200781 
L 324.912997 -24.200781 
L 325.914099 -24.200781 
L 326.915201 -24.200781 
L 327.916303 -24.200781 
L 328.917405 -24.200781 
L 329.918507 -24.200781 
L 330.919609 -24.200781 
L 331.920711 -24.200781 
L 332.921813 -24.200781 
L 333.922915 -24.200781 
L 334.924017 -24.200781 
L 335.925119 -24.200781 
L 336.926221 -24.200781 
L 337.927322 -24.200781 
L 338.928424 -24.200781 
L 339.929526 -24.200781 
L 340.930628 -24.200781 
L 341.93173 -24.200781 
L 342.932832 -24.200781 
L 343.933934 -24.200781 
L 344.935036 -24.200781 
L 345.936138 -24.200781 
L 346.93724 -24.200781 
L 347.938342 -24.200781 
L 348.939444 -24.200781 
L 349.940546 -24.200781 
L 350.941648 -24.200781 
L 351.942749 -24.200781 
L 352.943851 -24.200781 
L 353.944953 -24.200781 
L 354.946055 -24.200781 
L 355.947157 -24.200781 
L 356.948259 -24.200781 
L 357.949361 -24.200781 
L 358.950463 -24.200781 
L 359.951565 -24.200781 
L 360.952667 -24.200781 
L 361.953769 -24.200781 
L 362.954871 -24.200781 
L 363.955973 -24.200781 
L 364.957075 -24.200781 
L 365.958176 -24.200781 
L 366.959278 -24.200781 
L 367.96038 -24.200781 
L 368.961482 -24.200781 
L 369.962584 -24.200781 
L 370.963686 -24.200781 
L 371.964788 -24.200781 
L 372.96589 -24.200781 
L 373.966992 -24.200781 
L 374.968094 -24.200781 
L 375.969196 -24.200781 
L 376.970298 -24.200781 
L 377.9714 -24.200781 
L 378.972502 -24.200781 
L 379.973603 -24.200781 
L 380.974705 -24.200781 
L 381.975807 -24.200781 
L 382.976909 -24.200781 
L 383.978011 -24.200781 
L 384.979113 -24.200781 
L 385.980215 -24.200781 
L 386.981317 -24.200781 
L 387.982419 -24.200781 
L 388.983521 -24.200781 
L 389.984623 -24.200781 
L 390.985725 -24.200781 
L 391.986827 -24.200781 
L 392.987929 -24.200781 
L 393.98903 -24.200781 
L 394.990132 -24.200781 
L 395.991234 -24.200781 
L 396.992336 -24.200781 
L 397.993438 -24.200781 
L 398.99454 -24.200781 
L 399.995642 -24.200781 
L 400.996744 -24.200781 
L 401.997846 -24.200781 
L 402.998948 -24.200781 
L 404.00005 -24.200781 
L 405.001152 -24.200781 
L 406.002254 -24.200781 
L 407.003356 -24.200781 
L 408.004457 -24.200781 
L 409.005559 -24.200781 
L 410.006661 -24.200781 
L 411.007763 -24.200781 
L 412.008865 -24.200781 
L 413.009967 -24.200781 
L 414.011069 -24.200781 
L 415.012171 -24.200781 
L 416.013273 -24.200781 
L 417.014375 -24.200781 
L 418.015477 -24.200781 
L 419.016579 -24.200781 
L 420.017681 -24.200781 
L 421.018783 -24.200781 
L 422.019885 -24.200781 
L 423.020986 -24.200781 
L 424.022088 -24.200781 
L 425.02319 -24.200781 
L 426.024292 -24.200781 
L 427.025394 -24.200781 
L 428.026496 -24.200781 
L 429.027598 -24.200781 
L 430.0287 -24.200781 
L 431.029802 -24.200781 
L 432.030904 -24.200781 
L 433.032006 -24.200781 
L 434.033108 -24.200781 
L 435.03421 -24.200781 
L 436.035312 -24.200781 
L 437.036413 -24.200781 
L 438.037515 -24.200781 
L 439.038617 -24.200781 
L 440.039719 -24.200781 
L 441.040821 -24.200781 
L 442.041923 -24.200781 
L 443.043025 -24.200781 
L 444.044127 -24.200781 
L 445.045229 -24.200781 
L 446.046331 -24.200781 
L 447.047433 -24.200781 
L 448.048535 -24.200781 
L 449.049637 -24.200781 
L 450.050739 -24.200781 
L 451.05184 -24.200781 
L 452.052942 -24.200781 
L 453.054044 -24.200781 
L 454.055146 -24.200781 
L 455.056248 -24.200781 
L 456.05735 -24.200781 
L 457.058452 -24.200781 
L 458.059554 -24.200781 
L 459.060656 -24.200781 
L 460.061758 -24.200781 
L 461.06286 -24.200781 
L 462.063962 -24.200781 
L 463.065064 -24.200781 
L 464.066166 -24.200781 
L 465.067267 -24.200781 
L 466.068369 -24.200781 
L 467.069471 -24.200781 
L 468.070573 -24.200781 
L 469.071675 -24.200781 
L 470.072777 -24.200781 
L 471.073879 -24.200781 
L 472.074981 -24.200781 
L 473.076083 -24.200781 
L 474.077185 -24.200781 
L 475.078287 -24.200781 
L 476.079389 -24.200781 
L 477.080491 -24.200781 
L 478.081593 -24.200781 
L 479.082694 -24.200781 
L 480.083796 -24.200781 
L 481.084898 -24.200781 
L 482.086 -24.200781 
L 483.087102 -24.200781 
L 484.088204 -24.200781 
L 485.089306 -24.200781 
L 486.090408 -24.200781 
L 487.09151 -24.200781 
L 488.092612 -24.200781 
L 489.093714 -24.200781 
L 490.094816 -24.200781 
L 491.095918 -24.200781 
L 492.09702 -24.200781 
L 493.098121 -24.200781 
L 494.099223 -24.200781 
L 495.100325 -24.200781 
L 496.101427 -24.200781 
L 497.102529 -24.200781 
L 498.103631 -24.200781 
L 499.104733 -24.200781 
L 500.105835 -24.200781 
L 501.106937 -24.200781 
L 502.108039 -24.200781 
L 503.109141 -24.200781 
L 504.110243 -24.200781 
L 505.111345 -24.200781 
L 506.112447 -24.200781 
L 507.113548 -24.200781 
L 508.11465 -24.200781 
L 509.115752 -24.200781 
L 510.116854 -24.200781 
L 511.117956 -24.200781 
L 512.119058 -24.200781 
L 513.12016 -24.200781 
L 514.121262 -24.200781 
L 515.122364 -24.200781 
L 516.123466 -24.200781 
L 517.124568 -24.200781 
L 518.12567 -24.200781 
L 519.126772 -24.200781 
L 520.127874 -24.200781 
L 521.128975 -24.200781 
L 522.130077 -24.200781 
L 523.131179 -24.200781 
L 524.132281 -24.200781 
L 525.133383 -24.200781 
L 526.134485 -24.200781 
L 527.135587 -24.200781 
L 528.136689 -24.200781 
L 529.137791 -24.200781 
L 530.138893 -24.200781 
L 531.139995 -24.200781 
L 532.141097 -24.200781 
L 533.142199 -24.200781 
L 534.143301 -24.200781 
L 535.144402 -24.200781 
L 536.145504 -24.200781 
L 537.146606 -24.200781 
L 538.147708 -24.200781 
L 539.14881 -24.200781 
L 540.149912 -24.200781 
L 541.151014 -24.200781 
L 542.152116 -24.200781 
L 543.153218 -24.200781 
L 544.15432 -24.200781 
L 545.155422 -24.200781 
L 546.156524 -24.200781 
L 547.157626 -24.200781 
L 548.158728 -24.200781 
L 549.15983 -24.200781 
L 550.160931 -24.200781 
L 551.162033 -24.200781 
L 552.163135 -24.200781 
L 553.164237 -24.200781 
L 554.165339 -24.200781 
L 555.166441 -24.200781 
L 556.167543 -24.200781 
L 557.168645 -24.200781 
L 558.169747 -24.200781 
L 559.170849 -24.200781 
L 560.171951 -24.200781 
L 561.173053 -24.200781 
L 562.174155 -24.200781 
L 563.175257 -24.200781 
L 564.176358 -24.200781 
L 565.17746 -24.200781 
L 566.178562 -24.200781 
L 567.179664 -24.200781 
L 568.180766 -24.200781 
L 569.181868 -24.200781 
L 570.18297 -24.200781 
L 571.184072 -24.200781 
L 572.185174 -24.200781 
L 573.186276 -24.200781 
L 574.187378 -24.200781 
L 575.18848 -24.200781 
L 576.189582 -24.200781 
L 577.190684 -24.200781 
L 578.191785 -24.200781 
L 579.192887 -24.200781 
L 580.193989 -24.200781 
L 581.195091 -24.200781 
L 582.196193 -24.200781 
L 583.197295 -24.200781 
L 584.198397 -24.200781 
L 585.199499 -24.200781 
L 586.200601 -24.200781 
L 587.201703 -24.200781 
L 588.202805 -24.200781 
L 589.203907 -24.200781 
L 590.205009 -24.200781 
L 591.206111 -24.200781 
L 592.207212 -24.200781 
L 593.208314 -24.200781 
L 594.209416 -24.200781 
L 595.210518 -24.200781 
L 596.21162 -24.200781 
L 597.212722 -24.200781 
L 598.213824 -24.200781 
L 599.214926 -24.200781 
L 600.216028 -24.200781 
L 601.21713 -192.277418 
L 601.21713 -24.200781 
L 601.21713 -24.200781 
L 600.216028 -24.200781 
L 599.214926 -24.200781 
L 598.213824 -24.200781 
L 597.212722 -24.200781 
L 596.21162 -24.200781 
L 595.210518 -24.200781 
L 594.209416 -24.200781 
L 593.208314 -24.200781 
L 592.207212 -24.200781 
L 591.206111 -24.200781 
L 590.205009 -24.200781 
L 589.203907 -24.200781 
L 588.202805 -24.200781 
L 587.201703 -24.200781 
L 586.200601 -24.200781 
L 585.199499 -24.200781 
L 584.198397 -24.200781 
L 583.197295 -24.200781 
L 582.196193 -24.200781 
L 581.195091 -24.200781 
L 580.193989 -24.200781 
L 579.192887 -24.200781 
L 578.191785 -24.200781 
L 577.190684 -24.200781 
L 576.189582 -24.200781 
L 575.18848 -24.200781 
L 574.187378 -24.200781 
L 573.186276 -24.200781 
L 572.185174 -24.200781 
L 571.184072 -24.200781 
L 570.18297 -24.200781 
L 569.181868 -24.200781 
L 568.180766 -24.200781 
L 567.179664 -24.200781 
L 566.178562 -24.200781 
L 565.17746 -24.200781 
L 564.176358 -24.200781 
L 563.175257 -24.200781 
L 562.174155 -24.200781 
L 561.173053 -24.200781 
L 560.171951 -24.200781 
L 559.170849 -24.200781 
L 558.169747 -24.200781 
L 557.168645 -24.200781 
L 556.167543 -24.200781 
L 555.166441 -24.200781 
L 554.165339 -24.200781 
L 553.164237 -24.200781 
L 552.163135 -24.200781 
L 551.162033 -24.200781 
L 550.160931 -24.200781 
L 549.15983 -24.200781 
L 548.158728 -24.200781 
L 547.157626 -24.200781 
L 546.156524 -24.200781 
L 545.155422 -24.200781 
L 544.15432 -24.200781 
L 543.153218 -24.200781 
L 542.152116 -24.200781 
L 541.151014 -24.200781 
L 540.149912 -24.200781 
L 539.14881 -24.200781 
L 538.147708 -24.200781 
L 537.146606 -24.200781 
L 536.145504 -24.200781 
L 535.144402 -24.200781 
L 534.143301 -24.200781 
L 533.142199 -24.200781 
L 532.141097 -24.200781 
L 531.139995 -24.200781 
L 530.138893 -24.200781 
L 529.137791 -24.200781 
L 528.136689 -24.200781 
L 527.135587 -24.200781 
L 526.134485 -24.200781 
L 525.133383 -24.200781 
L 524.132281 -24.200781 
L 523.131179 -24.200781 
L 522.130077 -24.200781 
L 521.128975 -24.200781 
L 520.127874 -24.200781 
L 519.126772 -24.200781 
L 518.12567 -24.200781 
L 517.124568 -24.200781 
L 516.123466 -24.200781 
L 515.122364 -24.200781 
L 514.121262 -24.200781 
L 513.12016 -24.200781 
L 512.119058 -24.200781 
L 511.117956 -24.200781 
L 510.116854 -24.200781 
L 509.115752 -24.200781 
L 508.11465 -24.200781 
L 507.113548 -24.200781 
L 506.112447 -24.200781 
L 505.111345 -24.200781 
L 504.110243 -24.200781 
L 503.109141 -24.200781 
L 502.108039 -24.200781 
L 501.106937 -24.200781 
L 500.105835 -24.200781 
L 499.104733 -24.200781 
L 498.103631 -24.200781 
L 497.102529 -24.200781 
L 496.101427 -24.200781 
L 495.100325 -24.200781 
L 494.099223 -24.200781 
L 493.098121 -24.200781 
L 492.09702 -24.200781 
L 491.095918 -24.200781 
L 490.094816 -24.200781 
L 489.093714 -24.200781 
L 488.092612 -24.200781 
L 487.09151 -24.200781 
L 486.090408 -24.200781 
L 485.089306 -24.200781 
L 484.088204 -24.200781 
L 483.087102 -24.200781 
L 482.086 -24.200781 
L 481.084898 -24.200781 
L 480.083796 -24.200781 
L 479.082694 -24.200781 
L 478.081593 -24.200781 
L 477.080491 -24.200781 
L 476.079389 -24.200781 
L 475.078287 -24.200781 
L 474.077185 -24.200781 
L 473.076083 -24.200781 
L 472.074981 -24.200781 
L 471.073879 -24.200781 
L 470.072777 -24.200781 
L 469.071675 -24.200781 
L 468.070573 -24.200781 
L 467.069471 -24.200781 
L 466.068369 -24.200781 
L 465.067267 -24.200781 
L 464.066166 -24.200781 
L 463.065064 -24.200781 
L 462.063962 -24.200781 
L 461.06286 -24.200781 
L 460.061758 -24.200781 
L 459.060656 -24.200781 
L 458.059554 -24.200781 
L 457.058452 -24.200781 
L 456.05735 -24.200781 
L 455.056248 -24.200781 
L 454.055146 -24.200781 
L 453.054044 -24.200781 
L 452.052942 -24.200781 
L 451.05184 -24.200781 
L 450.050739 -24.200781 
L 449.049637 -24.200781 
L 448.048535 -24.200781 
L 447.047433 -24.200781 
L 446.046331 -24.200781 
L 445.045229 -24.200781 
L 444.044127 -24.200781 
L 443.043025 -24.200781 
L 442.041923 -24.200781 
L 441.040821 -24.200781 
L 440.039719 -24.200781 
L 439.038617 -24.200781 
L 438.037515 -24.200781 
L 437.036413 -24.200781 
L 436.035312 -24.200781 
L 435.03421 -24.200781 
L 434.033108 -24.200781 
L 433.032006 -24.200781 
L 432.030904 -24.200781 
L 431.029802 -24.200781 
L 430.0287 -24.200781 
L 429.027598 -24.200781 
L 428.026496 -24.200781 
L 427.025394 -24.200781 
L 426.024292 -24.200781 
L 425.02319 -24.200781 
L 424.022088 -24.200781 
L 423.020986 -24.200781 
L 422.019885 -24.200781 
L 421.018783 -24.200781 
L 420.017681 -24.200781 
L 419.016579 -24.200781 
L 418.015477 -24.200781 
L 417.014375 -24.200781 
L 416.013273 -24.200781 
L 415.012171 -24.200781 
L 414.011069 -24.200781 
L 413.009967 -24.200781 
L 412.008865 -24.200781 
L 411.007763 -24.200781 
L 410.006661 -24.200781 
L 409.005559 -24.200781 
L 408.004457 -24.200781 
L 407.003356 -24.200781 
L 406.002254 -24.200781 
L 405.001152 -24.200781 
L 404.00005 -24.200781 
L 402.998948 -24.200781 
L 401.997846 -24.200781 
L 400.996744 -24.200781 
L 399.995642 -24.200781 
L 398.99454 -24.200781 
L 397.993438 -24.200781 
L 396.992336 -24.200781 
L 395.991234 -24.200781 
L 394.990132 -24.200781 
L 393.98903 -24.200781 
L 392.987929 -24.200781 
L 391.986827 -24.200781 
L 390.985725 -24.200781 
L 389.984623 -24.200781 
L 388.983521 -24.200781 
L 387.982419 -24.200781 
L 386.981317 -24.200781 
L 385.980215 -24.200781 
L 384.979113 -24.200781 
L 383.978011 -24.200781 
L 382.976909 -24.200781 
L 381.975807 -24.200781 
L 380.974705 -24.200781 
L 379.973603 -24.200781 
L 378.972502 -24.200781 
L 377.9714 -24.200781 
L 376.970298 -24.200781 
L 375.969196 -24.200781 
L 374.968094 -24.200781 
L 373.966992 -24.200781 
L 372.96589 -24.200781 
L 371.964788 -24.200781 
L 370.963686 -24.200781 
L 369.962584 -24.200781 
L 368.961482 -24.200781 
L 367.96038 -24.200781 
L 366.959278 -24.200781 
L 365.958176 -24.200781 
L 364.957075 -24.200781 
L 363.955973 -24.200781 
L 362.954871 -24.200781 
L 361.953769 -24.200781 
L 360.952667 -24.200781 
L 359.951565 -24.200781 
L 358.950463 -24.200781 
L 357.949361 -24.200781 
L 356.948259 -24.200781 
L 355.947157 -24.200781 
L 354.946055 -24.200781 
L 353.944953 -24.200781 
L 352.943851 -24.200781 
L 351.942749 -24.200781 
L 350.941648 -24.200781 
L 349.940546 -24.200781 
L 348.939444 -24.200781 
L 347.938342 -24.200781 
L 346.93724 -24.200781 
L 345.936138 -24.200781 
L 344.935036 -24.200781 
L 343.933934 -24.200781 
L 342.932832 -24.200781 
L 341.93173 -24.200781 
L 340.930628 -24.200781 
L 339.929526 -24.200781 
L 338.928424 -24.200781 
L 337.927322 -24.200781 
L 336.926221 -24.200781 
L 335.925119 -24.200781 
L 334.924017 -24.200781 
L 333.922915 -24.200781 
L 332.921813 -24.200781 
L 331.920711 -24.200781 
L 330.919609 -24.200781 
L 329.918507 -24.200781 
L 328.917405 -24.200781 
L 327.916303 -24.200781 
L 326.915201 -24.200781 
L 325.914099 -24.200781 
L 324.912997 -24.200781 
L 323.911895 -24.200781 
L 322.910794 -24.200781 
L 321.909692 -24.200781 
L 320.90859 -24.200781 
L 319.907488 -24.200781 
L 318.906386 -24.200781 
L 317.905284 -24.200781 
L 316.904182 -24.200781 
L 315.90308 -24.200781 
L 314.901978 -24.200781 
L 313.900876 -24.200781 
L 312.899774 -24.200781 
L 311.898672 -24.200781 
L 310.89757 -24.200781 
L 309.896468 -24.200781 
L 308.895367 -24.200781 
L 307.894265 -24.200781 
L 306.893163 -24.200781 
L 305.892061 -24.200781 
L 304.890959 -24.200781 
L 303.889857 -24.200781 
L 302.888755 -24.200781 
L 301.887653 -24.200781 
L 300.886551 -24.200781 
L 299.885449 -24.200781 
L 298.884347 -24.200781 
L 297.883245 -24.200781 
L 296.882143 -24.200781 
L 295.881041 -24.200781 
L 294.879939 -24.200781 
L 293.878838 -24.200781 
L 292.877736 -24.200781 
L 291.876634 -24.200781 
L 290.875532 -24.200781 
L 289.87443 -24.200781 
L 288.873328 -24.200781 
L 287.872226 -24.200781 
L 286.871124 -24.200781 
L 285.870022 -24.200781 
L 284.86892 -24.200781 
L 283.867818 -24.200781 
L 282.866716 -24.200781 
L 281.865614 -24.200781 
L 280.864512 -24.200781 
L 279.863411 -24.200781 
L 278.862309 -24.200781 
L 277.861207 -24.200781 
L 276.860105 -24.200781 
L 275.859003 -24.200781 
L 274.857901 -24.200781 
L 273.856799 -24.200781 
L 272.855697 -24.200781 
L 271.854595 -24.200781 
L 270.853493 -24.200781 
L 269.852391 -24.200781 
L 268.851289 -24.200781 
L 267.850187 -24.200781 
L 266.849085 -24.200781 
L 265.847984 -24.200781 
L 264.846882 -24.200781 
L 263.84578 -24.200781 
L 262.844678 -24.200781 
L 261.843576 -24.200781 
L 260.842474 -24.200781 
L 259.841372 -24.200781 
L 258.84027 -24.200781 
L 257.839168 -24.200781 
L 256.838066 -24.200781 
L 255.836964 -24.200781 
L 254.835862 -24.200781 
L 253.83476 -24.200781 
L 252.833658 -24.200781 
L 251.832557 -24.200781 
L 250.831455 -24.200781 
L 249.830353 -24.200781 
L 248.829251 -24.200781 
L 247.828149 -24.200781 
L 246.827047 -24.200781 
L 245.825945 -24.200781 
L 244.824843 -24.200781 
L 243.823741 -24.200781 
L 242.822639 -24.200781 
L 241.821537 -24.200781 
L 240.820435 -24.200781 
L 239.819333 -24.200781 
L 238.818231 -24.200781 
L 237.81713 -24.200781 
L 236.816028 -24.200781 
L 235.814926 -24.200781 
L 234.813824 -24.200781 
L 233.812722 -24.200781 
L 232.81162 -24.200781 
L 231.810518 -24.200781 
L 230.809416 -24.200781 
L 229.808314 -24.200781 
L 228.807212 -24.200781 
L 227.80611 -24.200781 
L 226.805008 -24.200781 
L 225.803906 -24.200781 
L 224.802804 -24.200781 
L 223.801703 -24.200781 
L 222.800601 -24.200781 
L 221.799499 -24.200781 
L 220.798397 -24.200781 
L 219.797295 -24.200781 
L 218.796193 -24.200781 
L 217.795091 -24.200781 
L 216.793989 -24.200781 
L 215.792887 -24.200781 
L 214.791785 -24.200781 
L 213.790683 -24.200781 
L 212.789581 -24.200781 
L 211.788479 -24.200781 
L 210.787377 -24.200781 
L 209.786276 -24.200781 
L 208.785174 -24.200781 
L 207.784072 -24.200781 
L 206.78297 -24.200781 
L 205.781868 -24.200781 
L 204.780766 -24.200781 
L 203.779664 -24.200781 
L 202.778562 -24.200781 
L 201.77746 -24.200781 
L 200.776358 -24.200781 
L 199.775256 -24.200781 
L 198.774154 -24.200781 
L 197.773052 -24.200781 
L 196.77195 -24.200781 
L 195.770849 -24.200781 
L 194.769747 -24.200781 
L 193.768645 -24.200781 
L 192.767543 -24.200781 
L 191.766441 -24.200781 
L 190.765339 -24.200781 
L 189.764237 -24.200781 
L 188.763135 -24.200781 
L 187.762033 -24.200781 
L 186.760931 -24.200781 
L 185.759829 -24.200781 
L 184.758727 -24.200781 
L 183.757625 -24.200781 
L 182.756523 -24.200781 
L 181.755422 -24.200781 
L 180.75432 -24.200781 
L 179.753218 -24.200781 
L 178.752116 -24.200781 
L 177.751014 -24.200781 
L 176.749912 -24.200781 
L 175.74881 -24.200781 
L 174.747708 -24.200781 
L 173.746606 -24.200781 
L 172.745504 -24.200781 
L 171.744402 -24.200781 
L 170.7433 -24.200781 
L 169.742198 -24.200781 
L 168.741096 -24.200781 
L 167.739994 -24.200781 
L 166.738893 -24.200781 
L 165.737791 -24.200781 
L 164.736689 -24.200781 
L 163.735587 -24.200781 
L 162.734485 -24.200781 
L 161.733383 -24.200781 
L 160.732281 -24.200781 
L 159.731179 -24.200781 
L 158.730077 -24.200781 
L 157.728975 -24.200781 
L 156.727873 -24.200781 
L 155.726771 -24.200781 
L 154.725669 -24.200781 
L 153.724567 -24.200781 
L 152.723466 -24.200781 
L 151.722364 -24.200781 
L 150.721262 -24.200781 
L 149.72016 -24.200781 
L 148.719058 -24.200781 
L 147.717956 -24.200781 
L 146.716854 -24.200781 
L 145.715752 -24.200781 
L 144.71465 -24.200781 
L 143.713548 -24.200781 
L 142.712446 -24.200781 
L 141.711344 -24.200781 
L 140.710242 -24.200781 
L 139.70914 -24.200781 
L 138.708039 -24.200781 
L 137.706937 -24.200781 
L 136.705835 -24.200781 
L 135.704733 -24.200781 
L 134.703631 -24.200781 
L 133.702529 -24.200781 
L 132.701427 -24.200781 
L 131.700325 -24.200781 
L 130.699223 -24.200781 
L 129.698121 -24.200781 
L 128.697019 -24.200781 
L 127.695917 -24.200781 
L 126.694815 -24.200781 
L 125.693713 -24.200781 
L 124.692612 -24.200781 
L 123.69151 -24.200781 
L 122.690408 -24.200781 
L 121.689306 -24.200781 
L 120.688204 -24.200781 
L 119.687102 -24.200781 
L 118.686 -24.200781 
L 117.684898 -24.200781 
L 116.683796 -24.200781 
L 115.682694 -24.200781 
L 114.681592 -24.200781 
L 113.68049 -24.200781 
L 112.679388 -24.200781 
L 111.678286 -24.200781 
L 110.677185 -24.200781 
L 109.676083 -24.200781 
L 108.674981 -24.200781 
L 107.673879 -24.200781 
L 106.672777 -24.200781 
L 105.671675 -24.200781 
L 104.670573 -24.200781 
L 103.669471 -24.200781 
L 102.668369 -24.200781 
L 101.667267 -24.200781 
L 100.666165 -24.200781 
L 99.665063 -24.200781 
L 98.663961 -24.200781 
L 97.662859 -24.200781 
L 96.661758 -24.200781 
L 95.660656 -24.200781 
L 94.659554 -24.200781 
L 93.658452 -24.200781 
L 92.65735 -24.200781 
L 91.656248 -24.200781 
L 90.655146 -24.200781 
L 89.654044 -24.200781 
L 88.652942 -24.200781 
L 87.65184 -24.200781 
L 86.650738 -24.200781 
L 85.649636 -24.200781 
L 84.648534 -24.200781 
L 83.647432 -24.200781 
L 82.646331 -24.200781 
L 81.645229 -24.200781 
L 80.644127 -24.200781 
L 79.643025 -24.200781 
L 78.641923 -24.200781 
L 77.640821 -24.200781 
L 76.639719 -24.200781 
L 75.638617 -24.200781 
L 74.637515 -24.200781 
L 73.636413 -24.200781 
L 72.635311 -24.200781 
L 71.634209 -24.200781 
L 70.633107 -24.200781 
z
" style="stroke: #f4900c; stroke-opacity: 0.15"/>
    </defs>
    <g clip-path="url(#p35c4089ec1)">
     <use xlink:href="#m8d74065769" x="0" y="222.999375" style="fill: #f4900c; fill-opacity: 0.15; stroke: #f4900c; stroke-opacity: 0.15"/>
    </g>
   </g>
   <g id="matplotlib.axis_1">
    <g id="xtick_1">
     <g id="line2d_1">
      <defs>
       <path id="m6f032604cd" d="M 0 0 
L 0 3.5 
" style="stroke: #000000; stroke-width: 0.8"/>
      </defs>
      <g>
       <use xlink:href="#m6f032604cd" x="70.633107" y="198.798594" style="stroke: #000000; stroke-width: 0.8"/>
      </g>
     </g>
     <g id="text_1">
      <!-- Jan 01 -->
      <g transform="translate(54.973732 213.39625) scale(0.1 -0.1)">
       <defs>
        <path id="DejaVuSans-2d" d="M 628 4666 
L 1259 4666 
L 1259 325 
Q 1259 -519 939 -900 
Q 619 -1281 -91 -1281 
L -331 -1281 
L -331 -750 
L -134 -750 
Q 284 -750 456 -515 
Q 628 -281 628 325 
L 628 4666 
z
" transform="scale(0.015625)"/>
        <path id="DejaVuSans-44" d="M 2194 1759 
Q 1497 1759 1228 1600 
Q 959 1441 959 1056 
Q 959 750 1161 570 
Q 1363 391 1709 391 
Q 2188 391 2477 730 
Q 2766 1069 2766 1631 
L 2766 1759 
L 2194 1759 
z
M 3341 1997 
L 3341 0 
L 2766 0 
L 2766 531 
Q 2569 213 2275 61 
Q 1981 -91 1556 -91 
Q 1019 -91 701 211 
Q 384 513 384 1019 
Q 384 1609 779 1909 
Q 1175 2209 1959 2209 
L 2766 2209 
L 2766 2266 
Q 2766 2663 2505 2880 
Q 2244 3097 1772 3097 
Q 1472 3097 1187 3025 
Q 903 2953 641 2809 
L 641 3341 
Q 956 3463 1253 3523 
Q 1550 3584 1831 3584 
Q 2591 3584 2966 3190 
Q 3341 2797 3341 1997 
z
" transform="scale(0.015625)"/>
        <path id="DejaVuSans-51" d="M 3513 2113 
L 3513 0 
L 2938 0 
L 2938 2094 
Q 2938 2591 2744 2837 
Q 2550 3084 2163 3084 
Q 1697 3084 1428 2787 
Q 1159 2491 1159 1978 
L 1159 0 
L 581 0 
L 581 3500 
L 1159 3500 
L 1159 2956 
Q 1366 3272 1645 3428 
Q 1925 3584 2291 3584 
Q 2894 3584 3203 3211 
Q 3513 2838 3513 2113 
z
" transform="scale(0.015625)"/>
        <path id="DejaVuSans-3" transform="scale(0.015625)"/>
        <path id="DejaVuSans-13" d="M 2034 4250 
Q 1547 4250 1301 3770 
Q 1056 3291 1056 2328 
Q 1056 1369 1301 889 
Q 1547 409 2034 409 
Q 2525 409 2770 889 
Q 3016 1369 3016 2328 
Q 3016 3291 2770 3770 
Q 2525 4250 2034 4250 
z
M 2034 4750 
Q 2819 4750 3233 4129 
Q 3647 3509 3647 2328 
Q 3647 1150 3233 529 
Q 2819 -91 2034 -91 
Q 1250 -91 836 529 
Q 422 1150 422 2328 
Q 422 3509 836 4129 
Q 1250 4750 2034 4750 
z
" transform="scale(0.015625)"/>
        <path id="DejaVuSans-14" d="M 794 531 
L 1825 531 
L 1825 4091 
L 703 3866 
L 703 4441 
L 1819 4666 
L 2450 4666 
L 2450 531 
L 3481 531 
L 3481 0 
L 794 0 
L 794 531 
z
" transform="scale(0.015625)"/>
       </defs>
       <use xlink:href="#DejaVuSans-2d"/>
       <use xlink:href="#DejaVuSans-44" transform="translate(29.5 0)"/>
       <use xlink:href="#DejaVuSans-51" transform="translate(90.78125 0)"/>
       <use xlink:href="#DejaVuSans-3" transform="translate(154.15625 0)"/>
       <use xlink:href="#DejaVuSans-13" transform="translate(185.9375 0)"/>
       <use xlink:href="#DejaVuSans-14" transform="translate(249.5625 0)"/>
      </g>
     </g>
    </g>
    <g id="xtick_2">
     <g id="line2d_2">
      <g>
       <use xlink:href="#m6f032604cd" x="129.698121" y="198.798594" style="stroke: #000000; stroke-width: 0.8"/>
      </g>
     </g>
     <g id="text_2">
      <!-- Mar 01 -->
      <g transform="translate(112.312965 213.39625) scale(0.1 -0.1)">
       <defs>
        <path id="DejaVuSans-30" d="M 628 4666 
L 1569 4666 
L 2759 1491 
L 3956 4666 
L 4897 4666 
L 4897 0 
L 4281 0 
L 4281 4097 
L 3078 897 
L 2444 897 
L 1241 4097 
L 1241 0 
L 628 0 
L 628 4666 
z
" transform="scale(0.015625)"/>
        <path id="DejaVuSans-55" d="M 2631 2963 
Q 2534 3019 2420 3045 
Q 2306 3072 2169 3072 
Q 1681 3072 1420 2755 
Q 1159 2438 1159 1844 
L 1159 0 
L 581 0 
L 581 3500 
L 1159 3500 
L 1159 2956 
Q 1341 3275 1631 3429 
Q 1922 3584 2338 3584 
Q 2397 3584 2469 3576 
Q 2541 3569 2628 3553 
L 2631 2963 
z
" transform="scale(0.015625)"/>
       </defs>
       <use xlink:href="#DejaVuSans-30"/>
       <use xlink:href="#DejaVuSans-44" transform="translate(86.28125 0)"/>
       <use xlink:href="#DejaVuSans-55" transform="translate(147.5625 0)"/>
       <use xlink:href="#DejaVuSans-3" transform="translate(188.671875 0)"/>
       <use xlink:href="#DejaVuSans-13" transform="translate(220.453125 0)"/>
       <use xlink:href="#DejaVuSans-14" transform="translate(284.078125 0)"/>
      </g>
     </g>
    </g>
    <g id="xtick_3">
     <g id="line2d_3">
      <g>
       <use xlink:href="#m6f032604cd" x="190.765339" y="198.798594" style="stroke: #000000; stroke-width: 0.8"/>
      </g>
     </g>
     <g id="text_3">
      <!-- May 01 -->
      <g transform="translate(172.476276 213.39625) scale(0.1 -0.1)">
       <defs>
        <path id="DejaVuSans-5c" d="M 2059 -325 
Q 1816 -950 1584 -1140 
Q 1353 -1331 966 -1331 
L 506 -1331 
L 506 -850 
L 844 -850 
Q 1081 -850 1212 -737 
Q 1344 -625 1503 -206 
L 1606 56 
L 191 3500 
L 800 3500 
L 1894 763 
L 2988 3500 
L 3597 3500 
L 2059 -325 
z
" transform="scale(0.015625)"/>
       </defs>
       <use xlink:href="#DejaVuSans-30"/>
       <use xlink:href="#DejaVuSans-44" transform="translate(86.28125 0)"/>
       <use xlink:href="#DejaVuSans-5c" transform="translate(147.5625 0)"/>
       <use xlink:href="#DejaVuSans-3" transform="translate(206.75 0)"/>
       <use xlink:href="#DejaVuSans-13" transform="translate(238.53125 0)"/>
       <use xlink:href="#DejaVuSans-14" transform="translate(302.15625 0)"/>
      </g>
     </g>
    </g>
    <g id="xtick_4">
     <g id="line2d_4">
      <g>
       <use xlink:href="#m6f032604cd" x="251.832557" y="198.798594" style="stroke: #000000; stroke-width: 0.8"/>
      </g>
     </g>
     <g id="text_4">
      <!-- Jul 01 -->
      <g transform="translate(237.848182 213.397031) scale(0.1 -0.1)">
       <defs>
        <path id="DejaVuSans-58" d="M 544 1381 
L 544 3500 
L 1119 3500 
L 1119 1403 
Q 1119 906 1312 657 
Q 1506 409 1894 409 
Q 2359 409 2629 706 
Q 2900 1003 2900 1516 
L 2900 3500 
L 3475 3500 
L 3475 0 
L 2900 0 
L 2900 538 
Q 2691 219 2414 64 
Q 2138 -91 1772 -91 
Q 1169 -91 856 284 
Q 544 659 544 1381 
z
M 1991 3584 
L 1991 3584 
z
" transform="scale(0.015625)"/>
        <path id="DejaVuSans-4f" d="M 603 4863 
L 1178 4863 
L 1178 0 
L 603 0 
L 603 4863 
z
" transform="scale(0.015625)"/>
       </defs>
       <use xlink:href="#DejaVuSans-2d"/>
       <use xlink:href="#DejaVuSans-58" transform="translate(29.5 0)"/>
       <use xlink:href="#DejaVuSans-4f" transform="translate(92.875 0)"/>
       <use xlink:href="#DejaVuSans-3" transform="translate(120.65625 0)"/>
       <use xlink:href="#DejaVuSans-13" transform="translate(152.4375 0)"/>
       <use xlink:href="#DejaVuSans-14" transform="translate(216.0625 0)"/>
      </g>
     </g>
    </g>
    <g id="xtick_5">
     <g id="line2d_5">
      <g>
       <use xlink:href="#m6f032604cd" x="313.900876" y="198.798594" style="stroke: #000000; stroke-width: 0.8"/>
      </g>
     </g>
     <g id="text_5">
      <!-- Sep 01 -->
      <g transform="translate(296.524314 213.39625) scale(0.1 -0.1)">
       <defs>
        <path id="DejaVuSans-36" d="M 3425 4513 
L 3425 3897 
Q 3066 4069 2747 4153 
Q 2428 4238 2131 4238 
Q 1616 4238 1336 4038 
Q 1056 3838 1056 3469 
Q 1056 3159 1242 3001 
Q 1428 2844 1947 2747 
L 2328 2669 
Q 3034 2534 3370 2195 
Q 3706 1856 3706 1288 
Q 3706 609 3251 259 
Q 2797 -91 1919 -91 
Q 1588 -91 1214 -16 
Q 841 59 441 206 
L 441 856 
Q 825 641 1194 531 
Q 1563 422 1919 422 
Q 2459 422 2753 634 
Q 3047 847 3047 1241 
Q 3047 1584 2836 1778 
Q 2625 1972 2144 2069 
L 1759 2144 
Q 1053 2284 737 2584 
Q 422 2884 422 3419 
Q 422 4038 858 4394 
Q 1294 4750 2059 4750 
Q 2388 4750 2728 4690 
Q 3069 4631 3425 4513 
z
" transform="scale(0.015625)"/>
        <path id="DejaVuSans-48" d="M 3597 1894 
L 3597 1613 
L 953 1613 
Q 991 1019 1311 708 
Q 1631 397 2203 397 
Q 2534 397 2845 478 
Q 3156 559 3463 722 
L 3463 178 
Q 3153 47 2828 -22 
Q 2503 -91 2169 -91 
Q 1331 -91 842 396 
Q 353 884 353 1716 
Q 353 2575 817 3079 
Q 1281 3584 2069 3584 
Q 2775 3584 3186 3129 
Q 3597 2675 3597 1894 
z
M 3022 2063 
Q 3016 2534 2758 2815 
Q 2500 3097 2075 3097 
Q 1594 3097 1305 2825 
Q 1016 2553 972 2059 
L 3022 2063 
z
" transform="scale(0.015625)"/>
        <path id="DejaVuSans-53" d="M 1159 525 
L 1159 -1331 
L 581 -1331 
L 581 3500 
L 1159 3500 
L 1159 2969 
Q 1341 3281 1617 3432 
Q 1894 3584 2278 3584 
Q 2916 3584 3314 3078 
Q 3713 2572 3713 1747 
Q 3713 922 3314 415 
Q 2916 -91 2278 -91 
Q 1894 -91 1617 61 
Q 1341 213 1159 525 
z
M 3116 1747 
Q 3116 2381 2855 2742 
Q 2594 3103 2138 3103 
Q 1681 3103 1420 2742 
Q 1159 2381 1159 1747 
Q 1159 1113 1420 752 
Q 1681 391 2138 391 
Q 2594 391 2855 752 
Q 3116 1113 3116 1747 
z
" transform="scale(0.015625)"/>
       </defs>
       <use xlink:href="#DejaVuSans-36"/>
       <use xlink:href="#DejaVuSans-48" transform="translate(63.484375 0)"/>
       <use xlink:href="#DejaVuSans-53" transform="translate(125.015625 0)"/>
       <use xlink:href="#DejaVuSans-3" transform="translate(188.5 0)"/>
       <use xlink:href="#DejaVuSans-13" transform="translate(220.28125 0)"/>
       <use xlink:href="#DejaVuSans-14" transform="translate(283.90625 0)"/>
      </g>
     </g>
    </g>
    <g id="xtick_6">
     <g id="line2d_6">
      <g>
       <use xlink:href="#m6f032604cd" x="374.968094" y="198.798594" style="stroke: #000000; stroke-width: 0.8"/>
      </g>
     </g>
     <g id="text_6">
      <!-- Nov 01 -->
      <g transform="translate(357.257156 213.39625) scale(0.1 -0.1)">
       <defs>
        <path id="DejaVuSans-31" d="M 628 4666 
L 1478 4666 
L 3547 763 
L 3547 4666 
L 4159 4666 
L 4159 0 
L 3309 0 
L 1241 3903 
L 1241 0 
L 628 0 
L 628 4666 
z
" transform="scale(0.015625)"/>
        <path id="DejaVuSans-52" d="M 1959 3097 
Q 1497 3097 1228 2736 
Q 959 2375 959 1747 
Q 959 1119 1226 758 
Q 1494 397 1959 397 
Q 2419 397 2687 759 
Q 2956 1122 2956 1747 
Q 2956 2369 2687 2733 
Q 2419 3097 1959 3097 
z
M 1959 3584 
Q 2709 3584 3137 3096 
Q 3566 2609 3566 1747 
Q 3566 888 3137 398 
Q 2709 -91 1959 -91 
Q 1206 -91 779 398 
Q 353 888 353 1747 
Q 353 2609 779 3096 
Q 1206 3584 1959 3584 
z
" transform="scale(0.015625)"/>
        <path id="DejaVuSans-59" d="M 191 3500 
L 800 3500 
L 1894 563 
L 2988 3500 
L 3597 3500 
L 2284 0 
L 1503 0 
L 191 3500 
z
" transform="scale(0.015625)"/>
       </defs>
       <use xlink:href="#DejaVuSans-31"/>
       <use xlink:href="#DejaVuSans-52" transform="translate(74.8125 0)"/>
       <use xlink:href="#DejaVuSans-59" transform="translate(136 0)"/>
       <use xlink:href="#DejaVuSans-3" transform="translate(195.1875 0)"/>
       <use xlink:href="#DejaVuSans-13" transform="translate(226.96875 0)"/>
       <use xlink:href="#DejaVuSans-14" transform="translate(290.59375 0)"/>
      </g>
     </g>
    </g>
    <g id="xtick_7">
     <g id="line2d_7">
      <g>
       <use xlink:href="#m6f032604cd" x="436.035312" y="198.798594" style="stroke: #000000; stroke-width: 0.8"/>
      </g>
     </g>
     <g id="text_7">
      <!-- Jan 01 -->
      <g transform="translate(420.375937 213.39625) scale(0.1 -0.1)">
       <use xlink:href="#DejaVuSans-2d"/>
       <use xlink:href="#DejaVuSans-44" transform="translate(29.5 0)"/>
       <use xlink:href="#DejaVuSans-51" transform="translate(90.78125 0)"/>
       <use xlink:href="#DejaVuSans-3" transform="translate(154.15625 0)"/>
       <use xlink:href="#DejaVuSans-13" transform="translate(185.9375 0)"/>
       <use xlink:href="#DejaVuSans-14" transform="translate(249.5625 0)"/>
      </g>
     </g>
    </g>
    <g id="xtick_8">
     <g id="line2d_8">
      <g>
       <use xlink:href="#m6f032604cd" x="495.100325" y="198.798594" style="stroke: #000000; stroke-width: 0.8"/>
      </g>
     </g>
     <g id="text_8">
      <!-- Mar 01 -->
      <g transform="translate(477.715169 213.39625) scale(0.1 -0.1)">
       <use xlink:href="#DejaVuSans-30"/>
       <use xlink:href="#DejaVuSans-44" transform="translate(86.28125 0)"/>
       <use xlink:href="#DejaVuSans-55" transform="translate(147.5625 0)"/>
       <use xlink:href="#DejaVuSans-3" transform="translate(188.671875 0)"/>
       <use xlink:href="#DejaVuSans-13" transform="translate(220.453125 0)"/>
       <use xlink:href="#DejaVuSans-14" transform="translate(284.078125 0)"/>
      </g>
     </g>
    </g>
    <g id="xtick_9">
     <g id="line2d_9">
      <g>
       <use xlink:href="#m6f032604cd" x="556.167543" y="198.798594" style="stroke: #000000; stroke-width: 0.8"/>
      </g>
     </g>
     <g id="text_9">
      <!-- May 01 -->
      <g transform="translate(537.878481 213.39625) scale(0.1 -0.1)">
       <use xlink:href="#DejaVuSans-30"/>
       <use xlink:href="#DejaVuSans-44" transform="translate(86.28125 0)"/>
       <use xlink:href="#DejaVuSans-5c" transform="translate(147.5625 0)"/>
       <use xlink:href="#DejaVuSans-3" transform="translate(206.75 0)"/>
       <use xlink:href="#DejaVuSans-13" transform="translate(238.53125 0)"/>
       <use xlink:href="#DejaVuSans-14" transform="translate(302.15625 0)"/>
      </g>
     </g>
    </g>
    <g id="xtick_10">
     <g id="line2d_10">
      <g>
       <use xlink:href="#m6f032604cd" x="617.234761" y="198.798594" style="stroke: #000000; stroke-width: 0.8"/>
      </g>
     </g>
     <g id="text_10">
      <!-- Jul 01 -->
      <g transform="translate(603.250386 213.397031) scale(0.1 -0.1)">
       <use xlink:href="#DejaVuSans-2d"/>
       <use xlink:href="#DejaVuSans-58" transform="translate(29.5 0)"/>
       <use xlink:href="#DejaVuSans-4f" transform="translate(92.875 0)"/>
       <use xlink:href="#DejaVuSans-3" transform="translate(120.65625 0)"/>
       <use xlink:href="#DejaVuSans-13" transform="translate(152.4375 0)"/>
       <use xlink:href="#DejaVuSans-14" transform="translate(216.0625 0)"/>
      </g>
     </g>
    </g>
   </g>
   <g id="matplotlib.axis_2">
    <g id="ytick_1">
     <g id="line2d_11">
      <path d="M 44.103906 198.798594 
L 627.746331 198.798594 
" clip-path="url(#p35c4089ec1)" style="fill: none; stroke-dasharray: 2.96,1.28; stroke-dashoffset: 0; stroke: #b0b0b0; stroke-opacity: 0.3; stroke-width: 0.8"/>
     </g>
     <g id="line2d_12">
      <defs>
       <path id="mc8f52ad875" d="M 0 0 
L -3.5 0 
" style="stroke: #000000; stroke-width: 0.8"/>
      </defs>
      <g>
       <use xlink:href="#mc8f52ad875" x="44.103906" y="198.798594" style="stroke: #000000; stroke-width: 0.8"/>
      </g>
     </g>
     <g id="text_11">
      <!-- 0.0 -->
      <g transform="translate(21.200781 202.597422) scale(0.1 -0.1)">
       <defs>
        <path id="DejaVuSans-11" d="M 684 794 
L 1344 794 
L 1344 0 
L 684 0 
L 684 794 
z
" transform="scale(0.015625)"/>
       </defs>
       <use xlink:href="#DejaVuSans-13"/>
       <use xlink:href="#DejaVuSans-11" transform="translate(63.625 0)"/>
       <use xlink:href="#DejaVuSans-13" transform="translate(95.40625 0)"/>
      </g>
     </g>
    </g>
    <g id="ytick_2">
     <g id="line2d_13">
      <path d="M 44.103906 156.779435 
L 627.746331 156.779435 
" clip-path="url(#p35c4089ec1)" style="fill: none; stroke-dasharray: 2.96,1.28; stroke-dashoffset: 0; stroke: #b0b0b0; stroke-opacity: 0.3; stroke-width: 0.8"/>
     </g>
     <g id="line2d_14">
      <g>
       <use xlink:href="#mc8f52ad875" x="44.103906" y="156.779435" style="stroke: #000000; stroke-width: 0.8"/>
      </g>
     </g>
     <g id="text_12">
      <!-- 0.5 -->
      <g transform="translate(21.200781 160.578263) scale(0.1 -0.1)">
       <defs>
        <path id="DejaVuSans-18" d="M 691 4666 
L 3169 4666 
L 3169 4134 
L 1269 4134 
L 1269 2991 
Q 1406 3038 1543 3061 
Q 1681 3084 1819 3084 
Q 2600 3084 3056 2656 
Q 3513 2228 3513 1497 
Q 3513 744 3044 326 
Q 2575 -91 1722 -91 
Q 1428 -91 1123 -41 
Q 819 9 494 109 
L 494 744 
Q 775 591 1075 516 
Q 1375 441 1709 441 
Q 2250 441 2565 725 
Q 2881 1009 2881 1497 
Q 2881 1984 2565 2268 
Q 2250 2553 1709 2553 
Q 1456 2553 1204 2497 
Q 953 2441 691 2322 
L 691 4666 
z
" transform="scale(0.015625)"/>
       </defs>
       <use xlink:href="#DejaVuSans-13"/>
       <use xlink:href="#DejaVuSans-11" transform="translate(63.625 0)"/>
       <use xlink:href="#DejaVuSans-18" transform="translate(95.40625 0)"/>
      </g>
     </g>
    </g>
    <g id="ytick_3">
     <g id="line2d_15">
      <path d="M 44.103906 114.760275 
L 627.746331 114.760275 
" clip-path="url(#p35c4089ec1)" style="fill: none; stroke-dasharray: 2.96,1.28; stroke-dashoffset: 0; stroke: #b0b0b0; stroke-opacity: 0.3; stroke-width: 0.8"/>
     </g>
     <g id="line2d_16">
      <g>
       <use xlink:href="#mc8f52ad875" x="44.103906" y="114.760275" style="stroke: #000000; stroke-width: 0.8"/>
      </g>
     </g>
     <g id="text_13">
      <!-- 1.0 -->
      <g transform="translate(21.200781 118.559103) scale(0.1 -0.1)">
       <use xlink:href="#DejaVuSans-14"/>
       <use xlink:href="#DejaVuSans-11" transform="translate(63.625 0)"/>
       <use xlink:href="#DejaVuSans-13" transform="translate(95.40625 0)"/>
      </g>
     </g>
    </g>
    <g id="ytick_4">
     <g id="line2d_17">
      <path d="M 44.103906 72.741116 
L 627.746331 72.741116 
" clip-path="url(#p35c4089ec1)" style="fill: none; stroke-dasharray: 2.96,1.28; stroke-dashoffset: 0; stroke: #b0b0b0; stroke-opacity: 0.3; stroke-width: 0.8"/>
     </g>
     <g id="line2d_18">
      <g>
       <use xlink:href="#mc8f52ad875" x="44.103906" y="72.741116" style="stroke: #000000; stroke-width: 0.8"/>
      </g>
     </g>
     <g id="text_14">
      <!-- 1.5 -->
      <g transform="translate(21.200781 76.539944) scale(0.1 -0.1)">
       <use xlink:href="#DejaVuSans-14"/>
       <use xlink:href="#DejaVuSans-11" transform="translate(63.625 0)"/>
       <use xlink:href="#DejaVuSans-18" transform="translate(95.40625 0)"/>
      </g>
     </g>
    </g>
    <g id="ytick_5">
     <g id="line2d_19">
      <path d="M 44.103906 30.721957 
L 627.746331 30.721957 
" clip-path="url(#p35c4089ec1)" style="fill: none; stroke-dasharray: 2.96,1.28; stroke-dashoffset: 0; stroke: #b0b0b0; stroke-opacity: 0.3; stroke-width: 0.8"/>
     </g>
     <g id="line2d_20">
      <g>
       <use xlink:href="#mc8f52ad875" x="44.103906" y="30.721957" style="stroke: #000000; stroke-width: 0.8"/>
      </g>
     </g>
     <g id="text_15">
      <!-- 2.0 -->
      <g transform="translate(21.200781 34.520785) scale(0.1 -0.1)">
       <defs>
        <path id="DejaVuSans-15" d="M 1228 531 
L 3431 531 
L 3431 0 
L 469 0 
L 469 531 
Q 828 903 1448 1529 
Q 2069 2156 2228 2338 
Q 2531 2678 2651 2914 
Q 2772 3150 2772 3378 
Q 2772 3750 2511 3984 
Q 2250 4219 1831 4219 
Q 1534 4219 1204 4116 
Q 875 4013 500 3803 
L 500 4441 
Q 881 4594 1212 4672 
Q 1544 4750 1819 4750 
Q 2544 4750 2975 4387 
Q 3406 4025 3406 3419 
Q 3406 3131 3298 2873 
Q 3191 2616 2906 2266 
Q 2828 2175 2409 1742 
Q 1991 1309 1228 531 
z
" transform="scale(0.015625)"/>
       </defs>
       <use xlink:href="#DejaVuSans-15"/>
       <use xlink:href="#DejaVuSans-11" transform="translate(63.625 0)"/>
       <use xlink:href="#DejaVuSans-13" transform="translate(95.40625 0)"/>
      </g>
     </g>
    </g>
    <g id="text_16">
     <!-- Unique visitors / day -->
     <g transform="translate(14.798438 161.866172) rotate(-90) scale(0.1 -0.1)">
      <defs>
       <path id="DejaVuSans-38" d="M 556 4666 
L 1191 4666 
L 1191 1831 
Q 1191 1081 1462 751 
Q 1734 422 2344 422 
Q 2950 422 3222 751 
Q 3494 1081 3494 1831 
L 3494 4666 
L 4128 4666 
L 4128 1753 
Q 4128 841 3676 375 
Q 3225 -91 2344 -91 
Q 1459 -91 1007 375 
Q 556 841 556 1753 
L 556 4666 
z
" transform="scale(0.015625)"/>
       <path id="DejaVuSans-4c" d="M 603 3500 
L 1178 3500 
L 1178 0 
L 603 0 
L 603 3500 
z
M 603 4863 
L 1178 4863 
L 1178 4134 
L 603 4134 
L 603 4863 
z
" transform="scale(0.015625)"/>
       <path id="DejaVuSans-54" d="M 947 1747 
Q 947 1113 1208 752 
Q 1469 391 1925 391 
Q 2381 391 2643 752 
Q 2906 1113 2906 1747 
Q 2906 2381 2643 2742 
Q 2381 3103 1925 3103 
Q 1469 3103 1208 2742 
Q 947 2381 947 1747 
z
M 2906 525 
Q 2725 213 2448 61 
Q 2172 -91 1784 -91 
Q 1150 -91 751 415 
Q 353 922 353 1747 
Q 353 2572 751 3078 
Q 1150 3584 1784 3584 
Q 2172 3584 2448 3432 
Q 2725 3281 2906 2969 
L 2906 3500 
L 3481 3500 
L 3481 -1331 
L 2906 -1331 
L 2906 525 
z
" transform="scale(0.015625)"/>
       <path id="DejaVuSans-56" d="M 2834 3397 
L 2834 2853 
Q 2591 2978 2328 3040 
Q 2066 3103 1784 3103 
Q 1356 3103 1142 2972 
Q 928 2841 928 2578 
Q 928 2378 1081 2264 
Q 1234 2150 1697 2047 
L 1894 2003 
Q 2506 1872 2764 1633 
Q 3022 1394 3022 966 
Q 3022 478 2636 193 
Q 2250 -91 1575 -91 
Q 1294 -91 989 -36 
Q 684 19 347 128 
L 347 722 
Q 666 556 975 473 
Q 1284 391 1588 391 
Q 1994 391 2212 530 
Q 2431 669 2431 922 
Q 2431 1156 2273 1281 
Q 2116 1406 1581 1522 
L 1381 1569 
Q 847 1681 609 1914 
Q 372 2147 372 2553 
Q 372 3047 722 3315 
Q 1072 3584 1716 3584 
Q 2034 3584 2315 3537 
Q 2597 3491 2834 3397 
z
" transform="scale(0.015625)"/>
       <path id="DejaVuSans-57" d="M 1172 4494 
L 1172 3500 
L 2356 3500 
L 2356 3053 
L 1172 3053 
L 1172 1153 
Q 1172 725 1289 603 
Q 1406 481 1766 481 
L 2356 481 
L 2356 0 
L 1766 0 
Q 1100 0 847 248 
Q 594 497 594 1153 
L 594 3053 
L 172 3053 
L 172 3500 
L 594 3500 
L 594 4494 
L 1172 4494 
z
" transform="scale(0.015625)"/>
       <path id="DejaVuSans-12" d="M 1625 4666 
L 2156 4666 
L 531 -594 
L 0 -594 
L 1625 4666 
z
" transform="scale(0.015625)"/>
       <path id="DejaVuSans-47" d="M 2906 2969 
L 2906 4863 
L 3481 4863 
L 3481 0 
L 2906 0 
L 2906 525 
Q 2725 213 2448 61 
Q 2172 -91 1784 -91 
Q 1150 -91 751 415 
Q 353 922 353 1747 
Q 353 2572 751 3078 
Q 1150 3584 1784 3584 
Q 2172 3584 2448 3432 
Q 2725 3281 2906 2969 
z
M 947 1747 
Q 947 1113 1208 752 
Q 1469 391 1925 391 
Q 2381 391 2643 752 
Q 2906 1113 2906 1747 
Q 2906 2381 2643 2742 
Q 2381 3103 1925 3103 
Q 1469 3103 1208 2742 
Q 947 2381 947 1747 
z
" transform="scale(0.015625)"/>
      </defs>
      <use xlink:href="#DejaVuSans-38"/>
      <use xlink:href="#DejaVuSans-51" transform="translate(73.1875 0)"/>
      <use xlink:href="#DejaVuSans-4c" transform="translate(136.5625 0)"/>
      <use xlink:href="#DejaVuSans-54" transform="translate(164.34375 0)"/>
      <use xlink:href="#DejaVuSans-58" transform="translate(227.828125 0)"/>
      <use xlink:href="#DejaVuSans-48" transform="translate(291.203125 0)"/>
      <use xlink:href="#DejaVuSans-3" transform="translate(352.734375 0)"/>
      <use xlink:href="#DejaVuSans-59" transform="translate(384.515625 0)"/>
      <use xlink:href="#DejaVuSans-4c" transform="translate(443.703125 0)"/>
      <use xlink:href="#DejaVuSans-56" transform="translate(471.484375 0)"/>
      <use xlink:href="#DejaVuSans-4c" transform="translate(523.578125 0)"/>
      <use xlink:href="#DejaVuSans-57" transform="translate(551.359375 0)"/>
      <use xlink:href="#DejaVuSans-52" transform="translate(590.5625 0)"/>
      <use xlink:href="#DejaVuSans-55" transform="translate(651.75 0)"/>
      <use xlink:href="#DejaVuSans-56" transform="translate(692.859375 0)"/>
      <use xlink:href="#DejaVuSans-3" transform="translate(744.953125 0)"/>
      <use xlink:href="#DejaVuSans-12" transform="translate(776.734375 0)"/>
      <use xlink:href="#DejaVuSans-3" transform="translate(810.421875 0)"/>
      <use xlink:href="#DejaVuSans-47" transform="translate(842.203125 0)"/>
      <use xlink:href="#DejaVuSans-44" transform="translate(905.6875 0)"/>
      <use xlink:href="#DejaVuSans-5c" transform="translate(966.96875 0)"/>
     </g>
    </g>
   </g>
   <g id="line2d_21">
    <path d="M 70.633107 198.798594 
L 600.216028 198.798594 
L 601.21713 30.721957 
L 601.21713 30.721957 
" clip-path="url(#p35c4089ec1)" style="fill: none; stroke: #f4900c; stroke-width: 2; stroke-linecap: square"/>
   </g>
   <g id="patch_3">
    <path d="M 44.103906 198.798594 
L 44.103906 22.318125 
" style="fill: none; stroke: #000000; stroke-width: 0.8; stroke-linejoin: miter; stroke-linecap: square"/>
   </g>
   <g id="patch_4">
    <path d="M 44.103906 198.798594 
L 627.746331 198.798594 
" style="fill: none; stroke: #000000; stroke-width: 0.8; stroke-linejoin: miter; stroke-linecap: square"/>
   </g>
   <g id="text_17">
    <!-- App visitors over time  ·  2 total -->
    <g transform="translate(44.103906 16.318125) scale(0.12 -0.12)">
     <defs>
      <path id="DejaVuSans-Bold-24" d="M 3419 850 
L 1538 850 
L 1241 0 
L 31 0 
L 1759 4666 
L 3194 4666 
L 4922 0 
L 3713 0 
L 3419 850 
z
M 1838 1716 
L 3116 1716 
L 2478 3572 
L 1838 1716 
z
" transform="scale(0.015625)"/>
      <path id="DejaVuSans-Bold-53" d="M 1656 506 
L 1656 -1331 
L 538 -1331 
L 538 3500 
L 1656 3500 
L 1656 2988 
Q 1888 3294 2169 3439 
Q 2450 3584 2816 3584 
Q 3463 3584 3878 3070 
Q 4294 2556 4294 1747 
Q 4294 938 3878 423 
Q 3463 -91 2816 -91 
Q 2450 -91 2169 54 
Q 1888 200 1656 506 
z
M 2400 2772 
Q 2041 2772 1848 2508 
Q 1656 2244 1656 1747 
Q 1656 1250 1848 986 
Q 2041 722 2400 722 
Q 2759 722 2948 984 
Q 3138 1247 3138 1747 
Q 3138 2247 2948 2509 
Q 2759 2772 2400 2772 
z
" transform="scale(0.015625)"/>
      <path id="DejaVuSans-Bold-3" transform="scale(0.015625)"/>
      <path id="DejaVuSans-Bold-59" d="M 97 3500 
L 1216 3500 
L 2088 1081 
L 2956 3500 
L 4078 3500 
L 2700 0 
L 1472 0 
L 97 3500 
z
" transform="scale(0.015625)"/>
      <path id="DejaVuSans-Bold-4c" d="M 538 3500 
L 1656 3500 
L 1656 0 
L 538 0 
L 538 3500 
z
M 538 4863 
L 1656 4863 
L 1656 3950 
L 538 3950 
L 538 4863 
z
" transform="scale(0.015625)"/>
      <path id="DejaVuSans-Bold-56" d="M 3272 3391 
L 3272 2541 
Q 2913 2691 2578 2766 
Q 2244 2841 1947 2841 
Q 1628 2841 1473 2761 
Q 1319 2681 1319 2516 
Q 1319 2381 1436 2309 
Q 1553 2238 1856 2203 
L 2053 2175 
Q 2913 2066 3209 1816 
Q 3506 1566 3506 1031 
Q 3506 472 3093 190 
Q 2681 -91 1863 -91 
Q 1516 -91 1145 -36 
Q 775 19 384 128 
L 384 978 
Q 719 816 1070 734 
Q 1422 653 1784 653 
Q 2113 653 2278 743 
Q 2444 834 2444 1013 
Q 2444 1163 2330 1236 
Q 2216 1309 1875 1350 
L 1678 1375 
Q 931 1469 631 1722 
Q 331 1975 331 2491 
Q 331 3047 712 3315 
Q 1094 3584 1881 3584 
Q 2191 3584 2531 3537 
Q 2872 3491 3272 3391 
z
" transform="scale(0.015625)"/>
      <path id="DejaVuSans-Bold-57" d="M 1759 4494 
L 1759 3500 
L 2913 3500 
L 2913 2700 
L 1759 2700 
L 1759 1216 
Q 1759 972 1856 886 
Q 1953 800 2241 800 
L 2816 800 
L 2816 0 
L 1856 0 
Q 1194 0 917 276 
Q 641 553 641 1216 
L 641 2700 
L 84 2700 
L 84 3500 
L 641 3500 
L 641 4494 
L 1759 4494 
z
" transform="scale(0.015625)"/>
      <path id="DejaVuSans-Bold-52" d="M 2203 2784 
Q 1831 2784 1636 2517 
Q 1441 2250 1441 1747 
Q 1441 1244 1636 976 
Q 1831 709 2203 709 
Q 2569 709 2762 976 
Q 2956 1244 2956 1747 
Q 2956 2250 2762 2517 
Q 2569 2784 2203 2784 
z
M 2203 3584 
Q 3106 3584 3614 3096 
Q 4122 2609 4122 1747 
Q 4122 884 3614 396 
Q 3106 -91 2203 -91 
Q 1297 -91 786 396 
Q 275 884 275 1747 
Q 275 2609 786 3096 
Q 1297 3584 2203 3584 
z
" transform="scale(0.015625)"/>
      <path id="DejaVuSans-Bold-55" d="M 3138 2547 
Q 2991 2616 2845 2648 
Q 2700 2681 2553 2681 
Q 2122 2681 1889 2404 
Q 1656 2128 1656 1613 
L 1656 0 
L 538 0 
L 538 3500 
L 1656 3500 
L 1656 2925 
Q 1872 3269 2151 3426 
Q 2431 3584 2822 3584 
Q 2878 3584 2943 3579 
Q 3009 3575 3134 3559 
L 3138 2547 
z
" transform="scale(0.015625)"/>
      <path id="DejaVuSans-Bold-48" d="M 4031 1759 
L 4031 1441 
L 1416 1441 
Q 1456 1047 1700 850 
Q 1944 653 2381 653 
Q 2734 653 3104 758 
Q 3475 863 3866 1075 
L 3866 213 
Q 3469 63 3072 -14 
Q 2675 -91 2278 -91 
Q 1328 -91 801 392 
Q 275 875 275 1747 
Q 275 2603 792 3093 
Q 1309 3584 2216 3584 
Q 3041 3584 3536 3087 
Q 4031 2591 4031 1759 
z
M 2881 2131 
Q 2881 2450 2695 2645 
Q 2509 2841 2209 2841 
Q 1884 2841 1681 2658 
Q 1478 2475 1428 2131 
L 2881 2131 
z
" transform="scale(0.015625)"/>
      <path id="DejaVuSans-Bold-50" d="M 3781 2919 
Q 3994 3244 4286 3414 
Q 4578 3584 4928 3584 
Q 5531 3584 5847 3212 
Q 6163 2841 6163 2131 
L 6163 0 
L 5038 0 
L 5038 1825 
Q 5041 1866 5042 1909 
Q 5044 1953 5044 2034 
Q 5044 2406 4934 2573 
Q 4825 2741 4581 2741 
Q 4263 2741 4089 2478 
Q 3916 2216 3909 1719 
L 3909 0 
L 2784 0 
L 2784 1825 
Q 2784 2406 2684 2573 
Q 2584 2741 2328 2741 
Q 2006 2741 1831 2477 
Q 1656 2213 1656 1722 
L 1656 0 
L 531 0 
L 531 3500 
L 1656 3500 
L 1656 2988 
Q 1863 3284 2130 3434 
Q 2397 3584 2719 3584 
Q 3081 3584 3359 3409 
Q 3638 3234 3781 2919 
z
" transform="scale(0.015625)"/>
      <path id="DejaVuSans-Bold-79" d="M 653 2828 
L 1778 2828 
L 1778 1619 
L 653 1619 
L 653 2828 
z
" transform="scale(0.015625)"/>
      <path id="DejaVuSans-Bold-15" d="M 1844 884 
L 3897 884 
L 3897 0 
L 506 0 
L 506 884 
L 2209 2388 
Q 2438 2594 2547 2791 
Q 2656 2988 2656 3200 
Q 2656 3528 2436 3728 
Q 2216 3928 1850 3928 
Q 1569 3928 1234 3808 
Q 900 3688 519 3450 
L 519 4475 
Q 925 4609 1322 4679 
Q 1719 4750 2100 4750 
Q 2938 4750 3402 4381 
Q 3866 4013 3866 3353 
Q 3866 2972 3669 2642 
Q 3472 2313 2841 1759 
L 1844 884 
z
" transform="scale(0.015625)"/>
      <path id="DejaVuSans-Bold-44" d="M 2106 1575 
Q 1756 1575 1579 1456 
Q 1403 1338 1403 1106 
Q 1403 894 1545 773 
Q 1688 653 1941 653 
Q 2256 653 2472 879 
Q 2688 1106 2688 1447 
L 2688 1575 
L 2106 1575 
z
M 3816 1997 
L 3816 0 
L 2688 0 
L 2688 519 
Q 2463 200 2181 54 
Q 1900 -91 1497 -91 
Q 953 -91 614 226 
Q 275 544 275 1050 
Q 275 1666 698 1953 
Q 1122 2241 2028 2241 
L 2688 2241 
L 2688 2328 
Q 2688 2594 2478 2717 
Q 2269 2841 1825 2841 
Q 1466 2841 1156 2769 
Q 847 2697 581 2553 
L 581 3406 
Q 941 3494 1303 3539 
Q 1666 3584 2028 3584 
Q 2975 3584 3395 3211 
Q 3816 2838 3816 1997 
z
" transform="scale(0.015625)"/>
      <path id="DejaVuSans-Bold-4f" d="M 538 4863 
L 1656 4863 
L 1656 0 
L 538 0 
L 538 4863 
z
" transform="scale(0.015625)"/>
     </defs>
     <use xlink:href="#DejaVuSans-Bold-24"/>
     <use xlink:href="#DejaVuSans-Bold-53" transform="translate(77.390625 0)"/>
     <use xlink:href="#DejaVuSans-Bold-53" transform="translate(148.96875 0)"/>
     <use xlink:href="#DejaVuSans-Bold-3" transform="translate(220.546875 0)"/>
     <use xlink:href="#DejaVuSans-Bold-59" transform="translate(255.359375 0)"/>
     <use xlink:href="#DejaVuSans-Bold-4c" transform="translate(320.546875 0)"/>
     <use xlink:href="#DejaVuSans-Bold-56" transform="translate(354.828125 0)"/>
     <use xlink:href="#DejaVuSans-Bold-4c" transform="translate(414.34375 0)"/>
     <use xlink:href="#DejaVuSans-Bold-57" transform="translate(448.625 0)"/>
     <use xlink:href="#DejaVuSans-Bold-52" transform="translate(496.421875 0)"/>
     <use xlink:href="#DejaVuSans-Bold-55" transform="translate(565.125 0)"/>
     <use xlink:href="#DejaVuSans-Bold-56" transform="translate(614.4375 0)"/>
     <use xlink:href="#DejaVuSans-Bold-3" transform="translate(673.953125 0)"/>
     <use xlink:href="#DejaVuSans-Bold-52" transform="translate(708.765625 0)"/>
     <use xlink:href="#DejaVuSans-Bold-59" transform="translate(777.46875 0)"/>
     <use xlink:href="#DejaVuSans-Bold-48" transform="translate(842.65625 0)"/>
     <use xlink:href="#DejaVuSans-Bold-55" transform="translate(910.484375 0)"/>
     <use xlink:href="#DejaVuSans-Bold-3" transform="translate(959.796875 0)"/>
     <use xlink:href="#DejaVuSans-Bold-57" transform="translate(994.609375 0)"/>
     <use xlink:href="#DejaVuSans-Bold-4c" transform="translate(1042.40625 0)"/>
     <use xlink:href="#DejaVuSans-Bold-50" transform="translate(1076.6875 0)"/>
     <use xlink:href="#DejaVuSans-Bold-48" transform="translate(1180.890625 0)"/>
     <use xlink:href="#DejaVuSans-Bold-3" transform="translate(1248.71875 0)"/>
     <use xlink:href="#DejaVuSans-Bold-3" transform="translate(1283.53125 0)"/>
     <use xlink:href="#DejaVuSans-Bold-79" transform="translate(1318.34375 0)"/>
     <use xlink:href="#DejaVuSans-Bold-3" transform="translate(1356.328125 0)"/>
     <use xlink:href="#DejaVuSans-Bold-3" transform="translate(1391.140625 0)"/>
     <use xlink:href="#DejaVuSans-Bold-15" transform="translate(1425.953125 0)"/>
     <use xlink:href="#DejaVuSans-Bold-3" transform="translate(1495.53125 0)"/>
     <use xlink:href="#DejaVuSans-Bold-57" transform="translate(1530.34375 0)"/>
     <use xlink:href="#DejaVuSans-Bold-52" transform="translate(1578.140625 0)"/>
     <use xlink:href="#DejaVuSans-Bold-57" transform="translate(1646.84375 0)"/>
     <use xlink:href="#DejaVuSans-Bold-44" transform="translate(1694.640625 0)"/>
     <use xlink:href="#DejaVuSans-Bold-4f" transform="translate(1762.125 0)"/>
    </g>
   </g>
  </g>
 </g>
 <defs>
  <clipPath id="p35c4089ec1">
   <rect x="44.103906" y="22.318125" width="583.642425" height="176.480469"/>
  </clipPath>
 </defs>
</svg>
